G75*
%MOIN*%
%OFA0B0*%
%FSLAX25Y25*%
%IPPOS*%
%LPD*%
%AMOC8*
5,1,8,0,0,1.08239X$1,22.5*
%
%ADD10C,0.00000*%
%ADD11C,0.06200*%
%ADD12C,0.06600*%
%ADD13C,0.13000*%
%ADD14R,0.06600X0.06600*%
%ADD15OC8,0.06600*%
%ADD16R,0.06299X0.07087*%
%ADD17R,0.04724X0.02165*%
%ADD18R,0.07087X0.06299*%
%ADD19R,0.09843X0.06693*%
%ADD20C,0.06400*%
%ADD21R,0.02600X0.08000*%
%ADD22R,0.02362X0.08661*%
%ADD23C,0.07400*%
%ADD24C,0.01200*%
%ADD25C,0.04000*%
D10*
X0001000Y0001000D02*
X0001000Y0394701D01*
X0394701Y0394701D01*
X0394701Y0001000D01*
X0001000Y0001000D01*
X0110842Y0079740D02*
X0110844Y0079943D01*
X0110852Y0080146D01*
X0110864Y0080348D01*
X0110882Y0080550D01*
X0110904Y0080752D01*
X0110931Y0080953D01*
X0110964Y0081154D01*
X0111001Y0081353D01*
X0111043Y0081552D01*
X0111090Y0081749D01*
X0111141Y0081945D01*
X0111198Y0082140D01*
X0111259Y0082334D01*
X0111325Y0082525D01*
X0111396Y0082716D01*
X0111471Y0082904D01*
X0111551Y0083091D01*
X0111636Y0083275D01*
X0111725Y0083457D01*
X0111818Y0083638D01*
X0111916Y0083815D01*
X0112018Y0083991D01*
X0112125Y0084163D01*
X0112235Y0084333D01*
X0112350Y0084501D01*
X0112469Y0084665D01*
X0112592Y0084827D01*
X0112719Y0084985D01*
X0112849Y0085140D01*
X0112984Y0085292D01*
X0113122Y0085441D01*
X0113264Y0085586D01*
X0113409Y0085728D01*
X0113558Y0085866D01*
X0113710Y0086001D01*
X0113865Y0086131D01*
X0114023Y0086258D01*
X0114185Y0086381D01*
X0114349Y0086500D01*
X0114517Y0086615D01*
X0114687Y0086725D01*
X0114859Y0086832D01*
X0115035Y0086934D01*
X0115212Y0087032D01*
X0115393Y0087125D01*
X0115575Y0087214D01*
X0115759Y0087299D01*
X0115946Y0087379D01*
X0116134Y0087454D01*
X0116325Y0087525D01*
X0116516Y0087591D01*
X0116710Y0087652D01*
X0116905Y0087709D01*
X0117101Y0087760D01*
X0117298Y0087807D01*
X0117497Y0087849D01*
X0117696Y0087886D01*
X0117897Y0087919D01*
X0118098Y0087946D01*
X0118300Y0087968D01*
X0118502Y0087986D01*
X0118704Y0087998D01*
X0118907Y0088006D01*
X0119110Y0088008D01*
X0119313Y0088006D01*
X0119516Y0087998D01*
X0119718Y0087986D01*
X0119920Y0087968D01*
X0120122Y0087946D01*
X0120323Y0087919D01*
X0120524Y0087886D01*
X0120723Y0087849D01*
X0120922Y0087807D01*
X0121119Y0087760D01*
X0121315Y0087709D01*
X0121510Y0087652D01*
X0121704Y0087591D01*
X0121895Y0087525D01*
X0122086Y0087454D01*
X0122274Y0087379D01*
X0122461Y0087299D01*
X0122645Y0087214D01*
X0122827Y0087125D01*
X0123008Y0087032D01*
X0123185Y0086934D01*
X0123361Y0086832D01*
X0123533Y0086725D01*
X0123703Y0086615D01*
X0123871Y0086500D01*
X0124035Y0086381D01*
X0124197Y0086258D01*
X0124355Y0086131D01*
X0124510Y0086001D01*
X0124662Y0085866D01*
X0124811Y0085728D01*
X0124956Y0085586D01*
X0125098Y0085441D01*
X0125236Y0085292D01*
X0125371Y0085140D01*
X0125501Y0084985D01*
X0125628Y0084827D01*
X0125751Y0084665D01*
X0125870Y0084501D01*
X0125985Y0084333D01*
X0126095Y0084163D01*
X0126202Y0083991D01*
X0126304Y0083815D01*
X0126402Y0083638D01*
X0126495Y0083457D01*
X0126584Y0083275D01*
X0126669Y0083091D01*
X0126749Y0082904D01*
X0126824Y0082716D01*
X0126895Y0082525D01*
X0126961Y0082334D01*
X0127022Y0082140D01*
X0127079Y0081945D01*
X0127130Y0081749D01*
X0127177Y0081552D01*
X0127219Y0081353D01*
X0127256Y0081154D01*
X0127289Y0080953D01*
X0127316Y0080752D01*
X0127338Y0080550D01*
X0127356Y0080348D01*
X0127368Y0080146D01*
X0127376Y0079943D01*
X0127378Y0079740D01*
X0127376Y0079537D01*
X0127368Y0079334D01*
X0127356Y0079132D01*
X0127338Y0078930D01*
X0127316Y0078728D01*
X0127289Y0078527D01*
X0127256Y0078326D01*
X0127219Y0078127D01*
X0127177Y0077928D01*
X0127130Y0077731D01*
X0127079Y0077535D01*
X0127022Y0077340D01*
X0126961Y0077146D01*
X0126895Y0076955D01*
X0126824Y0076764D01*
X0126749Y0076576D01*
X0126669Y0076389D01*
X0126584Y0076205D01*
X0126495Y0076023D01*
X0126402Y0075842D01*
X0126304Y0075665D01*
X0126202Y0075489D01*
X0126095Y0075317D01*
X0125985Y0075147D01*
X0125870Y0074979D01*
X0125751Y0074815D01*
X0125628Y0074653D01*
X0125501Y0074495D01*
X0125371Y0074340D01*
X0125236Y0074188D01*
X0125098Y0074039D01*
X0124956Y0073894D01*
X0124811Y0073752D01*
X0124662Y0073614D01*
X0124510Y0073479D01*
X0124355Y0073349D01*
X0124197Y0073222D01*
X0124035Y0073099D01*
X0123871Y0072980D01*
X0123703Y0072865D01*
X0123533Y0072755D01*
X0123361Y0072648D01*
X0123185Y0072546D01*
X0123008Y0072448D01*
X0122827Y0072355D01*
X0122645Y0072266D01*
X0122461Y0072181D01*
X0122274Y0072101D01*
X0122086Y0072026D01*
X0121895Y0071955D01*
X0121704Y0071889D01*
X0121510Y0071828D01*
X0121315Y0071771D01*
X0121119Y0071720D01*
X0120922Y0071673D01*
X0120723Y0071631D01*
X0120524Y0071594D01*
X0120323Y0071561D01*
X0120122Y0071534D01*
X0119920Y0071512D01*
X0119718Y0071494D01*
X0119516Y0071482D01*
X0119313Y0071474D01*
X0119110Y0071472D01*
X0118907Y0071474D01*
X0118704Y0071482D01*
X0118502Y0071494D01*
X0118300Y0071512D01*
X0118098Y0071534D01*
X0117897Y0071561D01*
X0117696Y0071594D01*
X0117497Y0071631D01*
X0117298Y0071673D01*
X0117101Y0071720D01*
X0116905Y0071771D01*
X0116710Y0071828D01*
X0116516Y0071889D01*
X0116325Y0071955D01*
X0116134Y0072026D01*
X0115946Y0072101D01*
X0115759Y0072181D01*
X0115575Y0072266D01*
X0115393Y0072355D01*
X0115212Y0072448D01*
X0115035Y0072546D01*
X0114859Y0072648D01*
X0114687Y0072755D01*
X0114517Y0072865D01*
X0114349Y0072980D01*
X0114185Y0073099D01*
X0114023Y0073222D01*
X0113865Y0073349D01*
X0113710Y0073479D01*
X0113558Y0073614D01*
X0113409Y0073752D01*
X0113264Y0073894D01*
X0113122Y0074039D01*
X0112984Y0074188D01*
X0112849Y0074340D01*
X0112719Y0074495D01*
X0112592Y0074653D01*
X0112469Y0074815D01*
X0112350Y0074979D01*
X0112235Y0075147D01*
X0112125Y0075317D01*
X0112018Y0075489D01*
X0111916Y0075665D01*
X0111818Y0075842D01*
X0111725Y0076023D01*
X0111636Y0076205D01*
X0111551Y0076389D01*
X0111471Y0076576D01*
X0111396Y0076764D01*
X0111325Y0076955D01*
X0111259Y0077146D01*
X0111198Y0077340D01*
X0111141Y0077535D01*
X0111090Y0077731D01*
X0111043Y0077928D01*
X0111001Y0078127D01*
X0110964Y0078326D01*
X0110931Y0078527D01*
X0110904Y0078728D01*
X0110882Y0078930D01*
X0110864Y0079132D01*
X0110852Y0079334D01*
X0110844Y0079537D01*
X0110842Y0079740D01*
X0032102Y0197850D02*
X0032104Y0198053D01*
X0032112Y0198256D01*
X0032124Y0198458D01*
X0032142Y0198660D01*
X0032164Y0198862D01*
X0032191Y0199063D01*
X0032224Y0199264D01*
X0032261Y0199463D01*
X0032303Y0199662D01*
X0032350Y0199859D01*
X0032401Y0200055D01*
X0032458Y0200250D01*
X0032519Y0200444D01*
X0032585Y0200635D01*
X0032656Y0200826D01*
X0032731Y0201014D01*
X0032811Y0201201D01*
X0032896Y0201385D01*
X0032985Y0201567D01*
X0033078Y0201748D01*
X0033176Y0201925D01*
X0033278Y0202101D01*
X0033385Y0202273D01*
X0033495Y0202443D01*
X0033610Y0202611D01*
X0033729Y0202775D01*
X0033852Y0202937D01*
X0033979Y0203095D01*
X0034109Y0203250D01*
X0034244Y0203402D01*
X0034382Y0203551D01*
X0034524Y0203696D01*
X0034669Y0203838D01*
X0034818Y0203976D01*
X0034970Y0204111D01*
X0035125Y0204241D01*
X0035283Y0204368D01*
X0035445Y0204491D01*
X0035609Y0204610D01*
X0035777Y0204725D01*
X0035947Y0204835D01*
X0036119Y0204942D01*
X0036295Y0205044D01*
X0036472Y0205142D01*
X0036653Y0205235D01*
X0036835Y0205324D01*
X0037019Y0205409D01*
X0037206Y0205489D01*
X0037394Y0205564D01*
X0037585Y0205635D01*
X0037776Y0205701D01*
X0037970Y0205762D01*
X0038165Y0205819D01*
X0038361Y0205870D01*
X0038558Y0205917D01*
X0038757Y0205959D01*
X0038956Y0205996D01*
X0039157Y0206029D01*
X0039358Y0206056D01*
X0039560Y0206078D01*
X0039762Y0206096D01*
X0039964Y0206108D01*
X0040167Y0206116D01*
X0040370Y0206118D01*
X0040573Y0206116D01*
X0040776Y0206108D01*
X0040978Y0206096D01*
X0041180Y0206078D01*
X0041382Y0206056D01*
X0041583Y0206029D01*
X0041784Y0205996D01*
X0041983Y0205959D01*
X0042182Y0205917D01*
X0042379Y0205870D01*
X0042575Y0205819D01*
X0042770Y0205762D01*
X0042964Y0205701D01*
X0043155Y0205635D01*
X0043346Y0205564D01*
X0043534Y0205489D01*
X0043721Y0205409D01*
X0043905Y0205324D01*
X0044087Y0205235D01*
X0044268Y0205142D01*
X0044445Y0205044D01*
X0044621Y0204942D01*
X0044793Y0204835D01*
X0044963Y0204725D01*
X0045131Y0204610D01*
X0045295Y0204491D01*
X0045457Y0204368D01*
X0045615Y0204241D01*
X0045770Y0204111D01*
X0045922Y0203976D01*
X0046071Y0203838D01*
X0046216Y0203696D01*
X0046358Y0203551D01*
X0046496Y0203402D01*
X0046631Y0203250D01*
X0046761Y0203095D01*
X0046888Y0202937D01*
X0047011Y0202775D01*
X0047130Y0202611D01*
X0047245Y0202443D01*
X0047355Y0202273D01*
X0047462Y0202101D01*
X0047564Y0201925D01*
X0047662Y0201748D01*
X0047755Y0201567D01*
X0047844Y0201385D01*
X0047929Y0201201D01*
X0048009Y0201014D01*
X0048084Y0200826D01*
X0048155Y0200635D01*
X0048221Y0200444D01*
X0048282Y0200250D01*
X0048339Y0200055D01*
X0048390Y0199859D01*
X0048437Y0199662D01*
X0048479Y0199463D01*
X0048516Y0199264D01*
X0048549Y0199063D01*
X0048576Y0198862D01*
X0048598Y0198660D01*
X0048616Y0198458D01*
X0048628Y0198256D01*
X0048636Y0198053D01*
X0048638Y0197850D01*
X0048636Y0197647D01*
X0048628Y0197444D01*
X0048616Y0197242D01*
X0048598Y0197040D01*
X0048576Y0196838D01*
X0048549Y0196637D01*
X0048516Y0196436D01*
X0048479Y0196237D01*
X0048437Y0196038D01*
X0048390Y0195841D01*
X0048339Y0195645D01*
X0048282Y0195450D01*
X0048221Y0195256D01*
X0048155Y0195065D01*
X0048084Y0194874D01*
X0048009Y0194686D01*
X0047929Y0194499D01*
X0047844Y0194315D01*
X0047755Y0194133D01*
X0047662Y0193952D01*
X0047564Y0193775D01*
X0047462Y0193599D01*
X0047355Y0193427D01*
X0047245Y0193257D01*
X0047130Y0193089D01*
X0047011Y0192925D01*
X0046888Y0192763D01*
X0046761Y0192605D01*
X0046631Y0192450D01*
X0046496Y0192298D01*
X0046358Y0192149D01*
X0046216Y0192004D01*
X0046071Y0191862D01*
X0045922Y0191724D01*
X0045770Y0191589D01*
X0045615Y0191459D01*
X0045457Y0191332D01*
X0045295Y0191209D01*
X0045131Y0191090D01*
X0044963Y0190975D01*
X0044793Y0190865D01*
X0044621Y0190758D01*
X0044445Y0190656D01*
X0044268Y0190558D01*
X0044087Y0190465D01*
X0043905Y0190376D01*
X0043721Y0190291D01*
X0043534Y0190211D01*
X0043346Y0190136D01*
X0043155Y0190065D01*
X0042964Y0189999D01*
X0042770Y0189938D01*
X0042575Y0189881D01*
X0042379Y0189830D01*
X0042182Y0189783D01*
X0041983Y0189741D01*
X0041784Y0189704D01*
X0041583Y0189671D01*
X0041382Y0189644D01*
X0041180Y0189622D01*
X0040978Y0189604D01*
X0040776Y0189592D01*
X0040573Y0189584D01*
X0040370Y0189582D01*
X0040167Y0189584D01*
X0039964Y0189592D01*
X0039762Y0189604D01*
X0039560Y0189622D01*
X0039358Y0189644D01*
X0039157Y0189671D01*
X0038956Y0189704D01*
X0038757Y0189741D01*
X0038558Y0189783D01*
X0038361Y0189830D01*
X0038165Y0189881D01*
X0037970Y0189938D01*
X0037776Y0189999D01*
X0037585Y0190065D01*
X0037394Y0190136D01*
X0037206Y0190211D01*
X0037019Y0190291D01*
X0036835Y0190376D01*
X0036653Y0190465D01*
X0036472Y0190558D01*
X0036295Y0190656D01*
X0036119Y0190758D01*
X0035947Y0190865D01*
X0035777Y0190975D01*
X0035609Y0191090D01*
X0035445Y0191209D01*
X0035283Y0191332D01*
X0035125Y0191459D01*
X0034970Y0191589D01*
X0034818Y0191724D01*
X0034669Y0191862D01*
X0034524Y0192004D01*
X0034382Y0192149D01*
X0034244Y0192298D01*
X0034109Y0192450D01*
X0033979Y0192605D01*
X0033852Y0192763D01*
X0033729Y0192925D01*
X0033610Y0193089D01*
X0033495Y0193257D01*
X0033385Y0193427D01*
X0033278Y0193599D01*
X0033176Y0193775D01*
X0033078Y0193952D01*
X0032985Y0194133D01*
X0032896Y0194315D01*
X0032811Y0194499D01*
X0032731Y0194686D01*
X0032656Y0194874D01*
X0032585Y0195065D01*
X0032519Y0195256D01*
X0032458Y0195450D01*
X0032401Y0195645D01*
X0032350Y0195841D01*
X0032303Y0196038D01*
X0032261Y0196237D01*
X0032224Y0196436D01*
X0032191Y0196637D01*
X0032164Y0196838D01*
X0032142Y0197040D01*
X0032124Y0197242D01*
X0032112Y0197444D01*
X0032104Y0197647D01*
X0032102Y0197850D01*
X0022260Y0365173D02*
X0022262Y0365376D01*
X0022270Y0365579D01*
X0022282Y0365781D01*
X0022300Y0365983D01*
X0022322Y0366185D01*
X0022349Y0366386D01*
X0022382Y0366587D01*
X0022419Y0366786D01*
X0022461Y0366985D01*
X0022508Y0367182D01*
X0022559Y0367378D01*
X0022616Y0367573D01*
X0022677Y0367767D01*
X0022743Y0367958D01*
X0022814Y0368149D01*
X0022889Y0368337D01*
X0022969Y0368524D01*
X0023054Y0368708D01*
X0023143Y0368890D01*
X0023236Y0369071D01*
X0023334Y0369248D01*
X0023436Y0369424D01*
X0023543Y0369596D01*
X0023653Y0369766D01*
X0023768Y0369934D01*
X0023887Y0370098D01*
X0024010Y0370260D01*
X0024137Y0370418D01*
X0024267Y0370573D01*
X0024402Y0370725D01*
X0024540Y0370874D01*
X0024682Y0371019D01*
X0024827Y0371161D01*
X0024976Y0371299D01*
X0025128Y0371434D01*
X0025283Y0371564D01*
X0025441Y0371691D01*
X0025603Y0371814D01*
X0025767Y0371933D01*
X0025935Y0372048D01*
X0026105Y0372158D01*
X0026277Y0372265D01*
X0026453Y0372367D01*
X0026630Y0372465D01*
X0026811Y0372558D01*
X0026993Y0372647D01*
X0027177Y0372732D01*
X0027364Y0372812D01*
X0027552Y0372887D01*
X0027743Y0372958D01*
X0027934Y0373024D01*
X0028128Y0373085D01*
X0028323Y0373142D01*
X0028519Y0373193D01*
X0028716Y0373240D01*
X0028915Y0373282D01*
X0029114Y0373319D01*
X0029315Y0373352D01*
X0029516Y0373379D01*
X0029718Y0373401D01*
X0029920Y0373419D01*
X0030122Y0373431D01*
X0030325Y0373439D01*
X0030528Y0373441D01*
X0030731Y0373439D01*
X0030934Y0373431D01*
X0031136Y0373419D01*
X0031338Y0373401D01*
X0031540Y0373379D01*
X0031741Y0373352D01*
X0031942Y0373319D01*
X0032141Y0373282D01*
X0032340Y0373240D01*
X0032537Y0373193D01*
X0032733Y0373142D01*
X0032928Y0373085D01*
X0033122Y0373024D01*
X0033313Y0372958D01*
X0033504Y0372887D01*
X0033692Y0372812D01*
X0033879Y0372732D01*
X0034063Y0372647D01*
X0034245Y0372558D01*
X0034426Y0372465D01*
X0034603Y0372367D01*
X0034779Y0372265D01*
X0034951Y0372158D01*
X0035121Y0372048D01*
X0035289Y0371933D01*
X0035453Y0371814D01*
X0035615Y0371691D01*
X0035773Y0371564D01*
X0035928Y0371434D01*
X0036080Y0371299D01*
X0036229Y0371161D01*
X0036374Y0371019D01*
X0036516Y0370874D01*
X0036654Y0370725D01*
X0036789Y0370573D01*
X0036919Y0370418D01*
X0037046Y0370260D01*
X0037169Y0370098D01*
X0037288Y0369934D01*
X0037403Y0369766D01*
X0037513Y0369596D01*
X0037620Y0369424D01*
X0037722Y0369248D01*
X0037820Y0369071D01*
X0037913Y0368890D01*
X0038002Y0368708D01*
X0038087Y0368524D01*
X0038167Y0368337D01*
X0038242Y0368149D01*
X0038313Y0367958D01*
X0038379Y0367767D01*
X0038440Y0367573D01*
X0038497Y0367378D01*
X0038548Y0367182D01*
X0038595Y0366985D01*
X0038637Y0366786D01*
X0038674Y0366587D01*
X0038707Y0366386D01*
X0038734Y0366185D01*
X0038756Y0365983D01*
X0038774Y0365781D01*
X0038786Y0365579D01*
X0038794Y0365376D01*
X0038796Y0365173D01*
X0038794Y0364970D01*
X0038786Y0364767D01*
X0038774Y0364565D01*
X0038756Y0364363D01*
X0038734Y0364161D01*
X0038707Y0363960D01*
X0038674Y0363759D01*
X0038637Y0363560D01*
X0038595Y0363361D01*
X0038548Y0363164D01*
X0038497Y0362968D01*
X0038440Y0362773D01*
X0038379Y0362579D01*
X0038313Y0362388D01*
X0038242Y0362197D01*
X0038167Y0362009D01*
X0038087Y0361822D01*
X0038002Y0361638D01*
X0037913Y0361456D01*
X0037820Y0361275D01*
X0037722Y0361098D01*
X0037620Y0360922D01*
X0037513Y0360750D01*
X0037403Y0360580D01*
X0037288Y0360412D01*
X0037169Y0360248D01*
X0037046Y0360086D01*
X0036919Y0359928D01*
X0036789Y0359773D01*
X0036654Y0359621D01*
X0036516Y0359472D01*
X0036374Y0359327D01*
X0036229Y0359185D01*
X0036080Y0359047D01*
X0035928Y0358912D01*
X0035773Y0358782D01*
X0035615Y0358655D01*
X0035453Y0358532D01*
X0035289Y0358413D01*
X0035121Y0358298D01*
X0034951Y0358188D01*
X0034779Y0358081D01*
X0034603Y0357979D01*
X0034426Y0357881D01*
X0034245Y0357788D01*
X0034063Y0357699D01*
X0033879Y0357614D01*
X0033692Y0357534D01*
X0033504Y0357459D01*
X0033313Y0357388D01*
X0033122Y0357322D01*
X0032928Y0357261D01*
X0032733Y0357204D01*
X0032537Y0357153D01*
X0032340Y0357106D01*
X0032141Y0357064D01*
X0031942Y0357027D01*
X0031741Y0356994D01*
X0031540Y0356967D01*
X0031338Y0356945D01*
X0031136Y0356927D01*
X0030934Y0356915D01*
X0030731Y0356907D01*
X0030528Y0356905D01*
X0030325Y0356907D01*
X0030122Y0356915D01*
X0029920Y0356927D01*
X0029718Y0356945D01*
X0029516Y0356967D01*
X0029315Y0356994D01*
X0029114Y0357027D01*
X0028915Y0357064D01*
X0028716Y0357106D01*
X0028519Y0357153D01*
X0028323Y0357204D01*
X0028128Y0357261D01*
X0027934Y0357322D01*
X0027743Y0357388D01*
X0027552Y0357459D01*
X0027364Y0357534D01*
X0027177Y0357614D01*
X0026993Y0357699D01*
X0026811Y0357788D01*
X0026630Y0357881D01*
X0026453Y0357979D01*
X0026277Y0358081D01*
X0026105Y0358188D01*
X0025935Y0358298D01*
X0025767Y0358413D01*
X0025603Y0358532D01*
X0025441Y0358655D01*
X0025283Y0358782D01*
X0025128Y0358912D01*
X0024976Y0359047D01*
X0024827Y0359185D01*
X0024682Y0359327D01*
X0024540Y0359472D01*
X0024402Y0359621D01*
X0024267Y0359773D01*
X0024137Y0359928D01*
X0024010Y0360086D01*
X0023887Y0360248D01*
X0023768Y0360412D01*
X0023653Y0360580D01*
X0023543Y0360750D01*
X0023436Y0360922D01*
X0023334Y0361098D01*
X0023236Y0361275D01*
X0023143Y0361456D01*
X0023054Y0361638D01*
X0022969Y0361822D01*
X0022889Y0362009D01*
X0022814Y0362197D01*
X0022743Y0362388D01*
X0022677Y0362579D01*
X0022616Y0362773D01*
X0022559Y0362968D01*
X0022508Y0363164D01*
X0022461Y0363361D01*
X0022419Y0363560D01*
X0022382Y0363759D01*
X0022349Y0363960D01*
X0022322Y0364161D01*
X0022300Y0364363D01*
X0022282Y0364565D01*
X0022270Y0364767D01*
X0022262Y0364970D01*
X0022260Y0365173D01*
X0268323Y0079740D02*
X0268325Y0079943D01*
X0268333Y0080146D01*
X0268345Y0080348D01*
X0268363Y0080550D01*
X0268385Y0080752D01*
X0268412Y0080953D01*
X0268445Y0081154D01*
X0268482Y0081353D01*
X0268524Y0081552D01*
X0268571Y0081749D01*
X0268622Y0081945D01*
X0268679Y0082140D01*
X0268740Y0082334D01*
X0268806Y0082525D01*
X0268877Y0082716D01*
X0268952Y0082904D01*
X0269032Y0083091D01*
X0269117Y0083275D01*
X0269206Y0083457D01*
X0269299Y0083638D01*
X0269397Y0083815D01*
X0269499Y0083991D01*
X0269606Y0084163D01*
X0269716Y0084333D01*
X0269831Y0084501D01*
X0269950Y0084665D01*
X0270073Y0084827D01*
X0270200Y0084985D01*
X0270330Y0085140D01*
X0270465Y0085292D01*
X0270603Y0085441D01*
X0270745Y0085586D01*
X0270890Y0085728D01*
X0271039Y0085866D01*
X0271191Y0086001D01*
X0271346Y0086131D01*
X0271504Y0086258D01*
X0271666Y0086381D01*
X0271830Y0086500D01*
X0271998Y0086615D01*
X0272168Y0086725D01*
X0272340Y0086832D01*
X0272516Y0086934D01*
X0272693Y0087032D01*
X0272874Y0087125D01*
X0273056Y0087214D01*
X0273240Y0087299D01*
X0273427Y0087379D01*
X0273615Y0087454D01*
X0273806Y0087525D01*
X0273997Y0087591D01*
X0274191Y0087652D01*
X0274386Y0087709D01*
X0274582Y0087760D01*
X0274779Y0087807D01*
X0274978Y0087849D01*
X0275177Y0087886D01*
X0275378Y0087919D01*
X0275579Y0087946D01*
X0275781Y0087968D01*
X0275983Y0087986D01*
X0276185Y0087998D01*
X0276388Y0088006D01*
X0276591Y0088008D01*
X0276794Y0088006D01*
X0276997Y0087998D01*
X0277199Y0087986D01*
X0277401Y0087968D01*
X0277603Y0087946D01*
X0277804Y0087919D01*
X0278005Y0087886D01*
X0278204Y0087849D01*
X0278403Y0087807D01*
X0278600Y0087760D01*
X0278796Y0087709D01*
X0278991Y0087652D01*
X0279185Y0087591D01*
X0279376Y0087525D01*
X0279567Y0087454D01*
X0279755Y0087379D01*
X0279942Y0087299D01*
X0280126Y0087214D01*
X0280308Y0087125D01*
X0280489Y0087032D01*
X0280666Y0086934D01*
X0280842Y0086832D01*
X0281014Y0086725D01*
X0281184Y0086615D01*
X0281352Y0086500D01*
X0281516Y0086381D01*
X0281678Y0086258D01*
X0281836Y0086131D01*
X0281991Y0086001D01*
X0282143Y0085866D01*
X0282292Y0085728D01*
X0282437Y0085586D01*
X0282579Y0085441D01*
X0282717Y0085292D01*
X0282852Y0085140D01*
X0282982Y0084985D01*
X0283109Y0084827D01*
X0283232Y0084665D01*
X0283351Y0084501D01*
X0283466Y0084333D01*
X0283576Y0084163D01*
X0283683Y0083991D01*
X0283785Y0083815D01*
X0283883Y0083638D01*
X0283976Y0083457D01*
X0284065Y0083275D01*
X0284150Y0083091D01*
X0284230Y0082904D01*
X0284305Y0082716D01*
X0284376Y0082525D01*
X0284442Y0082334D01*
X0284503Y0082140D01*
X0284560Y0081945D01*
X0284611Y0081749D01*
X0284658Y0081552D01*
X0284700Y0081353D01*
X0284737Y0081154D01*
X0284770Y0080953D01*
X0284797Y0080752D01*
X0284819Y0080550D01*
X0284837Y0080348D01*
X0284849Y0080146D01*
X0284857Y0079943D01*
X0284859Y0079740D01*
X0284857Y0079537D01*
X0284849Y0079334D01*
X0284837Y0079132D01*
X0284819Y0078930D01*
X0284797Y0078728D01*
X0284770Y0078527D01*
X0284737Y0078326D01*
X0284700Y0078127D01*
X0284658Y0077928D01*
X0284611Y0077731D01*
X0284560Y0077535D01*
X0284503Y0077340D01*
X0284442Y0077146D01*
X0284376Y0076955D01*
X0284305Y0076764D01*
X0284230Y0076576D01*
X0284150Y0076389D01*
X0284065Y0076205D01*
X0283976Y0076023D01*
X0283883Y0075842D01*
X0283785Y0075665D01*
X0283683Y0075489D01*
X0283576Y0075317D01*
X0283466Y0075147D01*
X0283351Y0074979D01*
X0283232Y0074815D01*
X0283109Y0074653D01*
X0282982Y0074495D01*
X0282852Y0074340D01*
X0282717Y0074188D01*
X0282579Y0074039D01*
X0282437Y0073894D01*
X0282292Y0073752D01*
X0282143Y0073614D01*
X0281991Y0073479D01*
X0281836Y0073349D01*
X0281678Y0073222D01*
X0281516Y0073099D01*
X0281352Y0072980D01*
X0281184Y0072865D01*
X0281014Y0072755D01*
X0280842Y0072648D01*
X0280666Y0072546D01*
X0280489Y0072448D01*
X0280308Y0072355D01*
X0280126Y0072266D01*
X0279942Y0072181D01*
X0279755Y0072101D01*
X0279567Y0072026D01*
X0279376Y0071955D01*
X0279185Y0071889D01*
X0278991Y0071828D01*
X0278796Y0071771D01*
X0278600Y0071720D01*
X0278403Y0071673D01*
X0278204Y0071631D01*
X0278005Y0071594D01*
X0277804Y0071561D01*
X0277603Y0071534D01*
X0277401Y0071512D01*
X0277199Y0071494D01*
X0276997Y0071482D01*
X0276794Y0071474D01*
X0276591Y0071472D01*
X0276388Y0071474D01*
X0276185Y0071482D01*
X0275983Y0071494D01*
X0275781Y0071512D01*
X0275579Y0071534D01*
X0275378Y0071561D01*
X0275177Y0071594D01*
X0274978Y0071631D01*
X0274779Y0071673D01*
X0274582Y0071720D01*
X0274386Y0071771D01*
X0274191Y0071828D01*
X0273997Y0071889D01*
X0273806Y0071955D01*
X0273615Y0072026D01*
X0273427Y0072101D01*
X0273240Y0072181D01*
X0273056Y0072266D01*
X0272874Y0072355D01*
X0272693Y0072448D01*
X0272516Y0072546D01*
X0272340Y0072648D01*
X0272168Y0072755D01*
X0271998Y0072865D01*
X0271830Y0072980D01*
X0271666Y0073099D01*
X0271504Y0073222D01*
X0271346Y0073349D01*
X0271191Y0073479D01*
X0271039Y0073614D01*
X0270890Y0073752D01*
X0270745Y0073894D01*
X0270603Y0074039D01*
X0270465Y0074188D01*
X0270330Y0074340D01*
X0270200Y0074495D01*
X0270073Y0074653D01*
X0269950Y0074815D01*
X0269831Y0074979D01*
X0269716Y0075147D01*
X0269606Y0075317D01*
X0269499Y0075489D01*
X0269397Y0075665D01*
X0269299Y0075842D01*
X0269206Y0076023D01*
X0269117Y0076205D01*
X0269032Y0076389D01*
X0268952Y0076576D01*
X0268877Y0076764D01*
X0268806Y0076955D01*
X0268740Y0077146D01*
X0268679Y0077340D01*
X0268622Y0077535D01*
X0268571Y0077731D01*
X0268524Y0077928D01*
X0268482Y0078127D01*
X0268445Y0078326D01*
X0268412Y0078527D01*
X0268385Y0078728D01*
X0268363Y0078930D01*
X0268345Y0079132D01*
X0268333Y0079334D01*
X0268325Y0079537D01*
X0268323Y0079740D01*
X0366748Y0197850D02*
X0366750Y0198053D01*
X0366758Y0198256D01*
X0366770Y0198458D01*
X0366788Y0198660D01*
X0366810Y0198862D01*
X0366837Y0199063D01*
X0366870Y0199264D01*
X0366907Y0199463D01*
X0366949Y0199662D01*
X0366996Y0199859D01*
X0367047Y0200055D01*
X0367104Y0200250D01*
X0367165Y0200444D01*
X0367231Y0200635D01*
X0367302Y0200826D01*
X0367377Y0201014D01*
X0367457Y0201201D01*
X0367542Y0201385D01*
X0367631Y0201567D01*
X0367724Y0201748D01*
X0367822Y0201925D01*
X0367924Y0202101D01*
X0368031Y0202273D01*
X0368141Y0202443D01*
X0368256Y0202611D01*
X0368375Y0202775D01*
X0368498Y0202937D01*
X0368625Y0203095D01*
X0368755Y0203250D01*
X0368890Y0203402D01*
X0369028Y0203551D01*
X0369170Y0203696D01*
X0369315Y0203838D01*
X0369464Y0203976D01*
X0369616Y0204111D01*
X0369771Y0204241D01*
X0369929Y0204368D01*
X0370091Y0204491D01*
X0370255Y0204610D01*
X0370423Y0204725D01*
X0370593Y0204835D01*
X0370765Y0204942D01*
X0370941Y0205044D01*
X0371118Y0205142D01*
X0371299Y0205235D01*
X0371481Y0205324D01*
X0371665Y0205409D01*
X0371852Y0205489D01*
X0372040Y0205564D01*
X0372231Y0205635D01*
X0372422Y0205701D01*
X0372616Y0205762D01*
X0372811Y0205819D01*
X0373007Y0205870D01*
X0373204Y0205917D01*
X0373403Y0205959D01*
X0373602Y0205996D01*
X0373803Y0206029D01*
X0374004Y0206056D01*
X0374206Y0206078D01*
X0374408Y0206096D01*
X0374610Y0206108D01*
X0374813Y0206116D01*
X0375016Y0206118D01*
X0375219Y0206116D01*
X0375422Y0206108D01*
X0375624Y0206096D01*
X0375826Y0206078D01*
X0376028Y0206056D01*
X0376229Y0206029D01*
X0376430Y0205996D01*
X0376629Y0205959D01*
X0376828Y0205917D01*
X0377025Y0205870D01*
X0377221Y0205819D01*
X0377416Y0205762D01*
X0377610Y0205701D01*
X0377801Y0205635D01*
X0377992Y0205564D01*
X0378180Y0205489D01*
X0378367Y0205409D01*
X0378551Y0205324D01*
X0378733Y0205235D01*
X0378914Y0205142D01*
X0379091Y0205044D01*
X0379267Y0204942D01*
X0379439Y0204835D01*
X0379609Y0204725D01*
X0379777Y0204610D01*
X0379941Y0204491D01*
X0380103Y0204368D01*
X0380261Y0204241D01*
X0380416Y0204111D01*
X0380568Y0203976D01*
X0380717Y0203838D01*
X0380862Y0203696D01*
X0381004Y0203551D01*
X0381142Y0203402D01*
X0381277Y0203250D01*
X0381407Y0203095D01*
X0381534Y0202937D01*
X0381657Y0202775D01*
X0381776Y0202611D01*
X0381891Y0202443D01*
X0382001Y0202273D01*
X0382108Y0202101D01*
X0382210Y0201925D01*
X0382308Y0201748D01*
X0382401Y0201567D01*
X0382490Y0201385D01*
X0382575Y0201201D01*
X0382655Y0201014D01*
X0382730Y0200826D01*
X0382801Y0200635D01*
X0382867Y0200444D01*
X0382928Y0200250D01*
X0382985Y0200055D01*
X0383036Y0199859D01*
X0383083Y0199662D01*
X0383125Y0199463D01*
X0383162Y0199264D01*
X0383195Y0199063D01*
X0383222Y0198862D01*
X0383244Y0198660D01*
X0383262Y0198458D01*
X0383274Y0198256D01*
X0383282Y0198053D01*
X0383284Y0197850D01*
X0383282Y0197647D01*
X0383274Y0197444D01*
X0383262Y0197242D01*
X0383244Y0197040D01*
X0383222Y0196838D01*
X0383195Y0196637D01*
X0383162Y0196436D01*
X0383125Y0196237D01*
X0383083Y0196038D01*
X0383036Y0195841D01*
X0382985Y0195645D01*
X0382928Y0195450D01*
X0382867Y0195256D01*
X0382801Y0195065D01*
X0382730Y0194874D01*
X0382655Y0194686D01*
X0382575Y0194499D01*
X0382490Y0194315D01*
X0382401Y0194133D01*
X0382308Y0193952D01*
X0382210Y0193775D01*
X0382108Y0193599D01*
X0382001Y0193427D01*
X0381891Y0193257D01*
X0381776Y0193089D01*
X0381657Y0192925D01*
X0381534Y0192763D01*
X0381407Y0192605D01*
X0381277Y0192450D01*
X0381142Y0192298D01*
X0381004Y0192149D01*
X0380862Y0192004D01*
X0380717Y0191862D01*
X0380568Y0191724D01*
X0380416Y0191589D01*
X0380261Y0191459D01*
X0380103Y0191332D01*
X0379941Y0191209D01*
X0379777Y0191090D01*
X0379609Y0190975D01*
X0379439Y0190865D01*
X0379267Y0190758D01*
X0379091Y0190656D01*
X0378914Y0190558D01*
X0378733Y0190465D01*
X0378551Y0190376D01*
X0378367Y0190291D01*
X0378180Y0190211D01*
X0377992Y0190136D01*
X0377801Y0190065D01*
X0377610Y0189999D01*
X0377416Y0189938D01*
X0377221Y0189881D01*
X0377025Y0189830D01*
X0376828Y0189783D01*
X0376629Y0189741D01*
X0376430Y0189704D01*
X0376229Y0189671D01*
X0376028Y0189644D01*
X0375826Y0189622D01*
X0375624Y0189604D01*
X0375422Y0189592D01*
X0375219Y0189584D01*
X0375016Y0189582D01*
X0374813Y0189584D01*
X0374610Y0189592D01*
X0374408Y0189604D01*
X0374206Y0189622D01*
X0374004Y0189644D01*
X0373803Y0189671D01*
X0373602Y0189704D01*
X0373403Y0189741D01*
X0373204Y0189783D01*
X0373007Y0189830D01*
X0372811Y0189881D01*
X0372616Y0189938D01*
X0372422Y0189999D01*
X0372231Y0190065D01*
X0372040Y0190136D01*
X0371852Y0190211D01*
X0371665Y0190291D01*
X0371481Y0190376D01*
X0371299Y0190465D01*
X0371118Y0190558D01*
X0370941Y0190656D01*
X0370765Y0190758D01*
X0370593Y0190865D01*
X0370423Y0190975D01*
X0370255Y0191090D01*
X0370091Y0191209D01*
X0369929Y0191332D01*
X0369771Y0191459D01*
X0369616Y0191589D01*
X0369464Y0191724D01*
X0369315Y0191862D01*
X0369170Y0192004D01*
X0369028Y0192149D01*
X0368890Y0192298D01*
X0368755Y0192450D01*
X0368625Y0192605D01*
X0368498Y0192763D01*
X0368375Y0192925D01*
X0368256Y0193089D01*
X0368141Y0193257D01*
X0368031Y0193427D01*
X0367924Y0193599D01*
X0367822Y0193775D01*
X0367724Y0193952D01*
X0367631Y0194133D01*
X0367542Y0194315D01*
X0367457Y0194499D01*
X0367377Y0194686D01*
X0367302Y0194874D01*
X0367231Y0195065D01*
X0367165Y0195256D01*
X0367104Y0195450D01*
X0367047Y0195645D01*
X0366996Y0195841D01*
X0366949Y0196038D01*
X0366907Y0196237D01*
X0366870Y0196436D01*
X0366837Y0196637D01*
X0366810Y0196838D01*
X0366788Y0197040D01*
X0366770Y0197242D01*
X0366758Y0197444D01*
X0366750Y0197647D01*
X0366748Y0197850D01*
X0356905Y0365173D02*
X0356907Y0365376D01*
X0356915Y0365579D01*
X0356927Y0365781D01*
X0356945Y0365983D01*
X0356967Y0366185D01*
X0356994Y0366386D01*
X0357027Y0366587D01*
X0357064Y0366786D01*
X0357106Y0366985D01*
X0357153Y0367182D01*
X0357204Y0367378D01*
X0357261Y0367573D01*
X0357322Y0367767D01*
X0357388Y0367958D01*
X0357459Y0368149D01*
X0357534Y0368337D01*
X0357614Y0368524D01*
X0357699Y0368708D01*
X0357788Y0368890D01*
X0357881Y0369071D01*
X0357979Y0369248D01*
X0358081Y0369424D01*
X0358188Y0369596D01*
X0358298Y0369766D01*
X0358413Y0369934D01*
X0358532Y0370098D01*
X0358655Y0370260D01*
X0358782Y0370418D01*
X0358912Y0370573D01*
X0359047Y0370725D01*
X0359185Y0370874D01*
X0359327Y0371019D01*
X0359472Y0371161D01*
X0359621Y0371299D01*
X0359773Y0371434D01*
X0359928Y0371564D01*
X0360086Y0371691D01*
X0360248Y0371814D01*
X0360412Y0371933D01*
X0360580Y0372048D01*
X0360750Y0372158D01*
X0360922Y0372265D01*
X0361098Y0372367D01*
X0361275Y0372465D01*
X0361456Y0372558D01*
X0361638Y0372647D01*
X0361822Y0372732D01*
X0362009Y0372812D01*
X0362197Y0372887D01*
X0362388Y0372958D01*
X0362579Y0373024D01*
X0362773Y0373085D01*
X0362968Y0373142D01*
X0363164Y0373193D01*
X0363361Y0373240D01*
X0363560Y0373282D01*
X0363759Y0373319D01*
X0363960Y0373352D01*
X0364161Y0373379D01*
X0364363Y0373401D01*
X0364565Y0373419D01*
X0364767Y0373431D01*
X0364970Y0373439D01*
X0365173Y0373441D01*
X0365376Y0373439D01*
X0365579Y0373431D01*
X0365781Y0373419D01*
X0365983Y0373401D01*
X0366185Y0373379D01*
X0366386Y0373352D01*
X0366587Y0373319D01*
X0366786Y0373282D01*
X0366985Y0373240D01*
X0367182Y0373193D01*
X0367378Y0373142D01*
X0367573Y0373085D01*
X0367767Y0373024D01*
X0367958Y0372958D01*
X0368149Y0372887D01*
X0368337Y0372812D01*
X0368524Y0372732D01*
X0368708Y0372647D01*
X0368890Y0372558D01*
X0369071Y0372465D01*
X0369248Y0372367D01*
X0369424Y0372265D01*
X0369596Y0372158D01*
X0369766Y0372048D01*
X0369934Y0371933D01*
X0370098Y0371814D01*
X0370260Y0371691D01*
X0370418Y0371564D01*
X0370573Y0371434D01*
X0370725Y0371299D01*
X0370874Y0371161D01*
X0371019Y0371019D01*
X0371161Y0370874D01*
X0371299Y0370725D01*
X0371434Y0370573D01*
X0371564Y0370418D01*
X0371691Y0370260D01*
X0371814Y0370098D01*
X0371933Y0369934D01*
X0372048Y0369766D01*
X0372158Y0369596D01*
X0372265Y0369424D01*
X0372367Y0369248D01*
X0372465Y0369071D01*
X0372558Y0368890D01*
X0372647Y0368708D01*
X0372732Y0368524D01*
X0372812Y0368337D01*
X0372887Y0368149D01*
X0372958Y0367958D01*
X0373024Y0367767D01*
X0373085Y0367573D01*
X0373142Y0367378D01*
X0373193Y0367182D01*
X0373240Y0366985D01*
X0373282Y0366786D01*
X0373319Y0366587D01*
X0373352Y0366386D01*
X0373379Y0366185D01*
X0373401Y0365983D01*
X0373419Y0365781D01*
X0373431Y0365579D01*
X0373439Y0365376D01*
X0373441Y0365173D01*
X0373439Y0364970D01*
X0373431Y0364767D01*
X0373419Y0364565D01*
X0373401Y0364363D01*
X0373379Y0364161D01*
X0373352Y0363960D01*
X0373319Y0363759D01*
X0373282Y0363560D01*
X0373240Y0363361D01*
X0373193Y0363164D01*
X0373142Y0362968D01*
X0373085Y0362773D01*
X0373024Y0362579D01*
X0372958Y0362388D01*
X0372887Y0362197D01*
X0372812Y0362009D01*
X0372732Y0361822D01*
X0372647Y0361638D01*
X0372558Y0361456D01*
X0372465Y0361275D01*
X0372367Y0361098D01*
X0372265Y0360922D01*
X0372158Y0360750D01*
X0372048Y0360580D01*
X0371933Y0360412D01*
X0371814Y0360248D01*
X0371691Y0360086D01*
X0371564Y0359928D01*
X0371434Y0359773D01*
X0371299Y0359621D01*
X0371161Y0359472D01*
X0371019Y0359327D01*
X0370874Y0359185D01*
X0370725Y0359047D01*
X0370573Y0358912D01*
X0370418Y0358782D01*
X0370260Y0358655D01*
X0370098Y0358532D01*
X0369934Y0358413D01*
X0369766Y0358298D01*
X0369596Y0358188D01*
X0369424Y0358081D01*
X0369248Y0357979D01*
X0369071Y0357881D01*
X0368890Y0357788D01*
X0368708Y0357699D01*
X0368524Y0357614D01*
X0368337Y0357534D01*
X0368149Y0357459D01*
X0367958Y0357388D01*
X0367767Y0357322D01*
X0367573Y0357261D01*
X0367378Y0357204D01*
X0367182Y0357153D01*
X0366985Y0357106D01*
X0366786Y0357064D01*
X0366587Y0357027D01*
X0366386Y0356994D01*
X0366185Y0356967D01*
X0365983Y0356945D01*
X0365781Y0356927D01*
X0365579Y0356915D01*
X0365376Y0356907D01*
X0365173Y0356905D01*
X0364970Y0356907D01*
X0364767Y0356915D01*
X0364565Y0356927D01*
X0364363Y0356945D01*
X0364161Y0356967D01*
X0363960Y0356994D01*
X0363759Y0357027D01*
X0363560Y0357064D01*
X0363361Y0357106D01*
X0363164Y0357153D01*
X0362968Y0357204D01*
X0362773Y0357261D01*
X0362579Y0357322D01*
X0362388Y0357388D01*
X0362197Y0357459D01*
X0362009Y0357534D01*
X0361822Y0357614D01*
X0361638Y0357699D01*
X0361456Y0357788D01*
X0361275Y0357881D01*
X0361098Y0357979D01*
X0360922Y0358081D01*
X0360750Y0358188D01*
X0360580Y0358298D01*
X0360412Y0358413D01*
X0360248Y0358532D01*
X0360086Y0358655D01*
X0359928Y0358782D01*
X0359773Y0358912D01*
X0359621Y0359047D01*
X0359472Y0359185D01*
X0359327Y0359327D01*
X0359185Y0359472D01*
X0359047Y0359621D01*
X0358912Y0359773D01*
X0358782Y0359928D01*
X0358655Y0360086D01*
X0358532Y0360248D01*
X0358413Y0360412D01*
X0358298Y0360580D01*
X0358188Y0360750D01*
X0358081Y0360922D01*
X0357979Y0361098D01*
X0357881Y0361275D01*
X0357788Y0361456D01*
X0357699Y0361638D01*
X0357614Y0361822D01*
X0357534Y0362009D01*
X0357459Y0362197D01*
X0357388Y0362388D01*
X0357322Y0362579D01*
X0357261Y0362773D01*
X0357204Y0362968D01*
X0357153Y0363164D01*
X0357106Y0363361D01*
X0357064Y0363560D01*
X0357027Y0363759D01*
X0356994Y0363960D01*
X0356967Y0364161D01*
X0356945Y0364363D01*
X0356927Y0364565D01*
X0356915Y0364767D01*
X0356907Y0364970D01*
X0356905Y0365173D01*
D11*
X0306984Y0265882D03*
X0296984Y0265882D03*
X0286984Y0265882D03*
X0276984Y0265882D03*
X0266984Y0265882D03*
X0256984Y0265882D03*
X0246984Y0265882D03*
X0236984Y0265882D03*
X0226984Y0265882D03*
X0216984Y0265882D03*
X0206984Y0265882D03*
X0196984Y0265882D03*
X0186984Y0265882D03*
X0176984Y0265882D03*
X0166984Y0265882D03*
X0156984Y0265882D03*
X0146984Y0265882D03*
X0136984Y0265882D03*
X0126984Y0265882D03*
X0116984Y0265882D03*
X0106984Y0265882D03*
X0096984Y0265882D03*
X0086984Y0265882D03*
X0076984Y0265882D03*
X0076984Y0205882D03*
X0086984Y0205882D03*
X0096984Y0205882D03*
X0106984Y0205882D03*
X0116984Y0205882D03*
X0126984Y0205882D03*
X0136984Y0205882D03*
X0146984Y0205882D03*
X0156984Y0205882D03*
X0166984Y0205882D03*
X0176984Y0205882D03*
X0186984Y0205882D03*
X0196984Y0205882D03*
X0206984Y0205882D03*
X0216984Y0205882D03*
X0226984Y0205882D03*
X0236984Y0205882D03*
X0246984Y0205882D03*
X0256984Y0205882D03*
X0256984Y0215882D03*
X0266984Y0215882D03*
X0276984Y0215882D03*
X0276984Y0205882D03*
X0266984Y0205882D03*
X0286984Y0205882D03*
X0296984Y0205882D03*
X0296984Y0215882D03*
X0306984Y0205882D03*
D12*
X0284189Y0336468D03*
X0284189Y0344268D03*
X0274346Y0344268D03*
X0274346Y0336468D03*
D13*
X0255568Y0354968D03*
X0302968Y0354968D03*
D14*
X0217614Y0363638D03*
X0137614Y0363638D03*
D15*
X0137614Y0353638D03*
X0137614Y0343638D03*
X0137614Y0333638D03*
X0137614Y0323638D03*
X0137614Y0313638D03*
X0217614Y0313638D03*
X0217614Y0323638D03*
X0217614Y0333638D03*
X0217614Y0343638D03*
X0217614Y0353638D03*
D16*
X0173835Y0287102D03*
X0162811Y0287102D03*
D17*
X0087339Y0330921D03*
X0087339Y0338402D03*
X0077102Y0338402D03*
X0077102Y0334661D03*
X0077102Y0330921D03*
D18*
X0097732Y0317614D03*
X0097732Y0306591D03*
X0050803Y0314465D03*
X0050803Y0325488D03*
X0083677Y0144307D03*
X0083677Y0133283D03*
X0233283Y0133283D03*
X0233283Y0144307D03*
X0378953Y0144307D03*
X0378953Y0133283D03*
D19*
X0098953Y0358992D03*
X0098953Y0373953D03*
D20*
X0042074Y0241303D02*
X0035674Y0241303D01*
X0035674Y0230303D02*
X0042074Y0230303D01*
D21*
X0041807Y0158595D03*
X0036807Y0158595D03*
X0031807Y0158595D03*
X0026807Y0158595D03*
X0021807Y0158595D03*
X0046807Y0158595D03*
X0051807Y0158595D03*
X0056807Y0158595D03*
X0061807Y0158595D03*
X0066807Y0158595D03*
X0066807Y0118995D03*
X0061807Y0118995D03*
X0056807Y0118995D03*
X0051807Y0118995D03*
X0046807Y0118995D03*
X0041807Y0118995D03*
X0036807Y0118995D03*
X0031807Y0118995D03*
X0026807Y0118995D03*
X0021807Y0118995D03*
X0171413Y0118995D03*
X0176413Y0118995D03*
X0181413Y0118995D03*
X0186413Y0118995D03*
X0191413Y0118995D03*
X0196413Y0118995D03*
X0201413Y0118995D03*
X0206413Y0118995D03*
X0211413Y0118995D03*
X0216413Y0118995D03*
X0216413Y0158595D03*
X0211413Y0158595D03*
X0206413Y0158595D03*
X0201413Y0158595D03*
X0196413Y0158595D03*
X0191413Y0158595D03*
X0186413Y0158595D03*
X0181413Y0158595D03*
X0176413Y0158595D03*
X0171413Y0158595D03*
X0321020Y0158595D03*
X0326020Y0158595D03*
X0331020Y0158595D03*
X0336020Y0158595D03*
X0341020Y0158595D03*
X0346020Y0158595D03*
X0351020Y0158595D03*
X0356020Y0158595D03*
X0361020Y0158595D03*
X0366020Y0158595D03*
X0366020Y0118995D03*
X0361020Y0118995D03*
X0356020Y0118995D03*
X0351020Y0118995D03*
X0346020Y0118995D03*
X0341020Y0118995D03*
X0336020Y0118995D03*
X0331020Y0118995D03*
X0326020Y0118995D03*
X0321020Y0118995D03*
D22*
X0329957Y0093913D03*
X0334957Y0093913D03*
X0339957Y0093913D03*
X0344957Y0093913D03*
X0349957Y0093913D03*
X0354957Y0093913D03*
X0359957Y0093913D03*
X0364957Y0093913D03*
X0364957Y0073441D03*
X0359957Y0073441D03*
X0354957Y0073441D03*
X0349957Y0073441D03*
X0344957Y0073441D03*
X0339957Y0073441D03*
X0334957Y0073441D03*
X0329957Y0073441D03*
X0215350Y0073441D03*
X0210350Y0073441D03*
X0205350Y0073441D03*
X0200350Y0073441D03*
X0195350Y0073441D03*
X0190350Y0073441D03*
X0185350Y0073441D03*
X0180350Y0073441D03*
X0180350Y0093913D03*
X0185350Y0093913D03*
X0190350Y0093913D03*
X0195350Y0093913D03*
X0200350Y0093913D03*
X0205350Y0093913D03*
X0210350Y0093913D03*
X0215350Y0093913D03*
X0065744Y0093913D03*
X0060744Y0093913D03*
X0055744Y0093913D03*
X0050744Y0093913D03*
X0045744Y0093913D03*
X0040744Y0093913D03*
X0035744Y0093913D03*
X0030744Y0093913D03*
X0030744Y0073441D03*
X0035744Y0073441D03*
X0040744Y0073441D03*
X0045744Y0073441D03*
X0050744Y0073441D03*
X0055744Y0073441D03*
X0060744Y0073441D03*
X0065744Y0073441D03*
D23*
X0068244Y0034059D03*
X0058244Y0034059D03*
X0048244Y0034059D03*
X0038244Y0034059D03*
X0028244Y0034059D03*
X0028244Y0023059D03*
X0038244Y0023059D03*
X0048244Y0023059D03*
X0058244Y0023059D03*
X0068244Y0023059D03*
X0177850Y0023059D03*
X0187850Y0023059D03*
X0197850Y0023059D03*
X0207850Y0023059D03*
X0217850Y0023059D03*
X0217850Y0034059D03*
X0207850Y0034059D03*
X0197850Y0034059D03*
X0187850Y0034059D03*
X0177850Y0034059D03*
X0327457Y0034059D03*
X0337457Y0034059D03*
X0347457Y0034059D03*
X0357457Y0034059D03*
X0367457Y0034059D03*
X0367457Y0023059D03*
X0357457Y0023059D03*
X0347457Y0023059D03*
X0337457Y0023059D03*
X0327457Y0023059D03*
D24*
X0327200Y0023400D01*
X0321600Y0029000D01*
X0321600Y0073800D01*
X0327200Y0079400D01*
X0342600Y0079400D01*
X0344000Y0078000D01*
X0344000Y0073800D01*
X0344957Y0073441D01*
X0349600Y0072400D02*
X0349957Y0073441D01*
X0349600Y0072400D02*
X0349600Y0036000D01*
X0348200Y0034600D01*
X0347457Y0034059D01*
X0337457Y0034059D02*
X0337000Y0033200D01*
X0337000Y0023400D01*
X0337457Y0023059D01*
X0337000Y0022000D01*
X0334200Y0022000D01*
X0328600Y0016400D01*
X0325800Y0016400D01*
X0318800Y0023400D01*
X0318800Y0117200D01*
X0320200Y0118600D01*
X0321020Y0118995D01*
X0321600Y0120000D01*
X0321600Y0125600D01*
X0359400Y0125600D01*
X0362200Y0122800D01*
X0361020Y0118995D01*
X0362200Y0120000D01*
X0362200Y0122800D01*
X0372000Y0132600D01*
X0377600Y0132600D01*
X0378953Y0133283D01*
X0384600Y0129800D02*
X0384600Y0138200D01*
X0379000Y0143800D01*
X0378953Y0144307D01*
X0377600Y0145200D01*
X0365000Y0157800D01*
X0366020Y0158595D01*
X0365000Y0159200D01*
X0365000Y0234800D01*
X0324400Y0275400D01*
X0309000Y0260000D01*
X0306200Y0260000D01*
X0302000Y0264200D01*
X0302000Y0268400D01*
X0299200Y0271200D01*
X0244600Y0271200D01*
X0241800Y0268400D01*
X0241800Y0211000D01*
X0225000Y0211000D01*
X0222200Y0208200D01*
X0222200Y0204000D01*
X0218000Y0199800D01*
X0176000Y0199800D01*
X0171800Y0204000D01*
X0171800Y0225000D01*
X0152200Y0244600D01*
X0152200Y0268400D01*
X0118600Y0302000D01*
X0103200Y0302000D01*
X0103200Y0321600D01*
X0090600Y0334200D01*
X0082200Y0334200D01*
X0082200Y0332800D01*
X0080800Y0331400D01*
X0078000Y0331400D01*
X0077102Y0330921D01*
X0076600Y0334200D02*
X0077102Y0334661D01*
X0076600Y0334200D02*
X0072400Y0334200D01*
X0072400Y0339800D01*
X0090600Y0358000D01*
X0092000Y0358000D01*
X0092000Y0377600D01*
X0093400Y0379000D01*
X0122800Y0379000D01*
X0136800Y0365000D01*
X0137614Y0363638D01*
X0138200Y0363600D01*
X0138200Y0353800D01*
X0137614Y0353638D01*
X0138200Y0353800D02*
X0212400Y0353800D01*
X0212400Y0341200D01*
X0216600Y0337000D01*
X0216600Y0334200D01*
X0217614Y0333638D01*
X0218000Y0332800D01*
X0268400Y0332800D01*
X0268400Y0327200D01*
X0306200Y0289400D01*
X0306200Y0267000D01*
X0306984Y0265882D01*
X0296984Y0265882D02*
X0296400Y0265600D01*
X0360800Y0201200D01*
X0360800Y0159200D01*
X0361020Y0158595D01*
X0356020Y0158595D02*
X0355200Y0159200D01*
X0355200Y0198400D01*
X0288000Y0265600D01*
X0286984Y0265882D01*
X0267000Y0265600D02*
X0266984Y0265882D01*
X0267000Y0265600D02*
X0351000Y0181600D01*
X0351000Y0159200D01*
X0351020Y0158595D01*
X0346020Y0158595D02*
X0345400Y0159200D01*
X0345400Y0177400D01*
X0257200Y0265600D01*
X0256984Y0265882D01*
X0208200Y0267000D02*
X0206984Y0265882D01*
X0208200Y0267000D02*
X0208200Y0314600D01*
X0216600Y0323000D01*
X0217614Y0323638D01*
X0217614Y0343638D02*
X0218000Y0344000D01*
X0218000Y0352400D01*
X0217614Y0353638D01*
X0212400Y0353800D02*
X0212400Y0359400D01*
X0216600Y0363600D01*
X0217614Y0363638D01*
X0268400Y0338400D02*
X0268400Y0332800D01*
X0268400Y0338400D02*
X0274000Y0344000D01*
X0274346Y0344268D01*
X0274346Y0336468D02*
X0275400Y0335600D01*
X0275400Y0324400D01*
X0324400Y0275400D01*
X0296984Y0215882D02*
X0296400Y0215200D01*
X0292200Y0211000D01*
X0241800Y0211000D01*
X0237600Y0205400D02*
X0236984Y0205882D01*
X0237600Y0205400D02*
X0243200Y0199800D01*
X0303400Y0199800D01*
X0339800Y0163400D01*
X0339800Y0159200D01*
X0341020Y0158595D01*
X0336020Y0158595D02*
X0335600Y0159200D01*
X0335600Y0162000D01*
X0300600Y0197000D01*
X0236200Y0197000D01*
X0227800Y0205400D01*
X0226984Y0205882D01*
X0222200Y0204000D02*
X0232000Y0194200D01*
X0232000Y0145200D01*
X0233283Y0144307D01*
X0233400Y0134000D02*
X0233283Y0133283D01*
X0232000Y0132600D01*
X0222200Y0132600D01*
X0222200Y0166200D01*
X0197000Y0191400D01*
X0180200Y0191400D01*
X0167600Y0204000D01*
X0167600Y0205400D01*
X0166984Y0205882D01*
X0162000Y0204000D02*
X0162000Y0230600D01*
X0127000Y0265600D01*
X0126984Y0265882D01*
X0132600Y0271200D02*
X0136800Y0267000D01*
X0136984Y0265882D01*
X0132600Y0271200D02*
X0104600Y0271200D01*
X0101800Y0268400D01*
X0101800Y0262800D01*
X0065400Y0226400D01*
X0065400Y0208200D01*
X0037400Y0180200D01*
X0037400Y0159200D01*
X0036807Y0158595D01*
X0031807Y0158595D02*
X0031800Y0159200D01*
X0027600Y0159200D01*
X0026807Y0158595D01*
X0026200Y0159200D01*
X0022000Y0159200D01*
X0021807Y0158595D01*
X0017800Y0155000D02*
X0017800Y0197000D01*
X0086400Y0265600D01*
X0086984Y0265882D01*
X0092000Y0271200D02*
X0096200Y0267000D01*
X0096984Y0265882D01*
X0092000Y0271200D02*
X0058400Y0271200D01*
X0015000Y0227800D01*
X0015000Y0153600D01*
X0030400Y0138200D01*
X0178800Y0138200D01*
X0195600Y0155000D01*
X0195600Y0157800D01*
X0196413Y0158595D01*
X0201200Y0159200D02*
X0201413Y0158595D01*
X0201200Y0159200D02*
X0201200Y0162000D01*
X0180200Y0183000D01*
X0122800Y0183000D01*
X0101800Y0204000D01*
X0101800Y0258600D01*
X0106000Y0262800D01*
X0106000Y0265600D01*
X0106984Y0265882D01*
X0116984Y0265882D02*
X0117200Y0265600D01*
X0152200Y0230600D01*
X0152200Y0204000D01*
X0170400Y0185800D01*
X0183000Y0185800D01*
X0205400Y0163400D01*
X0205400Y0159200D01*
X0206413Y0158595D01*
X0211000Y0159200D02*
X0211413Y0158595D01*
X0211000Y0159200D02*
X0211000Y0162000D01*
X0184400Y0188600D01*
X0177400Y0188600D01*
X0162000Y0204000D01*
X0176000Y0206800D02*
X0176984Y0205882D01*
X0176000Y0206800D02*
X0176000Y0250200D01*
X0162000Y0264200D01*
X0162000Y0278200D01*
X0132600Y0307600D01*
X0132600Y0328600D01*
X0136800Y0332800D01*
X0137614Y0333638D01*
X0137614Y0323638D02*
X0138200Y0323000D01*
X0162000Y0299200D01*
X0162000Y0288000D01*
X0162811Y0287102D01*
X0163400Y0286600D01*
X0171800Y0278200D01*
X0171800Y0264200D01*
X0176000Y0260000D01*
X0190000Y0260000D01*
X0195600Y0265600D01*
X0196984Y0265882D01*
X0186984Y0265882D02*
X0185800Y0267000D01*
X0185800Y0313200D01*
X0156400Y0342600D01*
X0138200Y0342600D01*
X0137614Y0343638D01*
X0108800Y0355200D02*
X0106000Y0355200D01*
X0106000Y0366400D01*
X0099000Y0373400D01*
X0098953Y0373953D01*
X0098953Y0358992D02*
X0097600Y0358000D01*
X0092000Y0358000D01*
X0103200Y0353800D02*
X0104600Y0353800D01*
X0106000Y0355200D01*
X0103200Y0353800D02*
X0087800Y0338400D01*
X0087339Y0338402D01*
X0082200Y0335600D02*
X0082200Y0334200D01*
X0082200Y0335600D02*
X0079400Y0338400D01*
X0078000Y0338400D01*
X0077102Y0338402D01*
X0072400Y0334200D02*
X0071000Y0334200D01*
X0068200Y0331400D01*
X0092000Y0307600D01*
X0097600Y0307600D01*
X0097732Y0306591D01*
X0103200Y0302000D02*
X0101800Y0300600D01*
X0055600Y0300600D01*
X0044400Y0311800D01*
X0044400Y0318800D01*
X0050000Y0324400D01*
X0050803Y0325488D01*
X0051400Y0314600D02*
X0050803Y0314465D01*
X0051400Y0314600D02*
X0068200Y0331400D01*
X0087339Y0330921D02*
X0087800Y0330000D01*
X0099000Y0318800D01*
X0097732Y0317614D01*
X0097600Y0240400D02*
X0068200Y0211000D01*
X0068200Y0206800D01*
X0043000Y0181600D01*
X0043000Y0159200D01*
X0041807Y0158595D01*
X0046807Y0158595D02*
X0047200Y0159200D01*
X0047200Y0181600D01*
X0071000Y0205400D01*
X0071000Y0208200D01*
X0097600Y0234800D01*
X0097600Y0223600D02*
X0082200Y0208200D01*
X0082200Y0204000D01*
X0052800Y0174600D01*
X0052800Y0159200D01*
X0051807Y0158595D01*
X0056807Y0158595D02*
X0057000Y0159200D01*
X0057000Y0169000D01*
X0092000Y0204000D01*
X0092000Y0208200D01*
X0097600Y0213800D01*
X0100400Y0199800D02*
X0062600Y0162000D01*
X0062600Y0159200D01*
X0061807Y0158595D01*
X0066807Y0158595D02*
X0066800Y0157800D01*
X0071000Y0153600D01*
X0076600Y0145200D02*
X0083600Y0145200D01*
X0083677Y0144307D01*
X0083677Y0133283D02*
X0085000Y0132600D01*
X0157800Y0132600D01*
X0170400Y0120000D01*
X0171413Y0118995D01*
X0171800Y0120000D01*
X0176000Y0120000D01*
X0176413Y0118995D01*
X0177400Y0120000D01*
X0177400Y0122800D01*
X0180200Y0125600D01*
X0209600Y0125600D01*
X0212400Y0122800D01*
X0211413Y0118995D01*
X0212400Y0120000D01*
X0212400Y0122800D01*
X0222200Y0132600D01*
X0233400Y0134000D02*
X0321600Y0134000D01*
X0321600Y0125600D01*
X0321600Y0120000D02*
X0325800Y0120000D01*
X0326020Y0118995D01*
X0331020Y0118995D02*
X0331400Y0118600D01*
X0331400Y0106000D01*
X0339800Y0097600D01*
X0339800Y0094800D01*
X0339957Y0093913D01*
X0344000Y0094800D02*
X0344000Y0099000D01*
X0337000Y0106000D01*
X0337000Y0118600D01*
X0336020Y0118995D01*
X0341020Y0118995D02*
X0341200Y0118600D01*
X0341200Y0106000D01*
X0349600Y0097600D01*
X0349600Y0094800D01*
X0349957Y0093913D01*
X0353800Y0094800D02*
X0353800Y0099000D01*
X0346800Y0106000D01*
X0346800Y0118600D01*
X0346020Y0118995D01*
X0351000Y0118600D02*
X0351020Y0118995D01*
X0351000Y0118600D02*
X0351000Y0106000D01*
X0359400Y0097600D01*
X0359400Y0094800D01*
X0359957Y0093913D01*
X0354957Y0093913D02*
X0353800Y0094800D01*
X0344957Y0093913D02*
X0344000Y0094800D01*
X0356600Y0106000D02*
X0365000Y0097600D01*
X0365000Y0094800D01*
X0364957Y0093913D01*
X0356600Y0106000D02*
X0356600Y0118600D01*
X0356020Y0118995D01*
X0366020Y0118995D02*
X0366400Y0120000D01*
X0374800Y0120000D01*
X0384600Y0129800D01*
X0364957Y0073441D02*
X0365000Y0072400D01*
X0365000Y0044400D01*
X0373400Y0036000D01*
X0373400Y0029000D01*
X0367800Y0023400D01*
X0367457Y0023059D01*
X0358000Y0023400D02*
X0357457Y0023059D01*
X0356600Y0022000D01*
X0351000Y0016400D01*
X0344000Y0016400D01*
X0338400Y0022000D01*
X0337457Y0023059D01*
X0328600Y0034600D02*
X0327457Y0034059D01*
X0328600Y0034600D02*
X0339800Y0045800D01*
X0339800Y0072400D01*
X0339957Y0073441D01*
X0354957Y0073441D02*
X0355200Y0072400D01*
X0355200Y0054200D01*
X0360800Y0040200D02*
X0366400Y0034600D01*
X0367457Y0034059D01*
X0360800Y0040200D02*
X0360800Y0072400D01*
X0359957Y0073441D01*
X0357457Y0034059D02*
X0358000Y0033200D01*
X0358000Y0023400D01*
X0321600Y0134000D02*
X0321600Y0157800D01*
X0321020Y0158595D01*
X0321600Y0159200D01*
X0325800Y0159200D01*
X0326020Y0158595D01*
X0327200Y0159200D01*
X0330000Y0159200D01*
X0331020Y0158595D01*
X0226400Y0071000D02*
X0226400Y0023400D01*
X0219400Y0016400D01*
X0204000Y0016400D01*
X0198400Y0022000D01*
X0197850Y0023059D01*
X0188600Y0023400D02*
X0187850Y0023059D01*
X0188600Y0023400D02*
X0188600Y0033200D01*
X0187850Y0034059D01*
X0178800Y0034600D02*
X0177850Y0034059D01*
X0178800Y0034600D02*
X0190000Y0045800D01*
X0190000Y0072400D01*
X0190350Y0073441D01*
X0194200Y0073800D02*
X0194200Y0078000D01*
X0192800Y0079400D01*
X0177400Y0079400D01*
X0171800Y0073800D01*
X0171800Y0029000D01*
X0177400Y0023400D01*
X0177850Y0023059D01*
X0197850Y0034059D02*
X0198400Y0034600D01*
X0199800Y0036000D01*
X0199800Y0072400D01*
X0200350Y0073441D01*
X0195350Y0073441D02*
X0194200Y0073800D01*
X0205350Y0073441D02*
X0205400Y0073800D01*
X0205400Y0076600D01*
X0208200Y0079400D01*
X0218000Y0079400D01*
X0226400Y0071000D01*
X0215200Y0072400D02*
X0215350Y0073441D01*
X0215200Y0072400D02*
X0215200Y0044400D01*
X0223600Y0036000D01*
X0223600Y0029000D01*
X0218000Y0023400D01*
X0217850Y0023059D01*
X0208200Y0023400D02*
X0207850Y0023059D01*
X0208200Y0023400D02*
X0208200Y0033200D01*
X0207850Y0034059D01*
X0211000Y0040200D02*
X0216600Y0034600D01*
X0217850Y0034059D01*
X0211000Y0040200D02*
X0211000Y0072400D01*
X0210350Y0073441D01*
X0218000Y0087800D02*
X0164970Y0087800D01*
X0134170Y0118600D01*
X0066800Y0118600D01*
X0066807Y0118995D01*
X0066800Y0120000D01*
X0066800Y0128400D01*
X0062600Y0129800D02*
X0062600Y0125600D01*
X0030400Y0125600D01*
X0027600Y0122800D01*
X0027600Y0120000D01*
X0026807Y0118995D01*
X0026200Y0120000D01*
X0022000Y0120000D01*
X0021807Y0118995D01*
X0020600Y0118600D01*
X0019200Y0117200D01*
X0019200Y0023400D01*
X0026200Y0016400D01*
X0031800Y0016400D01*
X0037400Y0022000D01*
X0038244Y0023059D01*
X0038800Y0023400D01*
X0038800Y0033200D01*
X0038244Y0034059D01*
X0029000Y0034600D02*
X0028244Y0034059D01*
X0029000Y0034600D02*
X0040200Y0045800D01*
X0040200Y0072400D01*
X0040744Y0073441D01*
X0045744Y0073441D02*
X0045800Y0073800D01*
X0045800Y0076600D01*
X0043000Y0079400D01*
X0027600Y0079400D01*
X0022000Y0073800D01*
X0022000Y0029000D01*
X0027600Y0023400D01*
X0028244Y0023059D01*
X0048244Y0023059D02*
X0048600Y0022000D01*
X0054200Y0016400D01*
X0069600Y0016400D01*
X0076600Y0023400D01*
X0076600Y0071000D01*
X0068200Y0079400D01*
X0058400Y0079400D01*
X0055600Y0076600D01*
X0055600Y0073800D01*
X0055744Y0073441D01*
X0060744Y0073441D02*
X0061200Y0072400D01*
X0061200Y0041600D01*
X0068200Y0034600D01*
X0068244Y0034059D01*
X0073800Y0036000D02*
X0073800Y0027600D01*
X0069600Y0023400D01*
X0068244Y0023059D01*
X0058400Y0023400D02*
X0058400Y0033200D01*
X0058244Y0034059D01*
X0050000Y0036000D02*
X0048600Y0034600D01*
X0048244Y0034059D01*
X0050000Y0036000D02*
X0050000Y0072400D01*
X0050744Y0073441D01*
X0065744Y0073441D02*
X0066800Y0072400D01*
X0066800Y0043000D01*
X0073800Y0036000D01*
X0058400Y0023400D02*
X0058244Y0023059D01*
X0055744Y0093913D02*
X0055600Y0094800D01*
X0055600Y0097600D01*
X0047200Y0106000D01*
X0047200Y0118600D01*
X0046807Y0118995D01*
X0043000Y0118600D02*
X0041807Y0118995D01*
X0043000Y0118600D02*
X0043000Y0104600D01*
X0050000Y0097600D01*
X0050000Y0094800D01*
X0050744Y0093913D01*
X0045744Y0093913D02*
X0045800Y0094800D01*
X0045800Y0097600D01*
X0037400Y0106000D01*
X0037400Y0118600D01*
X0036807Y0118995D01*
X0031807Y0118995D02*
X0031800Y0118600D01*
X0031800Y0106000D01*
X0040200Y0097600D01*
X0040200Y0094800D01*
X0040744Y0093913D01*
X0052800Y0106000D02*
X0059800Y0099000D01*
X0059800Y0094800D01*
X0060744Y0093913D01*
X0065400Y0094800D02*
X0065400Y0097600D01*
X0057000Y0106000D01*
X0057000Y0118600D01*
X0056807Y0118995D01*
X0052800Y0118600D02*
X0051807Y0118995D01*
X0052800Y0118600D02*
X0052800Y0106000D01*
X0061807Y0118995D02*
X0062600Y0120000D01*
X0062600Y0125600D01*
X0062600Y0129800D02*
X0065400Y0132600D01*
X0083600Y0132600D01*
X0083677Y0133283D01*
X0065400Y0094800D02*
X0065744Y0093913D01*
X0033200Y0143800D02*
X0029000Y0143800D01*
X0017800Y0155000D01*
X0031800Y0157800D02*
X0031800Y0148000D01*
X0033200Y0143800D02*
X0038800Y0149400D01*
X0185800Y0149400D01*
X0191400Y0155000D01*
X0191400Y0157800D01*
X0191413Y0158595D01*
X0186413Y0158595D02*
X0185800Y0159200D01*
X0185800Y0162000D01*
X0174600Y0173200D01*
X0170400Y0178800D02*
X0170400Y0159200D01*
X0171413Y0158595D01*
X0171800Y0159200D01*
X0176000Y0159200D01*
X0176413Y0158595D01*
X0177400Y0159200D01*
X0180200Y0159200D01*
X0181413Y0158595D01*
X0216413Y0158595D02*
X0216600Y0159200D01*
X0216600Y0166200D01*
X0216413Y0118995D02*
X0216600Y0118600D01*
X0216600Y0101800D01*
X0219400Y0099000D01*
X0219400Y0089200D01*
X0218000Y0087800D01*
X0215350Y0093913D02*
X0215200Y0094800D01*
X0215200Y0097600D01*
X0206800Y0106000D01*
X0206800Y0118600D01*
X0206413Y0118995D01*
X0202600Y0118600D02*
X0201413Y0118995D01*
X0202600Y0118600D02*
X0202600Y0104600D01*
X0209600Y0097600D01*
X0209600Y0094800D01*
X0210350Y0093913D01*
X0205350Y0093913D02*
X0205400Y0094800D01*
X0205400Y0097600D01*
X0197000Y0106000D01*
X0197000Y0118600D01*
X0196413Y0118995D01*
X0191413Y0118995D02*
X0191400Y0118600D01*
X0191400Y0106000D01*
X0199800Y0097600D01*
X0199800Y0094800D01*
X0200350Y0093913D01*
X0195350Y0093913D02*
X0194200Y0094800D01*
X0194200Y0099000D01*
X0187200Y0106000D01*
X0187200Y0118600D01*
X0186413Y0118995D01*
X0181600Y0118600D02*
X0181413Y0118995D01*
X0181600Y0118600D02*
X0181600Y0106000D01*
X0190000Y0097600D01*
X0190000Y0094800D01*
X0190350Y0093913D01*
X0031800Y0157800D02*
X0031807Y0158595D01*
X0173835Y0287102D02*
X0174600Y0288000D01*
X0174600Y0304800D01*
X0181600Y0311800D01*
D25*
X0181600Y0311800D03*
X0108800Y0355200D03*
X0097600Y0240400D03*
X0097600Y0234800D03*
X0097600Y0223600D03*
X0097600Y0213800D03*
X0100400Y0199800D03*
X0071000Y0153600D03*
X0076600Y0145200D03*
X0066800Y0128400D03*
X0031800Y0148000D03*
X0170400Y0178800D03*
X0174600Y0173200D03*
X0216600Y0166200D03*
X0355200Y0054200D03*
M02*
