G75*
%MOIN*%
%OFA0B0*%
%FSLAX25Y25*%
%IPPOS*%
%LPD*%
%AMOC8*
5,1,8,0,0,1.08239X$1,22.5*
%
%ADD10C,0.01200*%
%ADD11C,0.00500*%
%ADD12C,0.00800*%
%ADD13C,0.00100*%
%ADD14C,0.01000*%
%ADD15C,0.01575*%
%ADD16C,0.00400*%
%ADD17C,0.00600*%
%ADD18C,0.00200*%
%ADD19C,0.02500*%
D10*
X0071984Y0200882D02*
X0071984Y0270882D01*
X0311984Y0270882D01*
X0311984Y0250882D01*
X0309484Y0250882D01*
X0304484Y0250882D01*
X0296984Y0250882D01*
X0296984Y0248382D01*
X0296984Y0244632D01*
X0296984Y0243382D01*
X0296984Y0240882D01*
X0296984Y0238382D01*
X0296984Y0235882D01*
X0296984Y0233382D01*
X0296984Y0230882D01*
X0296984Y0228382D01*
X0296984Y0227132D01*
X0296984Y0223382D01*
X0296984Y0220882D01*
X0304484Y0220882D01*
X0309484Y0220882D01*
X0311984Y0220882D01*
X0311984Y0200882D01*
X0071984Y0200882D01*
X0075484Y0210882D02*
X0088234Y0210882D01*
X0096984Y0210882D01*
X0096984Y0214882D01*
X0096986Y0214942D01*
X0096991Y0215003D01*
X0097000Y0215062D01*
X0097013Y0215121D01*
X0097029Y0215180D01*
X0097049Y0215237D01*
X0097072Y0215292D01*
X0097099Y0215347D01*
X0097128Y0215399D01*
X0097161Y0215450D01*
X0097197Y0215499D01*
X0097235Y0215545D01*
X0097277Y0215589D01*
X0097321Y0215631D01*
X0097367Y0215669D01*
X0097416Y0215705D01*
X0097467Y0215738D01*
X0097519Y0215767D01*
X0097574Y0215794D01*
X0097629Y0215817D01*
X0097686Y0215837D01*
X0097745Y0215853D01*
X0097804Y0215866D01*
X0097863Y0215875D01*
X0097924Y0215880D01*
X0097984Y0215882D01*
X0103484Y0215882D01*
X0103544Y0215880D01*
X0103605Y0215875D01*
X0103664Y0215866D01*
X0103723Y0215853D01*
X0103782Y0215837D01*
X0103839Y0215817D01*
X0103894Y0215794D01*
X0103949Y0215767D01*
X0104001Y0215738D01*
X0104052Y0215705D01*
X0104101Y0215669D01*
X0104147Y0215631D01*
X0104191Y0215589D01*
X0104233Y0215545D01*
X0104271Y0215499D01*
X0104307Y0215450D01*
X0104340Y0215399D01*
X0104369Y0215347D01*
X0104396Y0215292D01*
X0104419Y0215237D01*
X0104439Y0215180D01*
X0104455Y0215121D01*
X0104468Y0215062D01*
X0104477Y0215003D01*
X0104482Y0214942D01*
X0104484Y0214882D01*
X0104484Y0210882D01*
X0111984Y0210882D01*
X0111984Y0214882D01*
X0111986Y0214942D01*
X0111991Y0215003D01*
X0112000Y0215062D01*
X0112013Y0215121D01*
X0112029Y0215180D01*
X0112049Y0215237D01*
X0112072Y0215292D01*
X0112099Y0215347D01*
X0112128Y0215399D01*
X0112161Y0215450D01*
X0112197Y0215499D01*
X0112235Y0215545D01*
X0112277Y0215589D01*
X0112321Y0215631D01*
X0112367Y0215669D01*
X0112416Y0215705D01*
X0112467Y0215738D01*
X0112519Y0215767D01*
X0112574Y0215794D01*
X0112629Y0215817D01*
X0112686Y0215837D01*
X0112745Y0215853D01*
X0112804Y0215866D01*
X0112863Y0215875D01*
X0112924Y0215880D01*
X0112984Y0215882D01*
X0121984Y0215882D01*
X0121984Y0259882D01*
X0121982Y0259942D01*
X0121977Y0260003D01*
X0121968Y0260062D01*
X0121955Y0260121D01*
X0121939Y0260180D01*
X0121919Y0260237D01*
X0121896Y0260292D01*
X0121869Y0260347D01*
X0121840Y0260399D01*
X0121807Y0260450D01*
X0121771Y0260499D01*
X0121733Y0260545D01*
X0121691Y0260589D01*
X0121647Y0260631D01*
X0121601Y0260669D01*
X0121552Y0260705D01*
X0121501Y0260738D01*
X0121449Y0260767D01*
X0121394Y0260794D01*
X0121339Y0260817D01*
X0121282Y0260837D01*
X0121223Y0260853D01*
X0121164Y0260866D01*
X0121105Y0260875D01*
X0121044Y0260880D01*
X0120984Y0260882D01*
X0075484Y0260882D01*
X0075424Y0260880D01*
X0075363Y0260875D01*
X0075304Y0260866D01*
X0075245Y0260853D01*
X0075186Y0260837D01*
X0075129Y0260817D01*
X0075074Y0260794D01*
X0075019Y0260767D01*
X0074967Y0260738D01*
X0074916Y0260705D01*
X0074867Y0260669D01*
X0074821Y0260631D01*
X0074777Y0260589D01*
X0074735Y0260545D01*
X0074697Y0260499D01*
X0074661Y0260450D01*
X0074628Y0260399D01*
X0074599Y0260347D01*
X0074572Y0260292D01*
X0074549Y0260237D01*
X0074529Y0260180D01*
X0074513Y0260121D01*
X0074500Y0260062D01*
X0074491Y0260003D01*
X0074486Y0259942D01*
X0074484Y0259882D01*
X0074484Y0259632D01*
X0074486Y0259564D01*
X0074491Y0259497D01*
X0074500Y0259430D01*
X0074513Y0259363D01*
X0074530Y0259298D01*
X0074549Y0259233D01*
X0074573Y0259169D01*
X0074600Y0259107D01*
X0074630Y0259046D01*
X0074663Y0258988D01*
X0074699Y0258931D01*
X0074739Y0258876D01*
X0074781Y0258823D01*
X0074827Y0258772D01*
X0074874Y0258725D01*
X0074925Y0258679D01*
X0074978Y0258637D01*
X0075033Y0258597D01*
X0075090Y0258561D01*
X0075148Y0258528D01*
X0075209Y0258498D01*
X0075271Y0258471D01*
X0075335Y0258447D01*
X0075400Y0258428D01*
X0075465Y0258411D01*
X0075532Y0258398D01*
X0075599Y0258389D01*
X0075666Y0258384D01*
X0075734Y0258382D01*
X0079484Y0258382D01*
X0079582Y0258380D01*
X0079680Y0258374D01*
X0079778Y0258365D01*
X0079875Y0258351D01*
X0079972Y0258334D01*
X0080068Y0258313D01*
X0080163Y0258288D01*
X0080257Y0258260D01*
X0080349Y0258227D01*
X0080441Y0258192D01*
X0080531Y0258152D01*
X0080619Y0258110D01*
X0080706Y0258063D01*
X0080790Y0258014D01*
X0080873Y0257961D01*
X0080953Y0257905D01*
X0081032Y0257845D01*
X0081108Y0257783D01*
X0081181Y0257718D01*
X0081252Y0257650D01*
X0081320Y0257579D01*
X0081385Y0257506D01*
X0081447Y0257430D01*
X0081507Y0257351D01*
X0081563Y0257271D01*
X0081616Y0257188D01*
X0081665Y0257104D01*
X0081712Y0257017D01*
X0081754Y0256929D01*
X0081794Y0256839D01*
X0081829Y0256747D01*
X0081862Y0256655D01*
X0081890Y0256561D01*
X0081915Y0256466D01*
X0081936Y0256370D01*
X0081953Y0256273D01*
X0081967Y0256176D01*
X0081976Y0256078D01*
X0081982Y0255980D01*
X0081984Y0255882D01*
X0081984Y0253382D01*
X0081984Y0250882D01*
X0081984Y0248382D01*
X0081984Y0245882D01*
X0081984Y0243382D01*
X0081984Y0240882D01*
X0081984Y0238382D01*
X0081984Y0235882D01*
X0081984Y0233382D01*
X0081984Y0230882D01*
X0081984Y0228382D01*
X0081984Y0225882D01*
X0081984Y0223382D01*
X0081984Y0218382D01*
X0081982Y0218284D01*
X0081976Y0218186D01*
X0081967Y0218088D01*
X0081953Y0217991D01*
X0081936Y0217894D01*
X0081915Y0217798D01*
X0081890Y0217703D01*
X0081862Y0217609D01*
X0081829Y0217517D01*
X0081794Y0217425D01*
X0081754Y0217335D01*
X0081712Y0217247D01*
X0081665Y0217160D01*
X0081616Y0217076D01*
X0081563Y0216993D01*
X0081507Y0216913D01*
X0081447Y0216834D01*
X0081385Y0216758D01*
X0081320Y0216685D01*
X0081252Y0216614D01*
X0081181Y0216546D01*
X0081108Y0216481D01*
X0081032Y0216419D01*
X0080953Y0216359D01*
X0080873Y0216303D01*
X0080790Y0216250D01*
X0080706Y0216201D01*
X0080619Y0216154D01*
X0080531Y0216112D01*
X0080441Y0216072D01*
X0080349Y0216037D01*
X0080257Y0216004D01*
X0080163Y0215976D01*
X0080068Y0215951D01*
X0079972Y0215930D01*
X0079875Y0215913D01*
X0079778Y0215899D01*
X0079680Y0215890D01*
X0079582Y0215884D01*
X0079484Y0215882D01*
X0075734Y0215882D01*
X0075666Y0215880D01*
X0075599Y0215875D01*
X0075532Y0215866D01*
X0075465Y0215853D01*
X0075400Y0215836D01*
X0075335Y0215817D01*
X0075271Y0215793D01*
X0075209Y0215766D01*
X0075148Y0215736D01*
X0075090Y0215703D01*
X0075033Y0215667D01*
X0074978Y0215627D01*
X0074925Y0215585D01*
X0074874Y0215539D01*
X0074827Y0215492D01*
X0074781Y0215441D01*
X0074739Y0215388D01*
X0074699Y0215333D01*
X0074663Y0215276D01*
X0074630Y0215218D01*
X0074600Y0215157D01*
X0074573Y0215095D01*
X0074549Y0215031D01*
X0074530Y0214966D01*
X0074513Y0214901D01*
X0074500Y0214834D01*
X0074491Y0214767D01*
X0074486Y0214700D01*
X0074484Y0214632D01*
X0074484Y0211882D01*
X0074486Y0211822D01*
X0074491Y0211761D01*
X0074500Y0211702D01*
X0074513Y0211643D01*
X0074529Y0211584D01*
X0074549Y0211527D01*
X0074572Y0211472D01*
X0074599Y0211417D01*
X0074628Y0211365D01*
X0074661Y0211314D01*
X0074697Y0211265D01*
X0074735Y0211219D01*
X0074777Y0211175D01*
X0074821Y0211133D01*
X0074867Y0211095D01*
X0074916Y0211059D01*
X0074967Y0211026D01*
X0075019Y0210997D01*
X0075074Y0210970D01*
X0075129Y0210947D01*
X0075186Y0210927D01*
X0075245Y0210911D01*
X0075304Y0210898D01*
X0075363Y0210889D01*
X0075424Y0210884D01*
X0075484Y0210882D01*
X0124484Y0215882D02*
X0124486Y0215981D01*
X0124492Y0216081D01*
X0124502Y0216180D01*
X0124516Y0216278D01*
X0124533Y0216376D01*
X0124555Y0216473D01*
X0124580Y0216569D01*
X0124609Y0216664D01*
X0124642Y0216758D01*
X0124679Y0216850D01*
X0124719Y0216941D01*
X0124763Y0217030D01*
X0124811Y0217118D01*
X0124862Y0217203D01*
X0124916Y0217286D01*
X0124973Y0217368D01*
X0125034Y0217446D01*
X0125098Y0217523D01*
X0125164Y0217596D01*
X0125234Y0217667D01*
X0125306Y0217735D01*
X0125381Y0217801D01*
X0125459Y0217863D01*
X0125539Y0217922D01*
X0125621Y0217978D01*
X0125705Y0218030D01*
X0125792Y0218079D01*
X0125880Y0218125D01*
X0125970Y0218167D01*
X0126062Y0218206D01*
X0126155Y0218241D01*
X0126249Y0218272D01*
X0126345Y0218299D01*
X0126442Y0218322D01*
X0126539Y0218342D01*
X0126637Y0218358D01*
X0126736Y0218370D01*
X0126835Y0218378D01*
X0126934Y0218382D01*
X0127034Y0218382D01*
X0127133Y0218378D01*
X0127232Y0218370D01*
X0127331Y0218358D01*
X0127429Y0218342D01*
X0127526Y0218322D01*
X0127623Y0218299D01*
X0127719Y0218272D01*
X0127813Y0218241D01*
X0127906Y0218206D01*
X0127998Y0218167D01*
X0128088Y0218125D01*
X0128176Y0218079D01*
X0128263Y0218030D01*
X0128347Y0217978D01*
X0128429Y0217922D01*
X0128509Y0217863D01*
X0128587Y0217801D01*
X0128662Y0217735D01*
X0128734Y0217667D01*
X0128804Y0217596D01*
X0128870Y0217523D01*
X0128934Y0217446D01*
X0128995Y0217368D01*
X0129052Y0217286D01*
X0129106Y0217203D01*
X0129157Y0217118D01*
X0129205Y0217030D01*
X0129249Y0216941D01*
X0129289Y0216850D01*
X0129326Y0216758D01*
X0129359Y0216664D01*
X0129388Y0216569D01*
X0129413Y0216473D01*
X0129435Y0216376D01*
X0129452Y0216278D01*
X0129466Y0216180D01*
X0129476Y0216081D01*
X0129482Y0215981D01*
X0129484Y0215882D01*
X0129482Y0215783D01*
X0129476Y0215683D01*
X0129466Y0215584D01*
X0129452Y0215486D01*
X0129435Y0215388D01*
X0129413Y0215291D01*
X0129388Y0215195D01*
X0129359Y0215100D01*
X0129326Y0215006D01*
X0129289Y0214914D01*
X0129249Y0214823D01*
X0129205Y0214734D01*
X0129157Y0214646D01*
X0129106Y0214561D01*
X0129052Y0214478D01*
X0128995Y0214396D01*
X0128934Y0214318D01*
X0128870Y0214241D01*
X0128804Y0214168D01*
X0128734Y0214097D01*
X0128662Y0214029D01*
X0128587Y0213963D01*
X0128509Y0213901D01*
X0128429Y0213842D01*
X0128347Y0213786D01*
X0128263Y0213734D01*
X0128176Y0213685D01*
X0128088Y0213639D01*
X0127998Y0213597D01*
X0127906Y0213558D01*
X0127813Y0213523D01*
X0127719Y0213492D01*
X0127623Y0213465D01*
X0127526Y0213442D01*
X0127429Y0213422D01*
X0127331Y0213406D01*
X0127232Y0213394D01*
X0127133Y0213386D01*
X0127034Y0213382D01*
X0126934Y0213382D01*
X0126835Y0213386D01*
X0126736Y0213394D01*
X0126637Y0213406D01*
X0126539Y0213422D01*
X0126442Y0213442D01*
X0126345Y0213465D01*
X0126249Y0213492D01*
X0126155Y0213523D01*
X0126062Y0213558D01*
X0125970Y0213597D01*
X0125880Y0213639D01*
X0125792Y0213685D01*
X0125705Y0213734D01*
X0125621Y0213786D01*
X0125539Y0213842D01*
X0125459Y0213901D01*
X0125381Y0213963D01*
X0125306Y0214029D01*
X0125234Y0214097D01*
X0125164Y0214168D01*
X0125098Y0214241D01*
X0125034Y0214318D01*
X0124973Y0214396D01*
X0124916Y0214478D01*
X0124862Y0214561D01*
X0124811Y0214646D01*
X0124763Y0214734D01*
X0124719Y0214823D01*
X0124679Y0214914D01*
X0124642Y0215006D01*
X0124609Y0215100D01*
X0124580Y0215195D01*
X0124555Y0215291D01*
X0124533Y0215388D01*
X0124516Y0215486D01*
X0124502Y0215584D01*
X0124492Y0215683D01*
X0124486Y0215783D01*
X0124484Y0215882D01*
X0124484Y0225882D02*
X0124486Y0225981D01*
X0124492Y0226081D01*
X0124502Y0226180D01*
X0124516Y0226278D01*
X0124533Y0226376D01*
X0124555Y0226473D01*
X0124580Y0226569D01*
X0124609Y0226664D01*
X0124642Y0226758D01*
X0124679Y0226850D01*
X0124719Y0226941D01*
X0124763Y0227030D01*
X0124811Y0227118D01*
X0124862Y0227203D01*
X0124916Y0227286D01*
X0124973Y0227368D01*
X0125034Y0227446D01*
X0125098Y0227523D01*
X0125164Y0227596D01*
X0125234Y0227667D01*
X0125306Y0227735D01*
X0125381Y0227801D01*
X0125459Y0227863D01*
X0125539Y0227922D01*
X0125621Y0227978D01*
X0125705Y0228030D01*
X0125792Y0228079D01*
X0125880Y0228125D01*
X0125970Y0228167D01*
X0126062Y0228206D01*
X0126155Y0228241D01*
X0126249Y0228272D01*
X0126345Y0228299D01*
X0126442Y0228322D01*
X0126539Y0228342D01*
X0126637Y0228358D01*
X0126736Y0228370D01*
X0126835Y0228378D01*
X0126934Y0228382D01*
X0127034Y0228382D01*
X0127133Y0228378D01*
X0127232Y0228370D01*
X0127331Y0228358D01*
X0127429Y0228342D01*
X0127526Y0228322D01*
X0127623Y0228299D01*
X0127719Y0228272D01*
X0127813Y0228241D01*
X0127906Y0228206D01*
X0127998Y0228167D01*
X0128088Y0228125D01*
X0128176Y0228079D01*
X0128263Y0228030D01*
X0128347Y0227978D01*
X0128429Y0227922D01*
X0128509Y0227863D01*
X0128587Y0227801D01*
X0128662Y0227735D01*
X0128734Y0227667D01*
X0128804Y0227596D01*
X0128870Y0227523D01*
X0128934Y0227446D01*
X0128995Y0227368D01*
X0129052Y0227286D01*
X0129106Y0227203D01*
X0129157Y0227118D01*
X0129205Y0227030D01*
X0129249Y0226941D01*
X0129289Y0226850D01*
X0129326Y0226758D01*
X0129359Y0226664D01*
X0129388Y0226569D01*
X0129413Y0226473D01*
X0129435Y0226376D01*
X0129452Y0226278D01*
X0129466Y0226180D01*
X0129476Y0226081D01*
X0129482Y0225981D01*
X0129484Y0225882D01*
X0129482Y0225783D01*
X0129476Y0225683D01*
X0129466Y0225584D01*
X0129452Y0225486D01*
X0129435Y0225388D01*
X0129413Y0225291D01*
X0129388Y0225195D01*
X0129359Y0225100D01*
X0129326Y0225006D01*
X0129289Y0224914D01*
X0129249Y0224823D01*
X0129205Y0224734D01*
X0129157Y0224646D01*
X0129106Y0224561D01*
X0129052Y0224478D01*
X0128995Y0224396D01*
X0128934Y0224318D01*
X0128870Y0224241D01*
X0128804Y0224168D01*
X0128734Y0224097D01*
X0128662Y0224029D01*
X0128587Y0223963D01*
X0128509Y0223901D01*
X0128429Y0223842D01*
X0128347Y0223786D01*
X0128263Y0223734D01*
X0128176Y0223685D01*
X0128088Y0223639D01*
X0127998Y0223597D01*
X0127906Y0223558D01*
X0127813Y0223523D01*
X0127719Y0223492D01*
X0127623Y0223465D01*
X0127526Y0223442D01*
X0127429Y0223422D01*
X0127331Y0223406D01*
X0127232Y0223394D01*
X0127133Y0223386D01*
X0127034Y0223382D01*
X0126934Y0223382D01*
X0126835Y0223386D01*
X0126736Y0223394D01*
X0126637Y0223406D01*
X0126539Y0223422D01*
X0126442Y0223442D01*
X0126345Y0223465D01*
X0126249Y0223492D01*
X0126155Y0223523D01*
X0126062Y0223558D01*
X0125970Y0223597D01*
X0125880Y0223639D01*
X0125792Y0223685D01*
X0125705Y0223734D01*
X0125621Y0223786D01*
X0125539Y0223842D01*
X0125459Y0223901D01*
X0125381Y0223963D01*
X0125306Y0224029D01*
X0125234Y0224097D01*
X0125164Y0224168D01*
X0125098Y0224241D01*
X0125034Y0224318D01*
X0124973Y0224396D01*
X0124916Y0224478D01*
X0124862Y0224561D01*
X0124811Y0224646D01*
X0124763Y0224734D01*
X0124719Y0224823D01*
X0124679Y0224914D01*
X0124642Y0225006D01*
X0124609Y0225100D01*
X0124580Y0225195D01*
X0124555Y0225291D01*
X0124533Y0225388D01*
X0124516Y0225486D01*
X0124502Y0225584D01*
X0124492Y0225683D01*
X0124486Y0225783D01*
X0124484Y0225882D01*
X0134484Y0233382D02*
X0134484Y0238382D01*
X0124484Y0235882D02*
X0124486Y0235981D01*
X0124492Y0236081D01*
X0124502Y0236180D01*
X0124516Y0236278D01*
X0124533Y0236376D01*
X0124555Y0236473D01*
X0124580Y0236569D01*
X0124609Y0236664D01*
X0124642Y0236758D01*
X0124679Y0236850D01*
X0124719Y0236941D01*
X0124763Y0237030D01*
X0124811Y0237118D01*
X0124862Y0237203D01*
X0124916Y0237286D01*
X0124973Y0237368D01*
X0125034Y0237446D01*
X0125098Y0237523D01*
X0125164Y0237596D01*
X0125234Y0237667D01*
X0125306Y0237735D01*
X0125381Y0237801D01*
X0125459Y0237863D01*
X0125539Y0237922D01*
X0125621Y0237978D01*
X0125705Y0238030D01*
X0125792Y0238079D01*
X0125880Y0238125D01*
X0125970Y0238167D01*
X0126062Y0238206D01*
X0126155Y0238241D01*
X0126249Y0238272D01*
X0126345Y0238299D01*
X0126442Y0238322D01*
X0126539Y0238342D01*
X0126637Y0238358D01*
X0126736Y0238370D01*
X0126835Y0238378D01*
X0126934Y0238382D01*
X0127034Y0238382D01*
X0127133Y0238378D01*
X0127232Y0238370D01*
X0127331Y0238358D01*
X0127429Y0238342D01*
X0127526Y0238322D01*
X0127623Y0238299D01*
X0127719Y0238272D01*
X0127813Y0238241D01*
X0127906Y0238206D01*
X0127998Y0238167D01*
X0128088Y0238125D01*
X0128176Y0238079D01*
X0128263Y0238030D01*
X0128347Y0237978D01*
X0128429Y0237922D01*
X0128509Y0237863D01*
X0128587Y0237801D01*
X0128662Y0237735D01*
X0128734Y0237667D01*
X0128804Y0237596D01*
X0128870Y0237523D01*
X0128934Y0237446D01*
X0128995Y0237368D01*
X0129052Y0237286D01*
X0129106Y0237203D01*
X0129157Y0237118D01*
X0129205Y0237030D01*
X0129249Y0236941D01*
X0129289Y0236850D01*
X0129326Y0236758D01*
X0129359Y0236664D01*
X0129388Y0236569D01*
X0129413Y0236473D01*
X0129435Y0236376D01*
X0129452Y0236278D01*
X0129466Y0236180D01*
X0129476Y0236081D01*
X0129482Y0235981D01*
X0129484Y0235882D01*
X0129482Y0235783D01*
X0129476Y0235683D01*
X0129466Y0235584D01*
X0129452Y0235486D01*
X0129435Y0235388D01*
X0129413Y0235291D01*
X0129388Y0235195D01*
X0129359Y0235100D01*
X0129326Y0235006D01*
X0129289Y0234914D01*
X0129249Y0234823D01*
X0129205Y0234734D01*
X0129157Y0234646D01*
X0129106Y0234561D01*
X0129052Y0234478D01*
X0128995Y0234396D01*
X0128934Y0234318D01*
X0128870Y0234241D01*
X0128804Y0234168D01*
X0128734Y0234097D01*
X0128662Y0234029D01*
X0128587Y0233963D01*
X0128509Y0233901D01*
X0128429Y0233842D01*
X0128347Y0233786D01*
X0128263Y0233734D01*
X0128176Y0233685D01*
X0128088Y0233639D01*
X0127998Y0233597D01*
X0127906Y0233558D01*
X0127813Y0233523D01*
X0127719Y0233492D01*
X0127623Y0233465D01*
X0127526Y0233442D01*
X0127429Y0233422D01*
X0127331Y0233406D01*
X0127232Y0233394D01*
X0127133Y0233386D01*
X0127034Y0233382D01*
X0126934Y0233382D01*
X0126835Y0233386D01*
X0126736Y0233394D01*
X0126637Y0233406D01*
X0126539Y0233422D01*
X0126442Y0233442D01*
X0126345Y0233465D01*
X0126249Y0233492D01*
X0126155Y0233523D01*
X0126062Y0233558D01*
X0125970Y0233597D01*
X0125880Y0233639D01*
X0125792Y0233685D01*
X0125705Y0233734D01*
X0125621Y0233786D01*
X0125539Y0233842D01*
X0125459Y0233901D01*
X0125381Y0233963D01*
X0125306Y0234029D01*
X0125234Y0234097D01*
X0125164Y0234168D01*
X0125098Y0234241D01*
X0125034Y0234318D01*
X0124973Y0234396D01*
X0124916Y0234478D01*
X0124862Y0234561D01*
X0124811Y0234646D01*
X0124763Y0234734D01*
X0124719Y0234823D01*
X0124679Y0234914D01*
X0124642Y0235006D01*
X0124609Y0235100D01*
X0124580Y0235195D01*
X0124555Y0235291D01*
X0124533Y0235388D01*
X0124516Y0235486D01*
X0124502Y0235584D01*
X0124492Y0235683D01*
X0124486Y0235783D01*
X0124484Y0235882D01*
X0124484Y0245882D02*
X0124486Y0245981D01*
X0124492Y0246081D01*
X0124502Y0246180D01*
X0124516Y0246278D01*
X0124533Y0246376D01*
X0124555Y0246473D01*
X0124580Y0246569D01*
X0124609Y0246664D01*
X0124642Y0246758D01*
X0124679Y0246850D01*
X0124719Y0246941D01*
X0124763Y0247030D01*
X0124811Y0247118D01*
X0124862Y0247203D01*
X0124916Y0247286D01*
X0124973Y0247368D01*
X0125034Y0247446D01*
X0125098Y0247523D01*
X0125164Y0247596D01*
X0125234Y0247667D01*
X0125306Y0247735D01*
X0125381Y0247801D01*
X0125459Y0247863D01*
X0125539Y0247922D01*
X0125621Y0247978D01*
X0125705Y0248030D01*
X0125792Y0248079D01*
X0125880Y0248125D01*
X0125970Y0248167D01*
X0126062Y0248206D01*
X0126155Y0248241D01*
X0126249Y0248272D01*
X0126345Y0248299D01*
X0126442Y0248322D01*
X0126539Y0248342D01*
X0126637Y0248358D01*
X0126736Y0248370D01*
X0126835Y0248378D01*
X0126934Y0248382D01*
X0127034Y0248382D01*
X0127133Y0248378D01*
X0127232Y0248370D01*
X0127331Y0248358D01*
X0127429Y0248342D01*
X0127526Y0248322D01*
X0127623Y0248299D01*
X0127719Y0248272D01*
X0127813Y0248241D01*
X0127906Y0248206D01*
X0127998Y0248167D01*
X0128088Y0248125D01*
X0128176Y0248079D01*
X0128263Y0248030D01*
X0128347Y0247978D01*
X0128429Y0247922D01*
X0128509Y0247863D01*
X0128587Y0247801D01*
X0128662Y0247735D01*
X0128734Y0247667D01*
X0128804Y0247596D01*
X0128870Y0247523D01*
X0128934Y0247446D01*
X0128995Y0247368D01*
X0129052Y0247286D01*
X0129106Y0247203D01*
X0129157Y0247118D01*
X0129205Y0247030D01*
X0129249Y0246941D01*
X0129289Y0246850D01*
X0129326Y0246758D01*
X0129359Y0246664D01*
X0129388Y0246569D01*
X0129413Y0246473D01*
X0129435Y0246376D01*
X0129452Y0246278D01*
X0129466Y0246180D01*
X0129476Y0246081D01*
X0129482Y0245981D01*
X0129484Y0245882D01*
X0129482Y0245783D01*
X0129476Y0245683D01*
X0129466Y0245584D01*
X0129452Y0245486D01*
X0129435Y0245388D01*
X0129413Y0245291D01*
X0129388Y0245195D01*
X0129359Y0245100D01*
X0129326Y0245006D01*
X0129289Y0244914D01*
X0129249Y0244823D01*
X0129205Y0244734D01*
X0129157Y0244646D01*
X0129106Y0244561D01*
X0129052Y0244478D01*
X0128995Y0244396D01*
X0128934Y0244318D01*
X0128870Y0244241D01*
X0128804Y0244168D01*
X0128734Y0244097D01*
X0128662Y0244029D01*
X0128587Y0243963D01*
X0128509Y0243901D01*
X0128429Y0243842D01*
X0128347Y0243786D01*
X0128263Y0243734D01*
X0128176Y0243685D01*
X0128088Y0243639D01*
X0127998Y0243597D01*
X0127906Y0243558D01*
X0127813Y0243523D01*
X0127719Y0243492D01*
X0127623Y0243465D01*
X0127526Y0243442D01*
X0127429Y0243422D01*
X0127331Y0243406D01*
X0127232Y0243394D01*
X0127133Y0243386D01*
X0127034Y0243382D01*
X0126934Y0243382D01*
X0126835Y0243386D01*
X0126736Y0243394D01*
X0126637Y0243406D01*
X0126539Y0243422D01*
X0126442Y0243442D01*
X0126345Y0243465D01*
X0126249Y0243492D01*
X0126155Y0243523D01*
X0126062Y0243558D01*
X0125970Y0243597D01*
X0125880Y0243639D01*
X0125792Y0243685D01*
X0125705Y0243734D01*
X0125621Y0243786D01*
X0125539Y0243842D01*
X0125459Y0243901D01*
X0125381Y0243963D01*
X0125306Y0244029D01*
X0125234Y0244097D01*
X0125164Y0244168D01*
X0125098Y0244241D01*
X0125034Y0244318D01*
X0124973Y0244396D01*
X0124916Y0244478D01*
X0124862Y0244561D01*
X0124811Y0244646D01*
X0124763Y0244734D01*
X0124719Y0244823D01*
X0124679Y0244914D01*
X0124642Y0245006D01*
X0124609Y0245100D01*
X0124580Y0245195D01*
X0124555Y0245291D01*
X0124533Y0245388D01*
X0124516Y0245486D01*
X0124502Y0245584D01*
X0124492Y0245683D01*
X0124486Y0245783D01*
X0124484Y0245882D01*
X0124484Y0255882D02*
X0124486Y0255981D01*
X0124492Y0256081D01*
X0124502Y0256180D01*
X0124516Y0256278D01*
X0124533Y0256376D01*
X0124555Y0256473D01*
X0124580Y0256569D01*
X0124609Y0256664D01*
X0124642Y0256758D01*
X0124679Y0256850D01*
X0124719Y0256941D01*
X0124763Y0257030D01*
X0124811Y0257118D01*
X0124862Y0257203D01*
X0124916Y0257286D01*
X0124973Y0257368D01*
X0125034Y0257446D01*
X0125098Y0257523D01*
X0125164Y0257596D01*
X0125234Y0257667D01*
X0125306Y0257735D01*
X0125381Y0257801D01*
X0125459Y0257863D01*
X0125539Y0257922D01*
X0125621Y0257978D01*
X0125705Y0258030D01*
X0125792Y0258079D01*
X0125880Y0258125D01*
X0125970Y0258167D01*
X0126062Y0258206D01*
X0126155Y0258241D01*
X0126249Y0258272D01*
X0126345Y0258299D01*
X0126442Y0258322D01*
X0126539Y0258342D01*
X0126637Y0258358D01*
X0126736Y0258370D01*
X0126835Y0258378D01*
X0126934Y0258382D01*
X0127034Y0258382D01*
X0127133Y0258378D01*
X0127232Y0258370D01*
X0127331Y0258358D01*
X0127429Y0258342D01*
X0127526Y0258322D01*
X0127623Y0258299D01*
X0127719Y0258272D01*
X0127813Y0258241D01*
X0127906Y0258206D01*
X0127998Y0258167D01*
X0128088Y0258125D01*
X0128176Y0258079D01*
X0128263Y0258030D01*
X0128347Y0257978D01*
X0128429Y0257922D01*
X0128509Y0257863D01*
X0128587Y0257801D01*
X0128662Y0257735D01*
X0128734Y0257667D01*
X0128804Y0257596D01*
X0128870Y0257523D01*
X0128934Y0257446D01*
X0128995Y0257368D01*
X0129052Y0257286D01*
X0129106Y0257203D01*
X0129157Y0257118D01*
X0129205Y0257030D01*
X0129249Y0256941D01*
X0129289Y0256850D01*
X0129326Y0256758D01*
X0129359Y0256664D01*
X0129388Y0256569D01*
X0129413Y0256473D01*
X0129435Y0256376D01*
X0129452Y0256278D01*
X0129466Y0256180D01*
X0129476Y0256081D01*
X0129482Y0255981D01*
X0129484Y0255882D01*
X0129482Y0255783D01*
X0129476Y0255683D01*
X0129466Y0255584D01*
X0129452Y0255486D01*
X0129435Y0255388D01*
X0129413Y0255291D01*
X0129388Y0255195D01*
X0129359Y0255100D01*
X0129326Y0255006D01*
X0129289Y0254914D01*
X0129249Y0254823D01*
X0129205Y0254734D01*
X0129157Y0254646D01*
X0129106Y0254561D01*
X0129052Y0254478D01*
X0128995Y0254396D01*
X0128934Y0254318D01*
X0128870Y0254241D01*
X0128804Y0254168D01*
X0128734Y0254097D01*
X0128662Y0254029D01*
X0128587Y0253963D01*
X0128509Y0253901D01*
X0128429Y0253842D01*
X0128347Y0253786D01*
X0128263Y0253734D01*
X0128176Y0253685D01*
X0128088Y0253639D01*
X0127998Y0253597D01*
X0127906Y0253558D01*
X0127813Y0253523D01*
X0127719Y0253492D01*
X0127623Y0253465D01*
X0127526Y0253442D01*
X0127429Y0253422D01*
X0127331Y0253406D01*
X0127232Y0253394D01*
X0127133Y0253386D01*
X0127034Y0253382D01*
X0126934Y0253382D01*
X0126835Y0253386D01*
X0126736Y0253394D01*
X0126637Y0253406D01*
X0126539Y0253422D01*
X0126442Y0253442D01*
X0126345Y0253465D01*
X0126249Y0253492D01*
X0126155Y0253523D01*
X0126062Y0253558D01*
X0125970Y0253597D01*
X0125880Y0253639D01*
X0125792Y0253685D01*
X0125705Y0253734D01*
X0125621Y0253786D01*
X0125539Y0253842D01*
X0125459Y0253901D01*
X0125381Y0253963D01*
X0125306Y0254029D01*
X0125234Y0254097D01*
X0125164Y0254168D01*
X0125098Y0254241D01*
X0125034Y0254318D01*
X0124973Y0254396D01*
X0124916Y0254478D01*
X0124862Y0254561D01*
X0124811Y0254646D01*
X0124763Y0254734D01*
X0124719Y0254823D01*
X0124679Y0254914D01*
X0124642Y0255006D01*
X0124609Y0255100D01*
X0124580Y0255195D01*
X0124555Y0255291D01*
X0124533Y0255388D01*
X0124516Y0255486D01*
X0124502Y0255584D01*
X0124492Y0255683D01*
X0124486Y0255783D01*
X0124484Y0255882D01*
X0139484Y0243382D02*
X0139344Y0243380D01*
X0139204Y0243374D01*
X0139064Y0243364D01*
X0138924Y0243351D01*
X0138785Y0243333D01*
X0138646Y0243311D01*
X0138509Y0243286D01*
X0138371Y0243257D01*
X0138235Y0243224D01*
X0138100Y0243187D01*
X0137966Y0243146D01*
X0137833Y0243101D01*
X0137701Y0243053D01*
X0137571Y0243001D01*
X0137442Y0242946D01*
X0137315Y0242887D01*
X0137189Y0242824D01*
X0137065Y0242758D01*
X0136944Y0242689D01*
X0136824Y0242616D01*
X0136706Y0242539D01*
X0136591Y0242460D01*
X0136477Y0242377D01*
X0136367Y0242291D01*
X0136258Y0242202D01*
X0136152Y0242110D01*
X0136049Y0242015D01*
X0135948Y0241918D01*
X0135851Y0241817D01*
X0135756Y0241714D01*
X0135664Y0241608D01*
X0135575Y0241499D01*
X0135489Y0241389D01*
X0135406Y0241275D01*
X0135327Y0241160D01*
X0135250Y0241042D01*
X0135177Y0240922D01*
X0135108Y0240801D01*
X0135042Y0240677D01*
X0134979Y0240551D01*
X0134920Y0240424D01*
X0134865Y0240295D01*
X0134813Y0240165D01*
X0134765Y0240033D01*
X0134720Y0239900D01*
X0134679Y0239766D01*
X0134642Y0239631D01*
X0134609Y0239495D01*
X0134580Y0239357D01*
X0134555Y0239220D01*
X0134533Y0239081D01*
X0134515Y0238942D01*
X0134502Y0238802D01*
X0134492Y0238662D01*
X0134486Y0238522D01*
X0134484Y0238382D01*
X0139484Y0243382D02*
X0139624Y0243380D01*
X0139764Y0243374D01*
X0139904Y0243364D01*
X0140044Y0243351D01*
X0140183Y0243333D01*
X0140322Y0243311D01*
X0140459Y0243286D01*
X0140597Y0243257D01*
X0140733Y0243224D01*
X0140868Y0243187D01*
X0141002Y0243146D01*
X0141135Y0243101D01*
X0141267Y0243053D01*
X0141397Y0243001D01*
X0141526Y0242946D01*
X0141653Y0242887D01*
X0141779Y0242824D01*
X0141903Y0242758D01*
X0142024Y0242689D01*
X0142144Y0242616D01*
X0142262Y0242539D01*
X0142377Y0242460D01*
X0142491Y0242377D01*
X0142601Y0242291D01*
X0142710Y0242202D01*
X0142816Y0242110D01*
X0142919Y0242015D01*
X0143020Y0241918D01*
X0143117Y0241817D01*
X0143212Y0241714D01*
X0143304Y0241608D01*
X0143393Y0241499D01*
X0143479Y0241389D01*
X0143562Y0241275D01*
X0143641Y0241160D01*
X0143718Y0241042D01*
X0143791Y0240922D01*
X0143860Y0240801D01*
X0143926Y0240677D01*
X0143989Y0240551D01*
X0144048Y0240424D01*
X0144103Y0240295D01*
X0144155Y0240165D01*
X0144203Y0240033D01*
X0144248Y0239900D01*
X0144289Y0239766D01*
X0144326Y0239631D01*
X0144359Y0239495D01*
X0144388Y0239357D01*
X0144413Y0239220D01*
X0144435Y0239081D01*
X0144453Y0238942D01*
X0144466Y0238802D01*
X0144476Y0238662D01*
X0144482Y0238522D01*
X0144484Y0238382D01*
X0144484Y0233382D01*
X0139484Y0228382D02*
X0139344Y0228384D01*
X0139204Y0228390D01*
X0139064Y0228400D01*
X0138924Y0228413D01*
X0138785Y0228431D01*
X0138646Y0228453D01*
X0138509Y0228478D01*
X0138371Y0228507D01*
X0138235Y0228540D01*
X0138100Y0228577D01*
X0137966Y0228618D01*
X0137833Y0228663D01*
X0137701Y0228711D01*
X0137571Y0228763D01*
X0137442Y0228818D01*
X0137315Y0228877D01*
X0137189Y0228940D01*
X0137065Y0229006D01*
X0136944Y0229075D01*
X0136824Y0229148D01*
X0136706Y0229225D01*
X0136591Y0229304D01*
X0136477Y0229387D01*
X0136367Y0229473D01*
X0136258Y0229562D01*
X0136152Y0229654D01*
X0136049Y0229749D01*
X0135948Y0229846D01*
X0135851Y0229947D01*
X0135756Y0230050D01*
X0135664Y0230156D01*
X0135575Y0230265D01*
X0135489Y0230375D01*
X0135406Y0230489D01*
X0135327Y0230604D01*
X0135250Y0230722D01*
X0135177Y0230842D01*
X0135108Y0230963D01*
X0135042Y0231087D01*
X0134979Y0231213D01*
X0134920Y0231340D01*
X0134865Y0231469D01*
X0134813Y0231599D01*
X0134765Y0231731D01*
X0134720Y0231864D01*
X0134679Y0231998D01*
X0134642Y0232133D01*
X0134609Y0232269D01*
X0134580Y0232407D01*
X0134555Y0232544D01*
X0134533Y0232683D01*
X0134515Y0232822D01*
X0134502Y0232962D01*
X0134492Y0233102D01*
X0134486Y0233242D01*
X0134484Y0233382D01*
X0139484Y0228382D02*
X0139624Y0228384D01*
X0139764Y0228390D01*
X0139904Y0228400D01*
X0140044Y0228413D01*
X0140183Y0228431D01*
X0140322Y0228453D01*
X0140459Y0228478D01*
X0140597Y0228507D01*
X0140733Y0228540D01*
X0140868Y0228577D01*
X0141002Y0228618D01*
X0141135Y0228663D01*
X0141267Y0228711D01*
X0141397Y0228763D01*
X0141526Y0228818D01*
X0141653Y0228877D01*
X0141779Y0228940D01*
X0141903Y0229006D01*
X0142024Y0229075D01*
X0142144Y0229148D01*
X0142262Y0229225D01*
X0142377Y0229304D01*
X0142491Y0229387D01*
X0142601Y0229473D01*
X0142710Y0229562D01*
X0142816Y0229654D01*
X0142919Y0229749D01*
X0143020Y0229846D01*
X0143117Y0229947D01*
X0143212Y0230050D01*
X0143304Y0230156D01*
X0143393Y0230265D01*
X0143479Y0230375D01*
X0143562Y0230489D01*
X0143641Y0230604D01*
X0143718Y0230722D01*
X0143791Y0230842D01*
X0143860Y0230963D01*
X0143926Y0231087D01*
X0143989Y0231213D01*
X0144048Y0231340D01*
X0144103Y0231469D01*
X0144155Y0231599D01*
X0144203Y0231731D01*
X0144248Y0231864D01*
X0144289Y0231998D01*
X0144326Y0232133D01*
X0144359Y0232269D01*
X0144388Y0232407D01*
X0144413Y0232544D01*
X0144435Y0232683D01*
X0144453Y0232822D01*
X0144466Y0232962D01*
X0144476Y0233102D01*
X0144482Y0233242D01*
X0144484Y0233382D01*
X0161984Y0211882D02*
X0161984Y0259882D01*
X0161986Y0259942D01*
X0161991Y0260003D01*
X0162000Y0260062D01*
X0162013Y0260121D01*
X0162029Y0260180D01*
X0162049Y0260237D01*
X0162072Y0260292D01*
X0162099Y0260347D01*
X0162128Y0260399D01*
X0162161Y0260450D01*
X0162197Y0260499D01*
X0162235Y0260545D01*
X0162277Y0260589D01*
X0162321Y0260631D01*
X0162367Y0260669D01*
X0162416Y0260705D01*
X0162467Y0260738D01*
X0162519Y0260767D01*
X0162574Y0260794D01*
X0162629Y0260817D01*
X0162686Y0260837D01*
X0162745Y0260853D01*
X0162804Y0260866D01*
X0162863Y0260875D01*
X0162924Y0260880D01*
X0162984Y0260882D01*
X0210984Y0260882D01*
X0211044Y0260880D01*
X0211105Y0260875D01*
X0211164Y0260866D01*
X0211223Y0260853D01*
X0211282Y0260837D01*
X0211339Y0260817D01*
X0211394Y0260794D01*
X0211449Y0260767D01*
X0211501Y0260738D01*
X0211552Y0260705D01*
X0211601Y0260669D01*
X0211647Y0260631D01*
X0211691Y0260589D01*
X0211733Y0260545D01*
X0211771Y0260499D01*
X0211807Y0260450D01*
X0211840Y0260399D01*
X0211869Y0260347D01*
X0211896Y0260292D01*
X0211919Y0260237D01*
X0211939Y0260180D01*
X0211955Y0260121D01*
X0211968Y0260062D01*
X0211977Y0260003D01*
X0211982Y0259942D01*
X0211984Y0259882D01*
X0211984Y0211882D01*
X0211982Y0211822D01*
X0211977Y0211761D01*
X0211968Y0211702D01*
X0211955Y0211643D01*
X0211939Y0211584D01*
X0211919Y0211527D01*
X0211896Y0211472D01*
X0211869Y0211417D01*
X0211840Y0211365D01*
X0211807Y0211314D01*
X0211771Y0211265D01*
X0211733Y0211219D01*
X0211691Y0211175D01*
X0211647Y0211133D01*
X0211601Y0211095D01*
X0211552Y0211059D01*
X0211501Y0211026D01*
X0211449Y0210997D01*
X0211394Y0210970D01*
X0211339Y0210947D01*
X0211282Y0210927D01*
X0211223Y0210911D01*
X0211164Y0210898D01*
X0211105Y0210889D01*
X0211044Y0210884D01*
X0210984Y0210882D01*
X0162984Y0210882D01*
X0162924Y0210884D01*
X0162863Y0210889D01*
X0162804Y0210898D01*
X0162745Y0210911D01*
X0162686Y0210927D01*
X0162629Y0210947D01*
X0162574Y0210970D01*
X0162519Y0210997D01*
X0162467Y0211026D01*
X0162416Y0211059D01*
X0162367Y0211095D01*
X0162321Y0211133D01*
X0162277Y0211175D01*
X0162235Y0211219D01*
X0162197Y0211265D01*
X0162161Y0211314D01*
X0162128Y0211365D01*
X0162099Y0211417D01*
X0162072Y0211472D01*
X0162049Y0211527D01*
X0162029Y0211584D01*
X0162013Y0211643D01*
X0162000Y0211702D01*
X0161991Y0211761D01*
X0161986Y0211822D01*
X0161984Y0211882D01*
X0239484Y0253382D02*
X0239486Y0253481D01*
X0239492Y0253581D01*
X0239502Y0253680D01*
X0239516Y0253778D01*
X0239533Y0253876D01*
X0239555Y0253973D01*
X0239580Y0254069D01*
X0239609Y0254164D01*
X0239642Y0254258D01*
X0239679Y0254350D01*
X0239719Y0254441D01*
X0239763Y0254530D01*
X0239811Y0254618D01*
X0239862Y0254703D01*
X0239916Y0254786D01*
X0239973Y0254868D01*
X0240034Y0254946D01*
X0240098Y0255023D01*
X0240164Y0255096D01*
X0240234Y0255167D01*
X0240306Y0255235D01*
X0240381Y0255301D01*
X0240459Y0255363D01*
X0240539Y0255422D01*
X0240621Y0255478D01*
X0240705Y0255530D01*
X0240792Y0255579D01*
X0240880Y0255625D01*
X0240970Y0255667D01*
X0241062Y0255706D01*
X0241155Y0255741D01*
X0241249Y0255772D01*
X0241345Y0255799D01*
X0241442Y0255822D01*
X0241539Y0255842D01*
X0241637Y0255858D01*
X0241736Y0255870D01*
X0241835Y0255878D01*
X0241934Y0255882D01*
X0242034Y0255882D01*
X0242133Y0255878D01*
X0242232Y0255870D01*
X0242331Y0255858D01*
X0242429Y0255842D01*
X0242526Y0255822D01*
X0242623Y0255799D01*
X0242719Y0255772D01*
X0242813Y0255741D01*
X0242906Y0255706D01*
X0242998Y0255667D01*
X0243088Y0255625D01*
X0243176Y0255579D01*
X0243263Y0255530D01*
X0243347Y0255478D01*
X0243429Y0255422D01*
X0243509Y0255363D01*
X0243587Y0255301D01*
X0243662Y0255235D01*
X0243734Y0255167D01*
X0243804Y0255096D01*
X0243870Y0255023D01*
X0243934Y0254946D01*
X0243995Y0254868D01*
X0244052Y0254786D01*
X0244106Y0254703D01*
X0244157Y0254618D01*
X0244205Y0254530D01*
X0244249Y0254441D01*
X0244289Y0254350D01*
X0244326Y0254258D01*
X0244359Y0254164D01*
X0244388Y0254069D01*
X0244413Y0253973D01*
X0244435Y0253876D01*
X0244452Y0253778D01*
X0244466Y0253680D01*
X0244476Y0253581D01*
X0244482Y0253481D01*
X0244484Y0253382D01*
X0244482Y0253283D01*
X0244476Y0253183D01*
X0244466Y0253084D01*
X0244452Y0252986D01*
X0244435Y0252888D01*
X0244413Y0252791D01*
X0244388Y0252695D01*
X0244359Y0252600D01*
X0244326Y0252506D01*
X0244289Y0252414D01*
X0244249Y0252323D01*
X0244205Y0252234D01*
X0244157Y0252146D01*
X0244106Y0252061D01*
X0244052Y0251978D01*
X0243995Y0251896D01*
X0243934Y0251818D01*
X0243870Y0251741D01*
X0243804Y0251668D01*
X0243734Y0251597D01*
X0243662Y0251529D01*
X0243587Y0251463D01*
X0243509Y0251401D01*
X0243429Y0251342D01*
X0243347Y0251286D01*
X0243263Y0251234D01*
X0243176Y0251185D01*
X0243088Y0251139D01*
X0242998Y0251097D01*
X0242906Y0251058D01*
X0242813Y0251023D01*
X0242719Y0250992D01*
X0242623Y0250965D01*
X0242526Y0250942D01*
X0242429Y0250922D01*
X0242331Y0250906D01*
X0242232Y0250894D01*
X0242133Y0250886D01*
X0242034Y0250882D01*
X0241934Y0250882D01*
X0241835Y0250886D01*
X0241736Y0250894D01*
X0241637Y0250906D01*
X0241539Y0250922D01*
X0241442Y0250942D01*
X0241345Y0250965D01*
X0241249Y0250992D01*
X0241155Y0251023D01*
X0241062Y0251058D01*
X0240970Y0251097D01*
X0240880Y0251139D01*
X0240792Y0251185D01*
X0240705Y0251234D01*
X0240621Y0251286D01*
X0240539Y0251342D01*
X0240459Y0251401D01*
X0240381Y0251463D01*
X0240306Y0251529D01*
X0240234Y0251597D01*
X0240164Y0251668D01*
X0240098Y0251741D01*
X0240034Y0251818D01*
X0239973Y0251896D01*
X0239916Y0251978D01*
X0239862Y0252061D01*
X0239811Y0252146D01*
X0239763Y0252234D01*
X0239719Y0252323D01*
X0239679Y0252414D01*
X0239642Y0252506D01*
X0239609Y0252600D01*
X0239580Y0252695D01*
X0239555Y0252791D01*
X0239533Y0252888D01*
X0239516Y0252986D01*
X0239502Y0253084D01*
X0239492Y0253183D01*
X0239486Y0253283D01*
X0239484Y0253382D01*
X0249484Y0253382D02*
X0249486Y0253481D01*
X0249492Y0253581D01*
X0249502Y0253680D01*
X0249516Y0253778D01*
X0249533Y0253876D01*
X0249555Y0253973D01*
X0249580Y0254069D01*
X0249609Y0254164D01*
X0249642Y0254258D01*
X0249679Y0254350D01*
X0249719Y0254441D01*
X0249763Y0254530D01*
X0249811Y0254618D01*
X0249862Y0254703D01*
X0249916Y0254786D01*
X0249973Y0254868D01*
X0250034Y0254946D01*
X0250098Y0255023D01*
X0250164Y0255096D01*
X0250234Y0255167D01*
X0250306Y0255235D01*
X0250381Y0255301D01*
X0250459Y0255363D01*
X0250539Y0255422D01*
X0250621Y0255478D01*
X0250705Y0255530D01*
X0250792Y0255579D01*
X0250880Y0255625D01*
X0250970Y0255667D01*
X0251062Y0255706D01*
X0251155Y0255741D01*
X0251249Y0255772D01*
X0251345Y0255799D01*
X0251442Y0255822D01*
X0251539Y0255842D01*
X0251637Y0255858D01*
X0251736Y0255870D01*
X0251835Y0255878D01*
X0251934Y0255882D01*
X0252034Y0255882D01*
X0252133Y0255878D01*
X0252232Y0255870D01*
X0252331Y0255858D01*
X0252429Y0255842D01*
X0252526Y0255822D01*
X0252623Y0255799D01*
X0252719Y0255772D01*
X0252813Y0255741D01*
X0252906Y0255706D01*
X0252998Y0255667D01*
X0253088Y0255625D01*
X0253176Y0255579D01*
X0253263Y0255530D01*
X0253347Y0255478D01*
X0253429Y0255422D01*
X0253509Y0255363D01*
X0253587Y0255301D01*
X0253662Y0255235D01*
X0253734Y0255167D01*
X0253804Y0255096D01*
X0253870Y0255023D01*
X0253934Y0254946D01*
X0253995Y0254868D01*
X0254052Y0254786D01*
X0254106Y0254703D01*
X0254157Y0254618D01*
X0254205Y0254530D01*
X0254249Y0254441D01*
X0254289Y0254350D01*
X0254326Y0254258D01*
X0254359Y0254164D01*
X0254388Y0254069D01*
X0254413Y0253973D01*
X0254435Y0253876D01*
X0254452Y0253778D01*
X0254466Y0253680D01*
X0254476Y0253581D01*
X0254482Y0253481D01*
X0254484Y0253382D01*
X0254482Y0253283D01*
X0254476Y0253183D01*
X0254466Y0253084D01*
X0254452Y0252986D01*
X0254435Y0252888D01*
X0254413Y0252791D01*
X0254388Y0252695D01*
X0254359Y0252600D01*
X0254326Y0252506D01*
X0254289Y0252414D01*
X0254249Y0252323D01*
X0254205Y0252234D01*
X0254157Y0252146D01*
X0254106Y0252061D01*
X0254052Y0251978D01*
X0253995Y0251896D01*
X0253934Y0251818D01*
X0253870Y0251741D01*
X0253804Y0251668D01*
X0253734Y0251597D01*
X0253662Y0251529D01*
X0253587Y0251463D01*
X0253509Y0251401D01*
X0253429Y0251342D01*
X0253347Y0251286D01*
X0253263Y0251234D01*
X0253176Y0251185D01*
X0253088Y0251139D01*
X0252998Y0251097D01*
X0252906Y0251058D01*
X0252813Y0251023D01*
X0252719Y0250992D01*
X0252623Y0250965D01*
X0252526Y0250942D01*
X0252429Y0250922D01*
X0252331Y0250906D01*
X0252232Y0250894D01*
X0252133Y0250886D01*
X0252034Y0250882D01*
X0251934Y0250882D01*
X0251835Y0250886D01*
X0251736Y0250894D01*
X0251637Y0250906D01*
X0251539Y0250922D01*
X0251442Y0250942D01*
X0251345Y0250965D01*
X0251249Y0250992D01*
X0251155Y0251023D01*
X0251062Y0251058D01*
X0250970Y0251097D01*
X0250880Y0251139D01*
X0250792Y0251185D01*
X0250705Y0251234D01*
X0250621Y0251286D01*
X0250539Y0251342D01*
X0250459Y0251401D01*
X0250381Y0251463D01*
X0250306Y0251529D01*
X0250234Y0251597D01*
X0250164Y0251668D01*
X0250098Y0251741D01*
X0250034Y0251818D01*
X0249973Y0251896D01*
X0249916Y0251978D01*
X0249862Y0252061D01*
X0249811Y0252146D01*
X0249763Y0252234D01*
X0249719Y0252323D01*
X0249679Y0252414D01*
X0249642Y0252506D01*
X0249609Y0252600D01*
X0249580Y0252695D01*
X0249555Y0252791D01*
X0249533Y0252888D01*
X0249516Y0252986D01*
X0249502Y0253084D01*
X0249492Y0253183D01*
X0249486Y0253283D01*
X0249484Y0253382D01*
X0259484Y0253382D02*
X0259486Y0253481D01*
X0259492Y0253581D01*
X0259502Y0253680D01*
X0259516Y0253778D01*
X0259533Y0253876D01*
X0259555Y0253973D01*
X0259580Y0254069D01*
X0259609Y0254164D01*
X0259642Y0254258D01*
X0259679Y0254350D01*
X0259719Y0254441D01*
X0259763Y0254530D01*
X0259811Y0254618D01*
X0259862Y0254703D01*
X0259916Y0254786D01*
X0259973Y0254868D01*
X0260034Y0254946D01*
X0260098Y0255023D01*
X0260164Y0255096D01*
X0260234Y0255167D01*
X0260306Y0255235D01*
X0260381Y0255301D01*
X0260459Y0255363D01*
X0260539Y0255422D01*
X0260621Y0255478D01*
X0260705Y0255530D01*
X0260792Y0255579D01*
X0260880Y0255625D01*
X0260970Y0255667D01*
X0261062Y0255706D01*
X0261155Y0255741D01*
X0261249Y0255772D01*
X0261345Y0255799D01*
X0261442Y0255822D01*
X0261539Y0255842D01*
X0261637Y0255858D01*
X0261736Y0255870D01*
X0261835Y0255878D01*
X0261934Y0255882D01*
X0262034Y0255882D01*
X0262133Y0255878D01*
X0262232Y0255870D01*
X0262331Y0255858D01*
X0262429Y0255842D01*
X0262526Y0255822D01*
X0262623Y0255799D01*
X0262719Y0255772D01*
X0262813Y0255741D01*
X0262906Y0255706D01*
X0262998Y0255667D01*
X0263088Y0255625D01*
X0263176Y0255579D01*
X0263263Y0255530D01*
X0263347Y0255478D01*
X0263429Y0255422D01*
X0263509Y0255363D01*
X0263587Y0255301D01*
X0263662Y0255235D01*
X0263734Y0255167D01*
X0263804Y0255096D01*
X0263870Y0255023D01*
X0263934Y0254946D01*
X0263995Y0254868D01*
X0264052Y0254786D01*
X0264106Y0254703D01*
X0264157Y0254618D01*
X0264205Y0254530D01*
X0264249Y0254441D01*
X0264289Y0254350D01*
X0264326Y0254258D01*
X0264359Y0254164D01*
X0264388Y0254069D01*
X0264413Y0253973D01*
X0264435Y0253876D01*
X0264452Y0253778D01*
X0264466Y0253680D01*
X0264476Y0253581D01*
X0264482Y0253481D01*
X0264484Y0253382D01*
X0264482Y0253283D01*
X0264476Y0253183D01*
X0264466Y0253084D01*
X0264452Y0252986D01*
X0264435Y0252888D01*
X0264413Y0252791D01*
X0264388Y0252695D01*
X0264359Y0252600D01*
X0264326Y0252506D01*
X0264289Y0252414D01*
X0264249Y0252323D01*
X0264205Y0252234D01*
X0264157Y0252146D01*
X0264106Y0252061D01*
X0264052Y0251978D01*
X0263995Y0251896D01*
X0263934Y0251818D01*
X0263870Y0251741D01*
X0263804Y0251668D01*
X0263734Y0251597D01*
X0263662Y0251529D01*
X0263587Y0251463D01*
X0263509Y0251401D01*
X0263429Y0251342D01*
X0263347Y0251286D01*
X0263263Y0251234D01*
X0263176Y0251185D01*
X0263088Y0251139D01*
X0262998Y0251097D01*
X0262906Y0251058D01*
X0262813Y0251023D01*
X0262719Y0250992D01*
X0262623Y0250965D01*
X0262526Y0250942D01*
X0262429Y0250922D01*
X0262331Y0250906D01*
X0262232Y0250894D01*
X0262133Y0250886D01*
X0262034Y0250882D01*
X0261934Y0250882D01*
X0261835Y0250886D01*
X0261736Y0250894D01*
X0261637Y0250906D01*
X0261539Y0250922D01*
X0261442Y0250942D01*
X0261345Y0250965D01*
X0261249Y0250992D01*
X0261155Y0251023D01*
X0261062Y0251058D01*
X0260970Y0251097D01*
X0260880Y0251139D01*
X0260792Y0251185D01*
X0260705Y0251234D01*
X0260621Y0251286D01*
X0260539Y0251342D01*
X0260459Y0251401D01*
X0260381Y0251463D01*
X0260306Y0251529D01*
X0260234Y0251597D01*
X0260164Y0251668D01*
X0260098Y0251741D01*
X0260034Y0251818D01*
X0259973Y0251896D01*
X0259916Y0251978D01*
X0259862Y0252061D01*
X0259811Y0252146D01*
X0259763Y0252234D01*
X0259719Y0252323D01*
X0259679Y0252414D01*
X0259642Y0252506D01*
X0259609Y0252600D01*
X0259580Y0252695D01*
X0259555Y0252791D01*
X0259533Y0252888D01*
X0259516Y0252986D01*
X0259502Y0253084D01*
X0259492Y0253183D01*
X0259486Y0253283D01*
X0259484Y0253382D01*
X0269484Y0253382D02*
X0269486Y0253481D01*
X0269492Y0253581D01*
X0269502Y0253680D01*
X0269516Y0253778D01*
X0269533Y0253876D01*
X0269555Y0253973D01*
X0269580Y0254069D01*
X0269609Y0254164D01*
X0269642Y0254258D01*
X0269679Y0254350D01*
X0269719Y0254441D01*
X0269763Y0254530D01*
X0269811Y0254618D01*
X0269862Y0254703D01*
X0269916Y0254786D01*
X0269973Y0254868D01*
X0270034Y0254946D01*
X0270098Y0255023D01*
X0270164Y0255096D01*
X0270234Y0255167D01*
X0270306Y0255235D01*
X0270381Y0255301D01*
X0270459Y0255363D01*
X0270539Y0255422D01*
X0270621Y0255478D01*
X0270705Y0255530D01*
X0270792Y0255579D01*
X0270880Y0255625D01*
X0270970Y0255667D01*
X0271062Y0255706D01*
X0271155Y0255741D01*
X0271249Y0255772D01*
X0271345Y0255799D01*
X0271442Y0255822D01*
X0271539Y0255842D01*
X0271637Y0255858D01*
X0271736Y0255870D01*
X0271835Y0255878D01*
X0271934Y0255882D01*
X0272034Y0255882D01*
X0272133Y0255878D01*
X0272232Y0255870D01*
X0272331Y0255858D01*
X0272429Y0255842D01*
X0272526Y0255822D01*
X0272623Y0255799D01*
X0272719Y0255772D01*
X0272813Y0255741D01*
X0272906Y0255706D01*
X0272998Y0255667D01*
X0273088Y0255625D01*
X0273176Y0255579D01*
X0273263Y0255530D01*
X0273347Y0255478D01*
X0273429Y0255422D01*
X0273509Y0255363D01*
X0273587Y0255301D01*
X0273662Y0255235D01*
X0273734Y0255167D01*
X0273804Y0255096D01*
X0273870Y0255023D01*
X0273934Y0254946D01*
X0273995Y0254868D01*
X0274052Y0254786D01*
X0274106Y0254703D01*
X0274157Y0254618D01*
X0274205Y0254530D01*
X0274249Y0254441D01*
X0274289Y0254350D01*
X0274326Y0254258D01*
X0274359Y0254164D01*
X0274388Y0254069D01*
X0274413Y0253973D01*
X0274435Y0253876D01*
X0274452Y0253778D01*
X0274466Y0253680D01*
X0274476Y0253581D01*
X0274482Y0253481D01*
X0274484Y0253382D01*
X0274482Y0253283D01*
X0274476Y0253183D01*
X0274466Y0253084D01*
X0274452Y0252986D01*
X0274435Y0252888D01*
X0274413Y0252791D01*
X0274388Y0252695D01*
X0274359Y0252600D01*
X0274326Y0252506D01*
X0274289Y0252414D01*
X0274249Y0252323D01*
X0274205Y0252234D01*
X0274157Y0252146D01*
X0274106Y0252061D01*
X0274052Y0251978D01*
X0273995Y0251896D01*
X0273934Y0251818D01*
X0273870Y0251741D01*
X0273804Y0251668D01*
X0273734Y0251597D01*
X0273662Y0251529D01*
X0273587Y0251463D01*
X0273509Y0251401D01*
X0273429Y0251342D01*
X0273347Y0251286D01*
X0273263Y0251234D01*
X0273176Y0251185D01*
X0273088Y0251139D01*
X0272998Y0251097D01*
X0272906Y0251058D01*
X0272813Y0251023D01*
X0272719Y0250992D01*
X0272623Y0250965D01*
X0272526Y0250942D01*
X0272429Y0250922D01*
X0272331Y0250906D01*
X0272232Y0250894D01*
X0272133Y0250886D01*
X0272034Y0250882D01*
X0271934Y0250882D01*
X0271835Y0250886D01*
X0271736Y0250894D01*
X0271637Y0250906D01*
X0271539Y0250922D01*
X0271442Y0250942D01*
X0271345Y0250965D01*
X0271249Y0250992D01*
X0271155Y0251023D01*
X0271062Y0251058D01*
X0270970Y0251097D01*
X0270880Y0251139D01*
X0270792Y0251185D01*
X0270705Y0251234D01*
X0270621Y0251286D01*
X0270539Y0251342D01*
X0270459Y0251401D01*
X0270381Y0251463D01*
X0270306Y0251529D01*
X0270234Y0251597D01*
X0270164Y0251668D01*
X0270098Y0251741D01*
X0270034Y0251818D01*
X0269973Y0251896D01*
X0269916Y0251978D01*
X0269862Y0252061D01*
X0269811Y0252146D01*
X0269763Y0252234D01*
X0269719Y0252323D01*
X0269679Y0252414D01*
X0269642Y0252506D01*
X0269609Y0252600D01*
X0269580Y0252695D01*
X0269555Y0252791D01*
X0269533Y0252888D01*
X0269516Y0252986D01*
X0269502Y0253084D01*
X0269492Y0253183D01*
X0269486Y0253283D01*
X0269484Y0253382D01*
X0279484Y0253382D02*
X0279486Y0253481D01*
X0279492Y0253581D01*
X0279502Y0253680D01*
X0279516Y0253778D01*
X0279533Y0253876D01*
X0279555Y0253973D01*
X0279580Y0254069D01*
X0279609Y0254164D01*
X0279642Y0254258D01*
X0279679Y0254350D01*
X0279719Y0254441D01*
X0279763Y0254530D01*
X0279811Y0254618D01*
X0279862Y0254703D01*
X0279916Y0254786D01*
X0279973Y0254868D01*
X0280034Y0254946D01*
X0280098Y0255023D01*
X0280164Y0255096D01*
X0280234Y0255167D01*
X0280306Y0255235D01*
X0280381Y0255301D01*
X0280459Y0255363D01*
X0280539Y0255422D01*
X0280621Y0255478D01*
X0280705Y0255530D01*
X0280792Y0255579D01*
X0280880Y0255625D01*
X0280970Y0255667D01*
X0281062Y0255706D01*
X0281155Y0255741D01*
X0281249Y0255772D01*
X0281345Y0255799D01*
X0281442Y0255822D01*
X0281539Y0255842D01*
X0281637Y0255858D01*
X0281736Y0255870D01*
X0281835Y0255878D01*
X0281934Y0255882D01*
X0282034Y0255882D01*
X0282133Y0255878D01*
X0282232Y0255870D01*
X0282331Y0255858D01*
X0282429Y0255842D01*
X0282526Y0255822D01*
X0282623Y0255799D01*
X0282719Y0255772D01*
X0282813Y0255741D01*
X0282906Y0255706D01*
X0282998Y0255667D01*
X0283088Y0255625D01*
X0283176Y0255579D01*
X0283263Y0255530D01*
X0283347Y0255478D01*
X0283429Y0255422D01*
X0283509Y0255363D01*
X0283587Y0255301D01*
X0283662Y0255235D01*
X0283734Y0255167D01*
X0283804Y0255096D01*
X0283870Y0255023D01*
X0283934Y0254946D01*
X0283995Y0254868D01*
X0284052Y0254786D01*
X0284106Y0254703D01*
X0284157Y0254618D01*
X0284205Y0254530D01*
X0284249Y0254441D01*
X0284289Y0254350D01*
X0284326Y0254258D01*
X0284359Y0254164D01*
X0284388Y0254069D01*
X0284413Y0253973D01*
X0284435Y0253876D01*
X0284452Y0253778D01*
X0284466Y0253680D01*
X0284476Y0253581D01*
X0284482Y0253481D01*
X0284484Y0253382D01*
X0284482Y0253283D01*
X0284476Y0253183D01*
X0284466Y0253084D01*
X0284452Y0252986D01*
X0284435Y0252888D01*
X0284413Y0252791D01*
X0284388Y0252695D01*
X0284359Y0252600D01*
X0284326Y0252506D01*
X0284289Y0252414D01*
X0284249Y0252323D01*
X0284205Y0252234D01*
X0284157Y0252146D01*
X0284106Y0252061D01*
X0284052Y0251978D01*
X0283995Y0251896D01*
X0283934Y0251818D01*
X0283870Y0251741D01*
X0283804Y0251668D01*
X0283734Y0251597D01*
X0283662Y0251529D01*
X0283587Y0251463D01*
X0283509Y0251401D01*
X0283429Y0251342D01*
X0283347Y0251286D01*
X0283263Y0251234D01*
X0283176Y0251185D01*
X0283088Y0251139D01*
X0282998Y0251097D01*
X0282906Y0251058D01*
X0282813Y0251023D01*
X0282719Y0250992D01*
X0282623Y0250965D01*
X0282526Y0250942D01*
X0282429Y0250922D01*
X0282331Y0250906D01*
X0282232Y0250894D01*
X0282133Y0250886D01*
X0282034Y0250882D01*
X0281934Y0250882D01*
X0281835Y0250886D01*
X0281736Y0250894D01*
X0281637Y0250906D01*
X0281539Y0250922D01*
X0281442Y0250942D01*
X0281345Y0250965D01*
X0281249Y0250992D01*
X0281155Y0251023D01*
X0281062Y0251058D01*
X0280970Y0251097D01*
X0280880Y0251139D01*
X0280792Y0251185D01*
X0280705Y0251234D01*
X0280621Y0251286D01*
X0280539Y0251342D01*
X0280459Y0251401D01*
X0280381Y0251463D01*
X0280306Y0251529D01*
X0280234Y0251597D01*
X0280164Y0251668D01*
X0280098Y0251741D01*
X0280034Y0251818D01*
X0279973Y0251896D01*
X0279916Y0251978D01*
X0279862Y0252061D01*
X0279811Y0252146D01*
X0279763Y0252234D01*
X0279719Y0252323D01*
X0279679Y0252414D01*
X0279642Y0252506D01*
X0279609Y0252600D01*
X0279580Y0252695D01*
X0279555Y0252791D01*
X0279533Y0252888D01*
X0279516Y0252986D01*
X0279502Y0253084D01*
X0279492Y0253183D01*
X0279486Y0253283D01*
X0279484Y0253382D01*
X0311984Y0250882D02*
X0316984Y0250882D01*
X0316984Y0220882D01*
X0311984Y0220882D01*
D11*
X0309484Y0220882D02*
X0309484Y0215882D01*
X0304484Y0215882D01*
X0304484Y0220882D01*
X0301984Y0223382D02*
X0300153Y0223382D01*
X0299113Y0223939D02*
X0296984Y0227132D01*
X0296984Y0228382D02*
X0291984Y0228382D01*
X0291984Y0223382D01*
X0296984Y0223382D01*
X0299113Y0223939D02*
X0299152Y0223883D01*
X0299195Y0223829D01*
X0299240Y0223778D01*
X0299288Y0223730D01*
X0299338Y0223684D01*
X0299391Y0223641D01*
X0299447Y0223601D01*
X0299504Y0223564D01*
X0299563Y0223530D01*
X0299624Y0223499D01*
X0299687Y0223472D01*
X0299751Y0223448D01*
X0299816Y0223428D01*
X0299882Y0223412D01*
X0299949Y0223399D01*
X0300017Y0223389D01*
X0300085Y0223384D01*
X0300153Y0223382D01*
X0301984Y0223382D02*
X0301984Y0230882D01*
X0296984Y0230882D01*
X0291984Y0230882D01*
X0291984Y0233382D02*
X0296984Y0233382D01*
X0296984Y0235882D02*
X0291984Y0235882D01*
X0291984Y0238382D02*
X0296984Y0238382D01*
X0296984Y0240882D02*
X0291984Y0240882D01*
X0291984Y0243382D02*
X0291984Y0248382D01*
X0296984Y0248382D01*
X0299113Y0247825D02*
X0296984Y0244632D01*
X0296984Y0243382D02*
X0291984Y0243382D01*
X0296984Y0240882D02*
X0301984Y0240882D01*
X0301984Y0248382D01*
X0300153Y0248382D01*
X0300085Y0248380D01*
X0300017Y0248375D01*
X0299949Y0248365D01*
X0299882Y0248352D01*
X0299816Y0248336D01*
X0299751Y0248316D01*
X0299687Y0248292D01*
X0299624Y0248265D01*
X0299563Y0248234D01*
X0299504Y0248200D01*
X0299447Y0248163D01*
X0299391Y0248123D01*
X0299338Y0248080D01*
X0299288Y0248034D01*
X0299240Y0247986D01*
X0299195Y0247935D01*
X0299152Y0247881D01*
X0299113Y0247825D01*
X0304484Y0250882D02*
X0304484Y0255882D01*
X0309484Y0255882D01*
X0309484Y0250882D01*
X0308234Y0248382D02*
X0314484Y0248382D01*
X0314484Y0243382D01*
X0308234Y0243382D01*
X0308166Y0243384D01*
X0308099Y0243389D01*
X0308032Y0243398D01*
X0307965Y0243411D01*
X0307900Y0243428D01*
X0307835Y0243447D01*
X0307771Y0243471D01*
X0307709Y0243498D01*
X0307648Y0243528D01*
X0307590Y0243561D01*
X0307533Y0243597D01*
X0307478Y0243637D01*
X0307425Y0243679D01*
X0307374Y0243725D01*
X0307327Y0243772D01*
X0307281Y0243823D01*
X0307239Y0243876D01*
X0307199Y0243931D01*
X0307163Y0243988D01*
X0307130Y0244046D01*
X0307100Y0244107D01*
X0307073Y0244169D01*
X0307049Y0244233D01*
X0307030Y0244298D01*
X0307013Y0244363D01*
X0307000Y0244430D01*
X0306991Y0244497D01*
X0306986Y0244564D01*
X0306984Y0244632D01*
X0306984Y0247132D01*
X0306986Y0247200D01*
X0306991Y0247267D01*
X0307000Y0247334D01*
X0307013Y0247401D01*
X0307030Y0247466D01*
X0307049Y0247531D01*
X0307073Y0247595D01*
X0307100Y0247657D01*
X0307130Y0247718D01*
X0307163Y0247776D01*
X0307199Y0247833D01*
X0307239Y0247888D01*
X0307281Y0247941D01*
X0307327Y0247992D01*
X0307374Y0248039D01*
X0307425Y0248085D01*
X0307478Y0248127D01*
X0307533Y0248167D01*
X0307590Y0248203D01*
X0307648Y0248236D01*
X0307709Y0248266D01*
X0307771Y0248293D01*
X0307835Y0248317D01*
X0307900Y0248336D01*
X0307965Y0248353D01*
X0308032Y0248366D01*
X0308099Y0248375D01*
X0308166Y0248380D01*
X0308234Y0248382D01*
X0308234Y0228382D02*
X0314484Y0228382D01*
X0314484Y0223382D01*
X0308234Y0223382D01*
X0308166Y0223384D01*
X0308099Y0223389D01*
X0308032Y0223398D01*
X0307965Y0223411D01*
X0307900Y0223428D01*
X0307835Y0223447D01*
X0307771Y0223471D01*
X0307709Y0223498D01*
X0307648Y0223528D01*
X0307590Y0223561D01*
X0307533Y0223597D01*
X0307478Y0223637D01*
X0307425Y0223679D01*
X0307374Y0223725D01*
X0307327Y0223772D01*
X0307281Y0223823D01*
X0307239Y0223876D01*
X0307199Y0223931D01*
X0307163Y0223988D01*
X0307130Y0224046D01*
X0307100Y0224107D01*
X0307073Y0224169D01*
X0307049Y0224233D01*
X0307030Y0224298D01*
X0307013Y0224363D01*
X0307000Y0224430D01*
X0306991Y0224497D01*
X0306986Y0224564D01*
X0306984Y0224632D01*
X0306984Y0227132D01*
X0306986Y0227200D01*
X0306991Y0227267D01*
X0307000Y0227334D01*
X0307013Y0227401D01*
X0307030Y0227466D01*
X0307049Y0227531D01*
X0307073Y0227595D01*
X0307100Y0227657D01*
X0307130Y0227718D01*
X0307163Y0227776D01*
X0307199Y0227833D01*
X0307239Y0227888D01*
X0307281Y0227941D01*
X0307327Y0227992D01*
X0307374Y0228039D01*
X0307425Y0228085D01*
X0307478Y0228127D01*
X0307533Y0228167D01*
X0307590Y0228203D01*
X0307648Y0228236D01*
X0307709Y0228266D01*
X0307771Y0228293D01*
X0307835Y0228317D01*
X0307900Y0228336D01*
X0307965Y0228353D01*
X0308032Y0228366D01*
X0308099Y0228375D01*
X0308166Y0228380D01*
X0308234Y0228382D01*
X0286984Y0248382D02*
X0286984Y0258382D01*
X0276984Y0258382D01*
X0276984Y0248382D01*
X0236984Y0248382D01*
X0236984Y0258382D01*
X0276984Y0258382D01*
X0276984Y0248382D02*
X0286984Y0248382D01*
X0249484Y0239882D02*
X0249484Y0231882D01*
X0249482Y0231822D01*
X0249477Y0231761D01*
X0249468Y0231702D01*
X0249455Y0231643D01*
X0249439Y0231584D01*
X0249419Y0231527D01*
X0249396Y0231472D01*
X0249369Y0231417D01*
X0249340Y0231365D01*
X0249307Y0231314D01*
X0249271Y0231265D01*
X0249233Y0231219D01*
X0249191Y0231175D01*
X0249147Y0231133D01*
X0249101Y0231095D01*
X0249052Y0231059D01*
X0249001Y0231026D01*
X0248949Y0230997D01*
X0248894Y0230970D01*
X0248839Y0230947D01*
X0248782Y0230927D01*
X0248723Y0230911D01*
X0248664Y0230898D01*
X0248605Y0230889D01*
X0248544Y0230884D01*
X0248484Y0230882D01*
X0240484Y0230882D01*
X0240424Y0230884D01*
X0240363Y0230889D01*
X0240304Y0230898D01*
X0240245Y0230911D01*
X0240186Y0230927D01*
X0240129Y0230947D01*
X0240074Y0230970D01*
X0240019Y0230997D01*
X0239967Y0231026D01*
X0239916Y0231059D01*
X0239867Y0231095D01*
X0239821Y0231133D01*
X0239777Y0231175D01*
X0239735Y0231219D01*
X0239697Y0231265D01*
X0239661Y0231314D01*
X0239628Y0231365D01*
X0239599Y0231417D01*
X0239572Y0231472D01*
X0239549Y0231527D01*
X0239529Y0231584D01*
X0239513Y0231643D01*
X0239500Y0231702D01*
X0239491Y0231761D01*
X0239486Y0231822D01*
X0239484Y0231882D01*
X0239484Y0239882D01*
X0239486Y0239942D01*
X0239491Y0240003D01*
X0239500Y0240062D01*
X0239513Y0240121D01*
X0239529Y0240180D01*
X0239549Y0240237D01*
X0239572Y0240292D01*
X0239599Y0240347D01*
X0239628Y0240399D01*
X0239661Y0240450D01*
X0239697Y0240499D01*
X0239735Y0240545D01*
X0239777Y0240589D01*
X0239821Y0240631D01*
X0239867Y0240669D01*
X0239916Y0240705D01*
X0239967Y0240738D01*
X0240019Y0240767D01*
X0240074Y0240794D01*
X0240129Y0240817D01*
X0240186Y0240837D01*
X0240245Y0240853D01*
X0240304Y0240866D01*
X0240363Y0240875D01*
X0240424Y0240880D01*
X0240484Y0240882D01*
X0248484Y0240882D01*
X0248544Y0240880D01*
X0248605Y0240875D01*
X0248664Y0240866D01*
X0248723Y0240853D01*
X0248782Y0240837D01*
X0248839Y0240817D01*
X0248894Y0240794D01*
X0248949Y0240767D01*
X0249001Y0240738D01*
X0249052Y0240705D01*
X0249101Y0240669D01*
X0249147Y0240631D01*
X0249191Y0240589D01*
X0249233Y0240545D01*
X0249271Y0240499D01*
X0249307Y0240450D01*
X0249340Y0240399D01*
X0249369Y0240347D01*
X0249396Y0240292D01*
X0249419Y0240237D01*
X0249439Y0240180D01*
X0249455Y0240121D01*
X0249468Y0240062D01*
X0249477Y0240003D01*
X0249482Y0239942D01*
X0249484Y0239882D01*
X0230734Y0248382D02*
X0229484Y0248382D01*
X0229484Y0250882D01*
X0230734Y0250882D01*
X0229484Y0250882D02*
X0229484Y0253382D01*
X0230734Y0253382D01*
X0229484Y0253382D02*
X0229484Y0255882D01*
X0230734Y0255882D01*
X0229484Y0255882D02*
X0229484Y0257382D01*
X0229482Y0257442D01*
X0229477Y0257503D01*
X0229468Y0257562D01*
X0229455Y0257621D01*
X0229439Y0257680D01*
X0229419Y0257737D01*
X0229396Y0257792D01*
X0229369Y0257847D01*
X0229340Y0257899D01*
X0229307Y0257950D01*
X0229271Y0257999D01*
X0229233Y0258045D01*
X0229191Y0258089D01*
X0229147Y0258131D01*
X0229101Y0258169D01*
X0229052Y0258205D01*
X0229001Y0258238D01*
X0228949Y0258267D01*
X0228894Y0258294D01*
X0228839Y0258317D01*
X0228782Y0258337D01*
X0228723Y0258353D01*
X0228664Y0258366D01*
X0228605Y0258375D01*
X0228544Y0258380D01*
X0228484Y0258382D01*
X0226984Y0258382D01*
X0226984Y0259632D01*
X0226984Y0258382D02*
X0224484Y0258382D01*
X0224484Y0259632D01*
X0224484Y0258382D02*
X0221984Y0258382D01*
X0221984Y0259632D01*
X0221984Y0258382D02*
X0219484Y0258382D01*
X0219484Y0259632D01*
X0219484Y0258382D02*
X0217984Y0258382D01*
X0217924Y0258380D01*
X0217863Y0258375D01*
X0217804Y0258366D01*
X0217745Y0258353D01*
X0217686Y0258337D01*
X0217629Y0258317D01*
X0217574Y0258294D01*
X0217519Y0258267D01*
X0217467Y0258238D01*
X0217416Y0258205D01*
X0217367Y0258169D01*
X0217321Y0258131D01*
X0217277Y0258089D01*
X0217235Y0258045D01*
X0217197Y0257999D01*
X0217161Y0257950D01*
X0217128Y0257899D01*
X0217099Y0257847D01*
X0217072Y0257792D01*
X0217049Y0257737D01*
X0217029Y0257680D01*
X0217013Y0257621D01*
X0217000Y0257562D01*
X0216991Y0257503D01*
X0216986Y0257442D01*
X0216984Y0257382D01*
X0216984Y0255882D01*
X0215734Y0255882D01*
X0216984Y0255882D02*
X0216984Y0253382D01*
X0215734Y0253382D01*
X0216984Y0253382D02*
X0216984Y0250882D01*
X0215734Y0250882D01*
X0216984Y0250882D02*
X0216984Y0248382D01*
X0215734Y0248382D01*
X0216984Y0248382D02*
X0216984Y0246882D01*
X0216986Y0246822D01*
X0216991Y0246761D01*
X0217000Y0246702D01*
X0217013Y0246643D01*
X0217029Y0246584D01*
X0217049Y0246527D01*
X0217072Y0246472D01*
X0217099Y0246417D01*
X0217128Y0246365D01*
X0217161Y0246314D01*
X0217197Y0246265D01*
X0217235Y0246219D01*
X0217277Y0246175D01*
X0217321Y0246133D01*
X0217367Y0246095D01*
X0217416Y0246059D01*
X0217467Y0246026D01*
X0217519Y0245997D01*
X0217574Y0245970D01*
X0217629Y0245947D01*
X0217686Y0245927D01*
X0217745Y0245911D01*
X0217804Y0245898D01*
X0217863Y0245889D01*
X0217924Y0245884D01*
X0217984Y0245882D01*
X0219484Y0245882D01*
X0219484Y0244632D01*
X0219484Y0245882D02*
X0221984Y0245882D01*
X0221984Y0244632D01*
X0221984Y0245882D02*
X0224484Y0245882D01*
X0224484Y0244632D01*
X0224484Y0245882D02*
X0226984Y0245882D01*
X0226984Y0244632D01*
X0226984Y0245882D02*
X0228484Y0245882D01*
X0228544Y0245884D01*
X0228605Y0245889D01*
X0228664Y0245898D01*
X0228723Y0245911D01*
X0228782Y0245927D01*
X0228839Y0245947D01*
X0228894Y0245970D01*
X0228949Y0245997D01*
X0229001Y0246026D01*
X0229052Y0246059D01*
X0229101Y0246095D01*
X0229147Y0246133D01*
X0229191Y0246175D01*
X0229233Y0246219D01*
X0229271Y0246265D01*
X0229307Y0246314D01*
X0229340Y0246365D01*
X0229369Y0246417D01*
X0229396Y0246472D01*
X0229419Y0246527D01*
X0229439Y0246584D01*
X0229455Y0246643D01*
X0229468Y0246702D01*
X0229477Y0246761D01*
X0229482Y0246822D01*
X0229484Y0246882D01*
X0229484Y0248382D01*
X0222890Y0289425D02*
X0132339Y0289425D01*
X0132339Y0387850D01*
X0222890Y0387850D01*
X0222890Y0289425D01*
X0209071Y0290213D02*
X0209071Y0396748D01*
X0146157Y0396748D01*
X0146157Y0290213D01*
X0118234Y0257132D02*
X0111984Y0257132D01*
X0118234Y0257132D02*
X0118234Y0250882D01*
X0117234Y0247132D02*
X0112984Y0247132D01*
X0112924Y0247130D01*
X0112863Y0247125D01*
X0112804Y0247116D01*
X0112745Y0247103D01*
X0112686Y0247087D01*
X0112629Y0247067D01*
X0112574Y0247044D01*
X0112519Y0247017D01*
X0112467Y0246988D01*
X0112416Y0246955D01*
X0112367Y0246919D01*
X0112321Y0246881D01*
X0112277Y0246839D01*
X0112235Y0246795D01*
X0112197Y0246749D01*
X0112161Y0246700D01*
X0112128Y0246649D01*
X0112099Y0246597D01*
X0112072Y0246542D01*
X0112049Y0246487D01*
X0112029Y0246430D01*
X0112013Y0246371D01*
X0112000Y0246312D01*
X0111991Y0246253D01*
X0111986Y0246192D01*
X0111984Y0246132D01*
X0111984Y0244382D01*
X0111986Y0244322D01*
X0111991Y0244261D01*
X0112000Y0244202D01*
X0112013Y0244143D01*
X0112029Y0244084D01*
X0112049Y0244027D01*
X0112072Y0243972D01*
X0112099Y0243917D01*
X0112128Y0243865D01*
X0112161Y0243814D01*
X0112197Y0243765D01*
X0112235Y0243719D01*
X0112277Y0243675D01*
X0112321Y0243633D01*
X0112367Y0243595D01*
X0112416Y0243559D01*
X0112467Y0243526D01*
X0112519Y0243497D01*
X0112574Y0243470D01*
X0112629Y0243447D01*
X0112686Y0243427D01*
X0112745Y0243411D01*
X0112804Y0243398D01*
X0112863Y0243389D01*
X0112924Y0243384D01*
X0112984Y0243382D01*
X0117234Y0243382D01*
X0117294Y0243384D01*
X0117355Y0243389D01*
X0117414Y0243398D01*
X0117473Y0243411D01*
X0117532Y0243427D01*
X0117589Y0243447D01*
X0117644Y0243470D01*
X0117699Y0243497D01*
X0117751Y0243526D01*
X0117802Y0243559D01*
X0117851Y0243595D01*
X0117897Y0243633D01*
X0117941Y0243675D01*
X0117983Y0243719D01*
X0118021Y0243765D01*
X0118057Y0243814D01*
X0118090Y0243865D01*
X0118119Y0243917D01*
X0118146Y0243972D01*
X0118169Y0244027D01*
X0118189Y0244084D01*
X0118205Y0244143D01*
X0118218Y0244202D01*
X0118227Y0244261D01*
X0118232Y0244322D01*
X0118234Y0244382D01*
X0118234Y0246132D01*
X0118232Y0246192D01*
X0118227Y0246253D01*
X0118218Y0246312D01*
X0118205Y0246371D01*
X0118189Y0246430D01*
X0118169Y0246487D01*
X0118146Y0246542D01*
X0118119Y0246597D01*
X0118090Y0246649D01*
X0118057Y0246700D01*
X0118021Y0246749D01*
X0117983Y0246795D01*
X0117941Y0246839D01*
X0117897Y0246881D01*
X0117851Y0246919D01*
X0117802Y0246955D01*
X0117751Y0246988D01*
X0117699Y0247017D01*
X0117644Y0247044D01*
X0117589Y0247067D01*
X0117532Y0247087D01*
X0117473Y0247103D01*
X0117414Y0247116D01*
X0117355Y0247125D01*
X0117294Y0247130D01*
X0117234Y0247132D01*
X0131984Y0244882D02*
X0131984Y0226882D01*
X0131986Y0226822D01*
X0131991Y0226761D01*
X0132000Y0226702D01*
X0132013Y0226643D01*
X0132029Y0226584D01*
X0132049Y0226527D01*
X0132072Y0226472D01*
X0132099Y0226417D01*
X0132128Y0226365D01*
X0132161Y0226314D01*
X0132197Y0226265D01*
X0132235Y0226219D01*
X0132277Y0226175D01*
X0132321Y0226133D01*
X0132367Y0226095D01*
X0132416Y0226059D01*
X0132467Y0226026D01*
X0132519Y0225997D01*
X0132574Y0225970D01*
X0132629Y0225947D01*
X0132686Y0225927D01*
X0132745Y0225911D01*
X0132804Y0225898D01*
X0132863Y0225889D01*
X0132924Y0225884D01*
X0132984Y0225882D01*
X0145984Y0225882D01*
X0146044Y0225884D01*
X0146105Y0225889D01*
X0146164Y0225898D01*
X0146223Y0225911D01*
X0146282Y0225927D01*
X0146339Y0225947D01*
X0146394Y0225970D01*
X0146449Y0225997D01*
X0146501Y0226026D01*
X0146552Y0226059D01*
X0146601Y0226095D01*
X0146647Y0226133D01*
X0146691Y0226175D01*
X0146733Y0226219D01*
X0146771Y0226265D01*
X0146807Y0226314D01*
X0146840Y0226365D01*
X0146869Y0226417D01*
X0146896Y0226472D01*
X0146919Y0226527D01*
X0146939Y0226584D01*
X0146955Y0226643D01*
X0146968Y0226702D01*
X0146977Y0226761D01*
X0146982Y0226822D01*
X0146984Y0226882D01*
X0146984Y0244882D01*
X0146982Y0244942D01*
X0146977Y0245003D01*
X0146968Y0245062D01*
X0146955Y0245121D01*
X0146939Y0245180D01*
X0146919Y0245237D01*
X0146896Y0245292D01*
X0146869Y0245347D01*
X0146840Y0245399D01*
X0146807Y0245450D01*
X0146771Y0245499D01*
X0146733Y0245545D01*
X0146691Y0245589D01*
X0146647Y0245631D01*
X0146601Y0245669D01*
X0146552Y0245705D01*
X0146501Y0245738D01*
X0146449Y0245767D01*
X0146394Y0245794D01*
X0146339Y0245817D01*
X0146282Y0245837D01*
X0146223Y0245853D01*
X0146164Y0245866D01*
X0146105Y0245875D01*
X0146044Y0245880D01*
X0145984Y0245882D01*
X0132984Y0245882D01*
X0132924Y0245880D01*
X0132863Y0245875D01*
X0132804Y0245866D01*
X0132745Y0245853D01*
X0132686Y0245837D01*
X0132629Y0245817D01*
X0132574Y0245794D01*
X0132519Y0245767D01*
X0132467Y0245738D01*
X0132416Y0245705D01*
X0132367Y0245669D01*
X0132321Y0245631D01*
X0132277Y0245589D01*
X0132235Y0245545D01*
X0132197Y0245499D01*
X0132161Y0245450D01*
X0132128Y0245399D01*
X0132099Y0245347D01*
X0132072Y0245292D01*
X0132049Y0245237D01*
X0132029Y0245180D01*
X0132013Y0245121D01*
X0132000Y0245062D01*
X0131991Y0245003D01*
X0131986Y0244942D01*
X0131984Y0244882D01*
X0121984Y0215882D02*
X0121984Y0211882D01*
X0121982Y0211822D01*
X0121977Y0211761D01*
X0121968Y0211702D01*
X0121955Y0211643D01*
X0121939Y0211584D01*
X0121919Y0211527D01*
X0121896Y0211472D01*
X0121869Y0211417D01*
X0121840Y0211365D01*
X0121807Y0211314D01*
X0121771Y0211265D01*
X0121733Y0211219D01*
X0121691Y0211175D01*
X0121647Y0211133D01*
X0121601Y0211095D01*
X0121552Y0211059D01*
X0121501Y0211026D01*
X0121449Y0210997D01*
X0121394Y0210970D01*
X0121339Y0210947D01*
X0121282Y0210927D01*
X0121223Y0210911D01*
X0121164Y0210898D01*
X0121105Y0210889D01*
X0121044Y0210884D01*
X0120984Y0210882D01*
X0111984Y0210882D01*
X0104484Y0210882D02*
X0096984Y0210882D01*
X0088234Y0210882D02*
X0088234Y0214632D01*
X0088232Y0214700D01*
X0088227Y0214767D01*
X0088218Y0214834D01*
X0088205Y0214901D01*
X0088188Y0214966D01*
X0088169Y0215031D01*
X0088145Y0215095D01*
X0088118Y0215157D01*
X0088088Y0215218D01*
X0088055Y0215276D01*
X0088019Y0215333D01*
X0087979Y0215388D01*
X0087937Y0215441D01*
X0087891Y0215492D01*
X0087844Y0215539D01*
X0087793Y0215585D01*
X0087740Y0215627D01*
X0087685Y0215667D01*
X0087628Y0215703D01*
X0087570Y0215736D01*
X0087509Y0215766D01*
X0087447Y0215793D01*
X0087383Y0215817D01*
X0087318Y0215836D01*
X0087253Y0215853D01*
X0087186Y0215866D01*
X0087119Y0215875D01*
X0087052Y0215880D01*
X0086984Y0215882D01*
X0083234Y0215882D01*
X0083234Y0214632D01*
X0083232Y0214564D01*
X0083227Y0214497D01*
X0083218Y0214430D01*
X0083205Y0214363D01*
X0083188Y0214298D01*
X0083169Y0214233D01*
X0083145Y0214169D01*
X0083118Y0214107D01*
X0083088Y0214046D01*
X0083055Y0213988D01*
X0083019Y0213931D01*
X0082979Y0213876D01*
X0082937Y0213823D01*
X0082891Y0213772D01*
X0082844Y0213725D01*
X0082793Y0213679D01*
X0082740Y0213637D01*
X0082685Y0213597D01*
X0082628Y0213561D01*
X0082570Y0213528D01*
X0082509Y0213498D01*
X0082447Y0213471D01*
X0082383Y0213447D01*
X0082318Y0213428D01*
X0082253Y0213411D01*
X0082186Y0213398D01*
X0082119Y0213389D01*
X0082052Y0213384D01*
X0081984Y0213382D01*
X0080734Y0213382D01*
X0081984Y0223382D02*
X0075484Y0223382D01*
X0075424Y0223384D01*
X0075363Y0223389D01*
X0075304Y0223398D01*
X0075245Y0223411D01*
X0075186Y0223427D01*
X0075129Y0223447D01*
X0075074Y0223470D01*
X0075019Y0223497D01*
X0074967Y0223526D01*
X0074916Y0223559D01*
X0074867Y0223595D01*
X0074821Y0223633D01*
X0074777Y0223675D01*
X0074735Y0223719D01*
X0074697Y0223765D01*
X0074661Y0223814D01*
X0074628Y0223865D01*
X0074599Y0223917D01*
X0074572Y0223972D01*
X0074549Y0224027D01*
X0074529Y0224084D01*
X0074513Y0224143D01*
X0074500Y0224202D01*
X0074491Y0224261D01*
X0074486Y0224322D01*
X0074484Y0224382D01*
X0074484Y0224882D01*
X0074486Y0224942D01*
X0074491Y0225003D01*
X0074500Y0225062D01*
X0074513Y0225121D01*
X0074529Y0225180D01*
X0074549Y0225237D01*
X0074572Y0225292D01*
X0074599Y0225347D01*
X0074628Y0225399D01*
X0074661Y0225450D01*
X0074697Y0225499D01*
X0074735Y0225545D01*
X0074777Y0225589D01*
X0074821Y0225631D01*
X0074867Y0225669D01*
X0074916Y0225705D01*
X0074967Y0225738D01*
X0075019Y0225767D01*
X0075074Y0225794D01*
X0075129Y0225817D01*
X0075186Y0225837D01*
X0075245Y0225853D01*
X0075304Y0225866D01*
X0075363Y0225875D01*
X0075424Y0225880D01*
X0075484Y0225882D01*
X0081984Y0225882D01*
X0081984Y0228382D02*
X0075484Y0228382D01*
X0075424Y0228384D01*
X0075363Y0228389D01*
X0075304Y0228398D01*
X0075245Y0228411D01*
X0075186Y0228427D01*
X0075129Y0228447D01*
X0075074Y0228470D01*
X0075019Y0228497D01*
X0074967Y0228526D01*
X0074916Y0228559D01*
X0074867Y0228595D01*
X0074821Y0228633D01*
X0074777Y0228675D01*
X0074735Y0228719D01*
X0074697Y0228765D01*
X0074661Y0228814D01*
X0074628Y0228865D01*
X0074599Y0228917D01*
X0074572Y0228972D01*
X0074549Y0229027D01*
X0074529Y0229084D01*
X0074513Y0229143D01*
X0074500Y0229202D01*
X0074491Y0229261D01*
X0074486Y0229322D01*
X0074484Y0229382D01*
X0074484Y0229882D01*
X0074486Y0229942D01*
X0074491Y0230003D01*
X0074500Y0230062D01*
X0074513Y0230121D01*
X0074529Y0230180D01*
X0074549Y0230237D01*
X0074572Y0230292D01*
X0074599Y0230347D01*
X0074628Y0230399D01*
X0074661Y0230450D01*
X0074697Y0230499D01*
X0074735Y0230545D01*
X0074777Y0230589D01*
X0074821Y0230631D01*
X0074867Y0230669D01*
X0074916Y0230705D01*
X0074967Y0230738D01*
X0075019Y0230767D01*
X0075074Y0230794D01*
X0075129Y0230817D01*
X0075186Y0230837D01*
X0075245Y0230853D01*
X0075304Y0230866D01*
X0075363Y0230875D01*
X0075424Y0230880D01*
X0075484Y0230882D01*
X0081984Y0230882D01*
X0081984Y0233382D02*
X0075484Y0233382D01*
X0075424Y0233384D01*
X0075363Y0233389D01*
X0075304Y0233398D01*
X0075245Y0233411D01*
X0075186Y0233427D01*
X0075129Y0233447D01*
X0075074Y0233470D01*
X0075019Y0233497D01*
X0074967Y0233526D01*
X0074916Y0233559D01*
X0074867Y0233595D01*
X0074821Y0233633D01*
X0074777Y0233675D01*
X0074735Y0233719D01*
X0074697Y0233765D01*
X0074661Y0233814D01*
X0074628Y0233865D01*
X0074599Y0233917D01*
X0074572Y0233972D01*
X0074549Y0234027D01*
X0074529Y0234084D01*
X0074513Y0234143D01*
X0074500Y0234202D01*
X0074491Y0234261D01*
X0074486Y0234322D01*
X0074484Y0234382D01*
X0074484Y0234882D01*
X0074486Y0234942D01*
X0074491Y0235003D01*
X0074500Y0235062D01*
X0074513Y0235121D01*
X0074529Y0235180D01*
X0074549Y0235237D01*
X0074572Y0235292D01*
X0074599Y0235347D01*
X0074628Y0235399D01*
X0074661Y0235450D01*
X0074697Y0235499D01*
X0074735Y0235545D01*
X0074777Y0235589D01*
X0074821Y0235631D01*
X0074867Y0235669D01*
X0074916Y0235705D01*
X0074967Y0235738D01*
X0075019Y0235767D01*
X0075074Y0235794D01*
X0075129Y0235817D01*
X0075186Y0235837D01*
X0075245Y0235853D01*
X0075304Y0235866D01*
X0075363Y0235875D01*
X0075424Y0235880D01*
X0075484Y0235882D01*
X0081984Y0235882D01*
X0081984Y0238382D02*
X0075484Y0238382D01*
X0075424Y0238384D01*
X0075363Y0238389D01*
X0075304Y0238398D01*
X0075245Y0238411D01*
X0075186Y0238427D01*
X0075129Y0238447D01*
X0075074Y0238470D01*
X0075019Y0238497D01*
X0074967Y0238526D01*
X0074916Y0238559D01*
X0074867Y0238595D01*
X0074821Y0238633D01*
X0074777Y0238675D01*
X0074735Y0238719D01*
X0074697Y0238765D01*
X0074661Y0238814D01*
X0074628Y0238865D01*
X0074599Y0238917D01*
X0074572Y0238972D01*
X0074549Y0239027D01*
X0074529Y0239084D01*
X0074513Y0239143D01*
X0074500Y0239202D01*
X0074491Y0239261D01*
X0074486Y0239322D01*
X0074484Y0239382D01*
X0074484Y0239882D01*
X0074486Y0239942D01*
X0074491Y0240003D01*
X0074500Y0240062D01*
X0074513Y0240121D01*
X0074529Y0240180D01*
X0074549Y0240237D01*
X0074572Y0240292D01*
X0074599Y0240347D01*
X0074628Y0240399D01*
X0074661Y0240450D01*
X0074697Y0240499D01*
X0074735Y0240545D01*
X0074777Y0240589D01*
X0074821Y0240631D01*
X0074867Y0240669D01*
X0074916Y0240705D01*
X0074967Y0240738D01*
X0075019Y0240767D01*
X0075074Y0240794D01*
X0075129Y0240817D01*
X0075186Y0240837D01*
X0075245Y0240853D01*
X0075304Y0240866D01*
X0075363Y0240875D01*
X0075424Y0240880D01*
X0075484Y0240882D01*
X0081984Y0240882D01*
X0081984Y0243382D02*
X0075484Y0243382D01*
X0075424Y0243384D01*
X0075363Y0243389D01*
X0075304Y0243398D01*
X0075245Y0243411D01*
X0075186Y0243427D01*
X0075129Y0243447D01*
X0075074Y0243470D01*
X0075019Y0243497D01*
X0074967Y0243526D01*
X0074916Y0243559D01*
X0074867Y0243595D01*
X0074821Y0243633D01*
X0074777Y0243675D01*
X0074735Y0243719D01*
X0074697Y0243765D01*
X0074661Y0243814D01*
X0074628Y0243865D01*
X0074599Y0243917D01*
X0074572Y0243972D01*
X0074549Y0244027D01*
X0074529Y0244084D01*
X0074513Y0244143D01*
X0074500Y0244202D01*
X0074491Y0244261D01*
X0074486Y0244322D01*
X0074484Y0244382D01*
X0074484Y0244882D01*
X0074486Y0244942D01*
X0074491Y0245003D01*
X0074500Y0245062D01*
X0074513Y0245121D01*
X0074529Y0245180D01*
X0074549Y0245237D01*
X0074572Y0245292D01*
X0074599Y0245347D01*
X0074628Y0245399D01*
X0074661Y0245450D01*
X0074697Y0245499D01*
X0074735Y0245545D01*
X0074777Y0245589D01*
X0074821Y0245631D01*
X0074867Y0245669D01*
X0074916Y0245705D01*
X0074967Y0245738D01*
X0075019Y0245767D01*
X0075074Y0245794D01*
X0075129Y0245817D01*
X0075186Y0245837D01*
X0075245Y0245853D01*
X0075304Y0245866D01*
X0075363Y0245875D01*
X0075424Y0245880D01*
X0075484Y0245882D01*
X0081984Y0245882D01*
X0081984Y0248382D02*
X0075484Y0248382D01*
X0075424Y0248384D01*
X0075363Y0248389D01*
X0075304Y0248398D01*
X0075245Y0248411D01*
X0075186Y0248427D01*
X0075129Y0248447D01*
X0075074Y0248470D01*
X0075019Y0248497D01*
X0074967Y0248526D01*
X0074916Y0248559D01*
X0074867Y0248595D01*
X0074821Y0248633D01*
X0074777Y0248675D01*
X0074735Y0248719D01*
X0074697Y0248765D01*
X0074661Y0248814D01*
X0074628Y0248865D01*
X0074599Y0248917D01*
X0074572Y0248972D01*
X0074549Y0249027D01*
X0074529Y0249084D01*
X0074513Y0249143D01*
X0074500Y0249202D01*
X0074491Y0249261D01*
X0074486Y0249322D01*
X0074484Y0249382D01*
X0074484Y0249882D01*
X0074486Y0249942D01*
X0074491Y0250003D01*
X0074500Y0250062D01*
X0074513Y0250121D01*
X0074529Y0250180D01*
X0074549Y0250237D01*
X0074572Y0250292D01*
X0074599Y0250347D01*
X0074628Y0250399D01*
X0074661Y0250450D01*
X0074697Y0250499D01*
X0074735Y0250545D01*
X0074777Y0250589D01*
X0074821Y0250631D01*
X0074867Y0250669D01*
X0074916Y0250705D01*
X0074967Y0250738D01*
X0075019Y0250767D01*
X0075074Y0250794D01*
X0075129Y0250817D01*
X0075186Y0250837D01*
X0075245Y0250853D01*
X0075304Y0250866D01*
X0075363Y0250875D01*
X0075424Y0250880D01*
X0075484Y0250882D01*
X0081984Y0250882D01*
X0081984Y0253382D02*
X0075484Y0253382D01*
X0075424Y0253384D01*
X0075363Y0253389D01*
X0075304Y0253398D01*
X0075245Y0253411D01*
X0075186Y0253427D01*
X0075129Y0253447D01*
X0075074Y0253470D01*
X0075019Y0253497D01*
X0074967Y0253526D01*
X0074916Y0253559D01*
X0074867Y0253595D01*
X0074821Y0253633D01*
X0074777Y0253675D01*
X0074735Y0253719D01*
X0074697Y0253765D01*
X0074661Y0253814D01*
X0074628Y0253865D01*
X0074599Y0253917D01*
X0074572Y0253972D01*
X0074549Y0254027D01*
X0074529Y0254084D01*
X0074513Y0254143D01*
X0074500Y0254202D01*
X0074491Y0254261D01*
X0074486Y0254322D01*
X0074484Y0254382D01*
X0074484Y0254882D01*
X0074486Y0254942D01*
X0074491Y0255003D01*
X0074500Y0255062D01*
X0074513Y0255121D01*
X0074529Y0255180D01*
X0074549Y0255237D01*
X0074572Y0255292D01*
X0074599Y0255347D01*
X0074628Y0255399D01*
X0074661Y0255450D01*
X0074697Y0255499D01*
X0074735Y0255545D01*
X0074777Y0255589D01*
X0074821Y0255631D01*
X0074867Y0255669D01*
X0074916Y0255705D01*
X0074967Y0255738D01*
X0075019Y0255767D01*
X0075074Y0255794D01*
X0075129Y0255817D01*
X0075186Y0255837D01*
X0075245Y0255853D01*
X0075304Y0255866D01*
X0075363Y0255875D01*
X0075424Y0255880D01*
X0075484Y0255882D01*
X0081984Y0255882D01*
X0065830Y0129801D02*
X0065830Y0125297D01*
X0064328Y0126799D01*
X0062827Y0125297D01*
X0062827Y0129801D01*
X0061226Y0129050D02*
X0060475Y0129801D01*
X0058223Y0129801D01*
X0058223Y0125297D01*
X0060475Y0125297D01*
X0061226Y0126048D01*
X0061226Y0129050D01*
X0056622Y0129801D02*
X0053619Y0129801D01*
X0053619Y0127549D01*
X0055121Y0128300D01*
X0055871Y0128300D01*
X0056622Y0127549D01*
X0056622Y0126048D01*
X0055871Y0125297D01*
X0054370Y0125297D01*
X0053619Y0126048D01*
X0052018Y0127549D02*
X0049015Y0127549D01*
X0051267Y0129801D01*
X0051267Y0125297D01*
X0047414Y0125297D02*
X0044411Y0125297D01*
X0047414Y0128300D01*
X0047414Y0129050D01*
X0046663Y0129801D01*
X0045162Y0129801D01*
X0044411Y0129050D01*
X0042810Y0129050D02*
X0042059Y0129801D01*
X0040558Y0129801D01*
X0039807Y0129050D01*
X0039807Y0126048D01*
X0040558Y0125297D01*
X0042059Y0125297D01*
X0042810Y0126048D01*
X0038206Y0125297D02*
X0038206Y0128300D01*
X0036705Y0129801D01*
X0035204Y0128300D01*
X0035204Y0125297D01*
X0035204Y0127549D02*
X0038206Y0127549D01*
X0033602Y0127549D02*
X0030600Y0127549D01*
X0032852Y0129801D01*
X0032852Y0125297D01*
X0028998Y0129050D02*
X0025996Y0126048D01*
X0025996Y0125297D01*
X0025996Y0129801D02*
X0028998Y0129801D01*
X0028998Y0129050D01*
X0006494Y0020206D02*
X0006494Y0018939D01*
X0006494Y0019573D02*
X0004592Y0019573D01*
X0005226Y0018939D01*
X0004592Y0017997D02*
X0004592Y0016729D01*
X0004592Y0017363D02*
X0006494Y0017363D01*
X0006177Y0015787D02*
X0004592Y0015787D01*
X0004592Y0014519D02*
X0006177Y0014519D01*
X0006494Y0014836D01*
X0006494Y0015470D01*
X0006177Y0015787D01*
X0006177Y0013577D02*
X0004909Y0013577D01*
X0004592Y0013260D01*
X0004592Y0012626D01*
X0004909Y0012309D01*
X0006177Y0012309D01*
X0006494Y0012626D01*
X0006494Y0013260D01*
X0006177Y0013577D01*
X0154199Y0013260D02*
X0154516Y0013577D01*
X0155783Y0013577D01*
X0156100Y0013260D01*
X0156100Y0012626D01*
X0155783Y0012309D01*
X0154516Y0012309D01*
X0154199Y0012626D01*
X0154199Y0013260D01*
X0154199Y0014519D02*
X0155783Y0014519D01*
X0156100Y0014836D01*
X0156100Y0015470D01*
X0155783Y0015787D01*
X0154199Y0015787D01*
X0154199Y0016729D02*
X0154199Y0017997D01*
X0154199Y0017363D02*
X0156100Y0017363D01*
X0156100Y0018939D02*
X0154833Y0020206D01*
X0154516Y0020206D01*
X0154199Y0019890D01*
X0154199Y0019256D01*
X0154516Y0018939D01*
X0156100Y0018939D02*
X0156100Y0020206D01*
X0303805Y0019890D02*
X0304122Y0020206D01*
X0304439Y0020206D01*
X0304756Y0019890D01*
X0305073Y0020206D01*
X0305390Y0020206D01*
X0305707Y0019890D01*
X0305707Y0019256D01*
X0305390Y0018939D01*
X0304756Y0019573D02*
X0304756Y0019890D01*
X0303805Y0019890D02*
X0303805Y0019256D01*
X0304122Y0018939D01*
X0303805Y0017997D02*
X0303805Y0016729D01*
X0303805Y0017363D02*
X0305707Y0017363D01*
X0305390Y0015787D02*
X0303805Y0015787D01*
X0303805Y0014519D02*
X0305390Y0014519D01*
X0305707Y0014836D01*
X0305707Y0015470D01*
X0305390Y0015787D01*
X0305390Y0013577D02*
X0304122Y0013577D01*
X0303805Y0013260D01*
X0303805Y0012626D01*
X0304122Y0012309D01*
X0305390Y0012309D01*
X0305707Y0012626D01*
X0305707Y0013260D01*
X0305390Y0013577D01*
D12*
X0008480Y0010843D02*
X0008480Y0045882D01*
X0008480Y0046276D02*
X0088008Y0046276D01*
X0088008Y0010843D01*
X0056906Y0010843D01*
X0056906Y0016748D01*
X0039583Y0016748D01*
X0039583Y0010843D01*
X0008480Y0010843D01*
X0025744Y0017634D02*
X0030744Y0017634D01*
X0039583Y0010843D02*
X0056906Y0010843D01*
X0068744Y0079177D02*
X0027744Y0079177D01*
X0027744Y0088177D01*
X0068744Y0088177D01*
X0068744Y0079177D01*
X0158087Y0046276D02*
X0237614Y0046276D01*
X0237614Y0010843D01*
X0206512Y0010843D01*
X0206512Y0016748D01*
X0189189Y0016748D01*
X0189189Y0010843D01*
X0158087Y0010843D01*
X0158087Y0045882D01*
X0175350Y0017634D02*
X0180350Y0017634D01*
X0189189Y0010843D02*
X0206512Y0010843D01*
X0218350Y0079177D02*
X0177350Y0079177D01*
X0177350Y0088177D01*
X0218350Y0088177D01*
X0218350Y0079177D01*
X0307693Y0046276D02*
X0387220Y0046276D01*
X0387220Y0010843D01*
X0356118Y0010843D01*
X0356118Y0016748D01*
X0338795Y0016748D01*
X0338795Y0010843D01*
X0307693Y0010843D01*
X0307693Y0045882D01*
X0324957Y0017634D02*
X0329957Y0017634D01*
X0338795Y0010843D02*
X0356118Y0010843D01*
X0367957Y0079177D02*
X0326957Y0079177D01*
X0326957Y0088177D01*
X0367957Y0088177D01*
X0367957Y0079177D01*
X0203787Y0242328D02*
X0203787Y0243362D01*
X0203787Y0242328D02*
X0201719Y0240260D01*
X0201719Y0237157D01*
X0201719Y0240260D02*
X0199650Y0242328D01*
X0199650Y0243362D01*
X0197342Y0242328D02*
X0196307Y0243362D01*
X0194239Y0243362D01*
X0193205Y0242328D01*
X0193205Y0241294D01*
X0194239Y0240260D01*
X0196307Y0240260D01*
X0197342Y0239225D01*
X0197342Y0238191D01*
X0196307Y0237157D01*
X0194239Y0237157D01*
X0193205Y0238191D01*
X0190896Y0237157D02*
X0190896Y0243362D01*
X0186759Y0243362D02*
X0190896Y0237157D01*
X0192507Y0234612D02*
X0190439Y0233578D01*
X0188371Y0231510D01*
X0191473Y0231510D01*
X0192507Y0230475D01*
X0192507Y0229441D01*
X0191473Y0228407D01*
X0189405Y0228407D01*
X0188371Y0229441D01*
X0188371Y0231510D01*
X0186182Y0229441D02*
X0186182Y0228407D01*
X0185148Y0228407D01*
X0185148Y0229441D01*
X0186182Y0229441D01*
X0182839Y0229441D02*
X0181805Y0228407D01*
X0179737Y0228407D01*
X0178702Y0229441D01*
X0180771Y0231510D02*
X0181805Y0231510D01*
X0182839Y0230475D01*
X0182839Y0229441D01*
X0181805Y0231510D02*
X0182839Y0232544D01*
X0182839Y0233578D01*
X0181805Y0234612D01*
X0179737Y0234612D01*
X0178702Y0233578D01*
X0178005Y0237157D02*
X0173868Y0237157D01*
X0173868Y0243362D01*
X0178005Y0243362D01*
X0180314Y0243362D02*
X0180314Y0237157D01*
X0184451Y0237157D01*
X0186759Y0237157D02*
X0186759Y0243362D01*
X0184451Y0243362D02*
X0180314Y0243362D01*
X0180314Y0240260D02*
X0182382Y0240260D01*
X0175937Y0240260D02*
X0173868Y0240260D01*
X0171560Y0243362D02*
X0167423Y0243362D01*
X0169491Y0243362D02*
X0169491Y0237157D01*
X0083911Y0329661D02*
X0080530Y0329661D01*
X0085011Y0333605D02*
X0085011Y0335718D01*
X0083911Y0339661D02*
X0080530Y0339661D01*
X0092850Y0354268D02*
X0092850Y0362929D01*
X0092850Y0370409D02*
X0092850Y0377102D01*
X0094031Y0378677D01*
X0103677Y0378677D01*
X0105055Y0377102D01*
X0105055Y0370409D01*
X0105252Y0362929D02*
X0105252Y0354268D01*
X0092850Y0354268D01*
X0042774Y0245803D02*
X0038874Y0245803D01*
X0034974Y0245803D01*
X0033874Y0244703D01*
X0038874Y0244803D02*
X0038874Y0245803D01*
X0042774Y0245803D02*
X0043874Y0244703D01*
X0038874Y0237303D02*
X0038874Y0234303D01*
X0033874Y0226903D02*
X0034974Y0225803D01*
X0038874Y0225803D01*
X0042774Y0225803D01*
X0043874Y0226903D01*
X0038874Y0226803D02*
X0038874Y0225803D01*
X0255646Y0331276D02*
X0302890Y0331276D01*
X0302890Y0346630D01*
X0302890Y0363165D02*
X0302890Y0378126D01*
X0255646Y0378126D02*
X0255646Y0363165D01*
X0255646Y0346630D02*
X0255646Y0331276D01*
D13*
X0289316Y0341951D02*
X0290568Y0341951D01*
X0290818Y0342202D01*
X0290818Y0342702D01*
X0290568Y0342952D01*
X0289316Y0342952D01*
X0289567Y0343425D02*
X0289817Y0343425D01*
X0290067Y0343675D01*
X0290067Y0344175D01*
X0290317Y0344426D01*
X0290568Y0344426D01*
X0290818Y0344175D01*
X0290818Y0343675D01*
X0290568Y0343425D01*
X0289567Y0343425D02*
X0289316Y0343675D01*
X0289316Y0344175D01*
X0289567Y0344426D01*
X0289316Y0344898D02*
X0289316Y0345649D01*
X0289567Y0345899D01*
X0289817Y0345899D01*
X0290067Y0345649D01*
X0290067Y0344898D01*
X0290818Y0344898D02*
X0289316Y0344898D01*
X0290067Y0345649D02*
X0290317Y0345899D01*
X0290568Y0345899D01*
X0290818Y0345649D01*
X0290818Y0344898D01*
X0290067Y0346371D02*
X0290067Y0347372D01*
X0290067Y0347844D02*
X0290067Y0348595D01*
X0290317Y0348845D01*
X0290568Y0348845D01*
X0290818Y0348595D01*
X0290818Y0347844D01*
X0289316Y0347844D01*
X0289316Y0348595D01*
X0289567Y0348845D01*
X0289817Y0348845D01*
X0290067Y0348595D01*
X0294316Y0348345D02*
X0295818Y0348345D01*
X0295818Y0348845D02*
X0295818Y0347844D01*
X0295568Y0347122D02*
X0294316Y0347122D01*
X0294316Y0346872D02*
X0294316Y0347372D01*
X0294817Y0347844D02*
X0294316Y0348345D01*
X0295568Y0347122D02*
X0295818Y0346872D01*
X0295818Y0346621D01*
X0295568Y0346371D01*
X0170267Y0292903D02*
X0170016Y0293154D01*
X0169516Y0293154D01*
X0169266Y0292903D01*
X0169266Y0292653D01*
X0169516Y0292403D01*
X0170016Y0292403D01*
X0170267Y0292153D01*
X0170267Y0291903D01*
X0170016Y0291652D01*
X0169516Y0291652D01*
X0169266Y0291903D01*
X0168793Y0291903D02*
X0168543Y0291652D01*
X0168043Y0291652D01*
X0167793Y0291903D01*
X0167793Y0292903D01*
X0168043Y0293154D01*
X0168543Y0293154D01*
X0168793Y0292903D01*
X0167320Y0293154D02*
X0167320Y0291652D01*
X0167320Y0292403D02*
X0166319Y0292403D01*
X0166319Y0291652D02*
X0166319Y0293154D01*
X0165847Y0293154D02*
X0164846Y0293154D01*
X0164374Y0293154D02*
X0163373Y0293154D01*
X0163373Y0291652D01*
X0164374Y0291652D01*
X0163873Y0292403D02*
X0163373Y0292403D01*
X0165347Y0291652D02*
X0165347Y0293154D01*
X0165347Y0282654D02*
X0165347Y0282403D01*
X0164346Y0281403D01*
X0164346Y0281152D01*
X0163623Y0281152D02*
X0163623Y0282654D01*
X0162873Y0281903D01*
X0163874Y0281903D01*
X0164346Y0282654D02*
X0165347Y0282654D01*
X0165819Y0282654D02*
X0165819Y0281152D01*
X0165819Y0281653D02*
X0166820Y0282654D01*
X0166070Y0281903D02*
X0166820Y0281152D01*
X0103782Y0307826D02*
X0103532Y0307576D01*
X0103782Y0307826D02*
X0103782Y0308327D01*
X0103532Y0308577D01*
X0103282Y0308577D01*
X0103032Y0308327D01*
X0103032Y0308077D01*
X0103032Y0308327D02*
X0102781Y0308577D01*
X0102531Y0308577D01*
X0102281Y0308327D01*
X0102281Y0307826D01*
X0102531Y0307576D01*
X0103532Y0309049D02*
X0103532Y0309300D01*
X0103782Y0309300D01*
X0103782Y0309049D01*
X0103532Y0309049D01*
X0103532Y0309786D02*
X0103782Y0310036D01*
X0103782Y0310537D01*
X0103532Y0310787D01*
X0103282Y0310787D01*
X0103032Y0310537D01*
X0103032Y0310286D01*
X0103032Y0310537D02*
X0102781Y0310787D01*
X0102531Y0310787D01*
X0102281Y0310537D01*
X0102281Y0310036D01*
X0102531Y0309786D01*
X0102281Y0311259D02*
X0102281Y0312010D01*
X0102531Y0312260D01*
X0102781Y0312260D01*
X0103032Y0312010D01*
X0103032Y0311259D01*
X0103782Y0311259D02*
X0103782Y0312010D01*
X0103532Y0312260D01*
X0103282Y0312260D01*
X0103032Y0312010D01*
X0103282Y0312733D02*
X0103282Y0313483D01*
X0103032Y0313733D01*
X0102531Y0313733D01*
X0102281Y0313483D01*
X0102281Y0312733D01*
X0103782Y0312733D01*
X0103782Y0311259D02*
X0102281Y0311259D01*
X0102531Y0314206D02*
X0103532Y0314206D01*
X0103782Y0314456D01*
X0103782Y0314956D01*
X0103532Y0315207D01*
X0103282Y0315679D02*
X0103282Y0316430D01*
X0103032Y0316680D01*
X0102531Y0316680D01*
X0102281Y0316430D01*
X0102281Y0315679D01*
X0103782Y0315679D01*
X0102531Y0315207D02*
X0102281Y0314956D01*
X0102281Y0314456D01*
X0102531Y0314206D01*
X0093783Y0315197D02*
X0092281Y0315197D01*
X0092281Y0315948D01*
X0092532Y0316198D01*
X0093032Y0316198D01*
X0093282Y0315948D01*
X0093282Y0315197D01*
X0093032Y0314725D02*
X0093282Y0314474D01*
X0093282Y0313974D01*
X0093032Y0313724D01*
X0092031Y0314725D01*
X0093032Y0314725D01*
X0092031Y0314725D02*
X0091781Y0314474D01*
X0091781Y0313974D01*
X0092031Y0313724D01*
X0093032Y0313724D01*
X0092031Y0313251D02*
X0093032Y0312250D01*
X0093282Y0312250D01*
X0093282Y0311528D02*
X0091781Y0311528D01*
X0092532Y0310777D01*
X0092532Y0311778D01*
X0091781Y0312250D02*
X0091781Y0313251D01*
X0092031Y0313251D01*
X0092532Y0316670D02*
X0092532Y0317171D01*
X0092031Y0316920D02*
X0091781Y0317171D01*
X0092031Y0316920D02*
X0093282Y0316920D01*
X0083020Y0324716D02*
X0082770Y0324465D01*
X0083020Y0324716D02*
X0083020Y0325216D01*
X0082770Y0325466D01*
X0082520Y0325466D01*
X0082270Y0325216D01*
X0082270Y0324966D01*
X0082270Y0325216D02*
X0082020Y0325466D01*
X0081769Y0325466D01*
X0081519Y0325216D01*
X0081519Y0324716D01*
X0081769Y0324465D01*
X0082770Y0325939D02*
X0082770Y0326189D01*
X0083020Y0326189D01*
X0083020Y0325939D01*
X0082770Y0325939D01*
X0082770Y0326675D02*
X0083020Y0326926D01*
X0083020Y0327426D01*
X0082770Y0327676D01*
X0082520Y0327676D01*
X0082270Y0327426D01*
X0082270Y0327176D01*
X0082270Y0327426D02*
X0082020Y0327676D01*
X0081769Y0327676D01*
X0081519Y0327426D01*
X0081519Y0326926D01*
X0081769Y0326675D01*
X0081519Y0328149D02*
X0082520Y0328149D01*
X0083020Y0328649D01*
X0082520Y0329149D01*
X0081519Y0329149D01*
X0081519Y0330623D02*
X0083020Y0329622D01*
X0083020Y0331095D02*
X0083020Y0332096D01*
X0083020Y0331596D02*
X0081519Y0331596D01*
X0082020Y0331095D01*
X0082270Y0332568D02*
X0082020Y0333069D01*
X0082020Y0333319D01*
X0082270Y0333569D01*
X0082770Y0333569D01*
X0083020Y0333319D01*
X0083020Y0332819D01*
X0082770Y0332568D01*
X0082270Y0332568D02*
X0081519Y0332568D01*
X0081519Y0333569D01*
X0081769Y0334042D02*
X0081519Y0334292D01*
X0081519Y0334792D01*
X0081769Y0335042D01*
X0082770Y0334042D01*
X0083020Y0334292D01*
X0083020Y0334792D01*
X0082770Y0335042D01*
X0081769Y0335042D01*
X0082020Y0335515D02*
X0082020Y0335765D01*
X0082270Y0336015D01*
X0082020Y0336266D01*
X0082270Y0336516D01*
X0083020Y0336516D01*
X0083020Y0336988D02*
X0082020Y0336988D01*
X0081519Y0337489D01*
X0082020Y0337989D01*
X0083020Y0337989D01*
X0082270Y0337989D02*
X0082270Y0336988D01*
X0082270Y0336015D02*
X0083020Y0336015D01*
X0083020Y0335515D02*
X0082020Y0335515D01*
X0081769Y0334042D02*
X0082770Y0334042D01*
X0090769Y0333792D02*
X0090769Y0334542D01*
X0091019Y0334792D01*
X0091520Y0334792D01*
X0091770Y0334542D01*
X0091770Y0333792D01*
X0091770Y0333319D02*
X0092020Y0333319D01*
X0092270Y0333069D01*
X0092270Y0332569D01*
X0092020Y0332318D01*
X0092020Y0331832D02*
X0092270Y0331832D01*
X0092270Y0331582D01*
X0092020Y0331582D01*
X0092020Y0331832D01*
X0092020Y0331109D02*
X0092270Y0330859D01*
X0092270Y0330359D01*
X0092020Y0330109D01*
X0091520Y0330609D02*
X0091520Y0330859D01*
X0091770Y0331109D01*
X0092020Y0331109D01*
X0091520Y0330859D02*
X0091270Y0331109D01*
X0091019Y0331109D01*
X0090769Y0330859D01*
X0090769Y0330359D01*
X0091019Y0330109D01*
X0091019Y0332318D02*
X0090769Y0332569D01*
X0090769Y0333069D01*
X0091019Y0333319D01*
X0091270Y0333319D01*
X0091520Y0333069D01*
X0091770Y0333319D01*
X0091520Y0333069D02*
X0091520Y0332819D01*
X0092270Y0333792D02*
X0090769Y0333792D01*
X0091770Y0334292D02*
X0092270Y0334792D01*
X0092270Y0335265D02*
X0092270Y0336266D01*
X0092020Y0336738D02*
X0092270Y0336988D01*
X0092270Y0337489D01*
X0092020Y0337739D01*
X0091520Y0337739D01*
X0091520Y0337239D01*
X0091019Y0337739D02*
X0090769Y0337489D01*
X0090769Y0336988D01*
X0091019Y0336738D01*
X0092020Y0336738D01*
X0091520Y0335765D02*
X0091520Y0335265D01*
X0092270Y0335265D02*
X0090769Y0335265D01*
X0090769Y0336266D01*
X0056853Y0323553D02*
X0055352Y0323553D01*
X0055352Y0324304D01*
X0055602Y0324554D01*
X0056103Y0324554D01*
X0056353Y0324304D01*
X0056353Y0323553D01*
X0056103Y0323081D02*
X0056103Y0322080D01*
X0055852Y0322080D02*
X0055352Y0322580D01*
X0055852Y0323081D01*
X0056853Y0323081D01*
X0056853Y0322080D02*
X0055852Y0322080D01*
X0055602Y0321607D02*
X0055352Y0321357D01*
X0055352Y0320857D01*
X0055602Y0320607D01*
X0056603Y0320607D01*
X0056853Y0320857D01*
X0056853Y0321357D01*
X0056603Y0321607D01*
X0056853Y0320134D02*
X0055352Y0320134D01*
X0055352Y0319133D02*
X0056853Y0320134D01*
X0056853Y0319133D02*
X0055352Y0319133D01*
X0055352Y0318652D02*
X0055352Y0318151D01*
X0055352Y0318401D02*
X0056853Y0318401D01*
X0056853Y0318151D02*
X0056853Y0318652D01*
X0056603Y0317679D02*
X0056853Y0317429D01*
X0056853Y0316928D01*
X0056603Y0316678D01*
X0056603Y0316191D02*
X0056853Y0316191D01*
X0056853Y0315941D01*
X0056603Y0315941D01*
X0056603Y0316191D01*
X0056603Y0315469D02*
X0056853Y0315219D01*
X0056853Y0314718D01*
X0056603Y0314468D01*
X0056103Y0314968D02*
X0056103Y0315219D01*
X0056353Y0315469D01*
X0056603Y0315469D01*
X0056103Y0315219D02*
X0055852Y0315469D01*
X0055602Y0315469D01*
X0055352Y0315219D01*
X0055352Y0314718D01*
X0055602Y0314468D01*
X0055602Y0316678D02*
X0055352Y0316928D01*
X0055352Y0317429D01*
X0055602Y0317679D01*
X0055852Y0317679D01*
X0056103Y0317429D01*
X0056353Y0317679D01*
X0056603Y0317679D01*
X0056103Y0317429D02*
X0056103Y0317178D01*
X0046353Y0321107D02*
X0046353Y0322107D01*
X0046353Y0321607D02*
X0044852Y0321607D01*
X0045352Y0321107D01*
X0045352Y0322580D02*
X0046103Y0322580D01*
X0046353Y0322830D01*
X0046353Y0323581D01*
X0045352Y0323581D01*
X0045603Y0324053D02*
X0045603Y0324554D01*
X0046353Y0324053D02*
X0044852Y0324053D01*
X0044852Y0325054D01*
D14*
X0078220Y0340961D03*
D15*
X0093791Y0368870D02*
X0104016Y0368870D01*
D16*
X0099942Y0374428D02*
X0099942Y0379032D01*
X0103012Y0379032D01*
X0101477Y0376730D02*
X0099942Y0376730D01*
X0098408Y0377498D02*
X0098408Y0374428D01*
X0096106Y0374428D01*
X0095339Y0375196D01*
X0095339Y0377498D01*
X0093804Y0377498D02*
X0093804Y0378265D01*
X0093037Y0379032D01*
X0091502Y0379032D01*
X0090735Y0378265D01*
X0093804Y0377498D02*
X0090735Y0374428D01*
X0093804Y0374428D01*
X0089200Y0374428D02*
X0088433Y0374428D01*
X0088433Y0375196D01*
X0089200Y0375196D01*
X0089200Y0374428D01*
X0086898Y0374428D02*
X0083829Y0374428D01*
X0086898Y0377498D01*
X0086898Y0378265D01*
X0086131Y0379032D01*
X0084596Y0379032D01*
X0083829Y0378265D01*
X0084202Y0357339D02*
X0084202Y0353503D01*
X0083435Y0352735D01*
X0081900Y0352735D01*
X0081133Y0353503D01*
X0081133Y0357339D01*
X0079598Y0356572D02*
X0078831Y0357339D01*
X0077296Y0357339D01*
X0076529Y0356572D01*
X0076529Y0353503D01*
X0077296Y0352735D01*
X0078831Y0352735D01*
X0079598Y0353503D01*
X0079598Y0356572D01*
X0085737Y0357339D02*
X0088806Y0357339D01*
X0087272Y0357339D02*
X0087272Y0352735D01*
X0090341Y0353503D02*
X0091108Y0352735D01*
X0092643Y0352735D01*
X0093410Y0353503D01*
X0094945Y0352735D02*
X0094945Y0355805D01*
X0096479Y0357339D01*
X0098014Y0355805D01*
X0098014Y0352735D01*
X0099549Y0352735D02*
X0099549Y0357339D01*
X0101851Y0357339D01*
X0102618Y0356572D01*
X0102618Y0355037D01*
X0101851Y0354270D01*
X0099549Y0354270D01*
X0098014Y0355037D02*
X0094945Y0355037D01*
X0093410Y0356572D02*
X0092643Y0357339D01*
X0091108Y0357339D01*
X0090341Y0356572D01*
X0090341Y0353503D01*
X0074994Y0353503D02*
X0074227Y0352735D01*
X0072693Y0352735D01*
X0071925Y0353503D01*
X0070391Y0353503D02*
X0070391Y0352735D01*
X0069623Y0352735D01*
X0069623Y0353503D01*
X0070391Y0353503D01*
X0068089Y0353503D02*
X0067321Y0352735D01*
X0065787Y0352735D01*
X0065019Y0353503D01*
X0066554Y0355037D02*
X0067321Y0355037D01*
X0068089Y0354270D01*
X0068089Y0353503D01*
X0067321Y0355037D02*
X0068089Y0355805D01*
X0068089Y0356572D01*
X0067321Y0357339D01*
X0065787Y0357339D01*
X0065019Y0356572D01*
X0071925Y0356572D02*
X0072693Y0357339D01*
X0074227Y0357339D01*
X0074994Y0356572D01*
X0074994Y0355805D01*
X0074227Y0355037D01*
X0074994Y0354270D01*
X0074994Y0353503D01*
X0074227Y0355037D02*
X0073460Y0355037D01*
X0049907Y0244468D02*
X0050674Y0243701D01*
X0050674Y0241399D01*
X0046070Y0241399D01*
X0046070Y0243701D01*
X0046837Y0244468D01*
X0047605Y0244468D01*
X0048372Y0243701D01*
X0048372Y0241399D01*
X0049139Y0239865D02*
X0049907Y0239865D01*
X0050674Y0239097D01*
X0050674Y0237563D01*
X0049907Y0236795D01*
X0049907Y0235261D02*
X0046070Y0235261D01*
X0046837Y0236795D02*
X0047605Y0236795D01*
X0048372Y0237563D01*
X0048372Y0239097D01*
X0049139Y0239865D01*
X0046837Y0239865D02*
X0046070Y0239097D01*
X0046070Y0237563D01*
X0046837Y0236795D01*
X0049907Y0235261D02*
X0050674Y0234493D01*
X0050674Y0232959D01*
X0049907Y0232191D01*
X0046070Y0232191D01*
X0048372Y0243701D02*
X0049139Y0244468D01*
X0049907Y0244468D01*
D17*
X0068407Y0153495D02*
X0068483Y0153493D01*
X0068559Y0153487D01*
X0068634Y0153478D01*
X0068709Y0153464D01*
X0068783Y0153447D01*
X0068856Y0153426D01*
X0068928Y0153402D01*
X0068999Y0153373D01*
X0069068Y0153342D01*
X0069135Y0153307D01*
X0069200Y0153268D01*
X0069264Y0153226D01*
X0069325Y0153181D01*
X0069384Y0153133D01*
X0069440Y0153082D01*
X0069494Y0153028D01*
X0069545Y0152972D01*
X0069593Y0152913D01*
X0069638Y0152852D01*
X0069680Y0152788D01*
X0069719Y0152723D01*
X0069754Y0152656D01*
X0069785Y0152587D01*
X0069814Y0152516D01*
X0069838Y0152444D01*
X0069859Y0152371D01*
X0069876Y0152297D01*
X0069890Y0152222D01*
X0069899Y0152147D01*
X0069905Y0152071D01*
X0069907Y0151995D01*
X0069907Y0143795D01*
X0069907Y0133795D01*
X0069907Y0125595D01*
X0069905Y0125519D01*
X0069899Y0125443D01*
X0069890Y0125368D01*
X0069876Y0125293D01*
X0069859Y0125219D01*
X0069838Y0125146D01*
X0069814Y0125074D01*
X0069785Y0125003D01*
X0069754Y0124934D01*
X0069719Y0124867D01*
X0069680Y0124802D01*
X0069638Y0124738D01*
X0069593Y0124677D01*
X0069545Y0124618D01*
X0069494Y0124562D01*
X0069440Y0124508D01*
X0069384Y0124457D01*
X0069325Y0124409D01*
X0069264Y0124364D01*
X0069200Y0124322D01*
X0069135Y0124283D01*
X0069068Y0124248D01*
X0068999Y0124217D01*
X0068928Y0124188D01*
X0068856Y0124164D01*
X0068783Y0124143D01*
X0068709Y0124126D01*
X0068634Y0124112D01*
X0068559Y0124103D01*
X0068483Y0124097D01*
X0068407Y0124095D01*
X0069907Y0133795D02*
X0069767Y0133797D01*
X0069627Y0133803D01*
X0069487Y0133813D01*
X0069347Y0133826D01*
X0069208Y0133844D01*
X0069069Y0133866D01*
X0068932Y0133891D01*
X0068794Y0133920D01*
X0068658Y0133953D01*
X0068523Y0133990D01*
X0068389Y0134031D01*
X0068256Y0134076D01*
X0068124Y0134124D01*
X0067994Y0134176D01*
X0067865Y0134231D01*
X0067738Y0134290D01*
X0067612Y0134353D01*
X0067488Y0134419D01*
X0067367Y0134488D01*
X0067247Y0134561D01*
X0067129Y0134638D01*
X0067014Y0134717D01*
X0066900Y0134800D01*
X0066790Y0134886D01*
X0066681Y0134975D01*
X0066575Y0135067D01*
X0066472Y0135162D01*
X0066371Y0135259D01*
X0066274Y0135360D01*
X0066179Y0135463D01*
X0066087Y0135569D01*
X0065998Y0135678D01*
X0065912Y0135788D01*
X0065829Y0135902D01*
X0065750Y0136017D01*
X0065673Y0136135D01*
X0065600Y0136255D01*
X0065531Y0136376D01*
X0065465Y0136500D01*
X0065402Y0136626D01*
X0065343Y0136753D01*
X0065288Y0136882D01*
X0065236Y0137012D01*
X0065188Y0137144D01*
X0065143Y0137277D01*
X0065102Y0137411D01*
X0065065Y0137546D01*
X0065032Y0137682D01*
X0065003Y0137820D01*
X0064978Y0137957D01*
X0064956Y0138096D01*
X0064938Y0138235D01*
X0064925Y0138375D01*
X0064915Y0138515D01*
X0064909Y0138655D01*
X0064907Y0138795D01*
X0064909Y0138935D01*
X0064915Y0139075D01*
X0064925Y0139215D01*
X0064938Y0139355D01*
X0064956Y0139494D01*
X0064978Y0139633D01*
X0065003Y0139770D01*
X0065032Y0139908D01*
X0065065Y0140044D01*
X0065102Y0140179D01*
X0065143Y0140313D01*
X0065188Y0140446D01*
X0065236Y0140578D01*
X0065288Y0140708D01*
X0065343Y0140837D01*
X0065402Y0140964D01*
X0065465Y0141090D01*
X0065531Y0141214D01*
X0065600Y0141335D01*
X0065673Y0141455D01*
X0065750Y0141573D01*
X0065829Y0141688D01*
X0065912Y0141802D01*
X0065998Y0141912D01*
X0066087Y0142021D01*
X0066179Y0142127D01*
X0066274Y0142230D01*
X0066371Y0142331D01*
X0066472Y0142428D01*
X0066575Y0142523D01*
X0066681Y0142615D01*
X0066790Y0142704D01*
X0066900Y0142790D01*
X0067014Y0142873D01*
X0067129Y0142952D01*
X0067247Y0143029D01*
X0067367Y0143102D01*
X0067488Y0143171D01*
X0067612Y0143237D01*
X0067738Y0143300D01*
X0067865Y0143359D01*
X0067994Y0143414D01*
X0068124Y0143466D01*
X0068256Y0143514D01*
X0068389Y0143559D01*
X0068523Y0143600D01*
X0068658Y0143637D01*
X0068794Y0143670D01*
X0068932Y0143699D01*
X0069069Y0143724D01*
X0069208Y0143746D01*
X0069347Y0143764D01*
X0069487Y0143777D01*
X0069627Y0143787D01*
X0069767Y0143793D01*
X0069907Y0143795D01*
X0089782Y0144167D02*
X0089782Y0139313D01*
X0097062Y0139313D01*
X0097062Y0136917D02*
X0092209Y0136917D01*
X0093422Y0139313D02*
X0093422Y0141740D01*
X0097062Y0136917D02*
X0097062Y0133277D01*
X0095849Y0132063D01*
X0092209Y0132063D01*
X0097062Y0129666D02*
X0097062Y0124813D01*
X0097062Y0127240D02*
X0089782Y0127240D01*
X0092209Y0124813D01*
X0076192Y0101458D02*
X0073537Y0101458D01*
X0072652Y0100573D01*
X0073537Y0099688D01*
X0076192Y0099688D01*
X0076192Y0097918D02*
X0072652Y0097918D01*
X0072652Y0098803D01*
X0073537Y0099688D01*
X0073537Y0096020D02*
X0076192Y0096020D01*
X0073537Y0096020D02*
X0072652Y0095135D01*
X0072652Y0093365D01*
X0073537Y0092480D01*
X0073537Y0090582D02*
X0072652Y0089697D01*
X0072652Y0087927D01*
X0073537Y0087042D01*
X0075307Y0087042D01*
X0076192Y0087927D01*
X0076192Y0089697D01*
X0075307Y0090582D01*
X0073537Y0090582D01*
X0070882Y0092480D02*
X0076192Y0092480D01*
X0075307Y0085145D02*
X0071767Y0085145D01*
X0075307Y0081605D01*
X0076192Y0082490D01*
X0076192Y0084260D01*
X0075307Y0085145D01*
X0071767Y0085145D02*
X0070882Y0084260D01*
X0070882Y0082490D01*
X0071767Y0081605D01*
X0075307Y0081605D01*
X0075307Y0079707D02*
X0076192Y0078822D01*
X0076192Y0077052D01*
X0075307Y0076167D01*
X0071767Y0079707D01*
X0075307Y0079707D01*
X0071767Y0079707D02*
X0070882Y0078822D01*
X0070882Y0077052D01*
X0071767Y0076167D01*
X0075307Y0076167D01*
X0076192Y0074269D02*
X0076192Y0070729D01*
X0076192Y0072499D02*
X0070882Y0072499D01*
X0072652Y0070729D01*
X0020207Y0124095D02*
X0020131Y0124097D01*
X0020055Y0124103D01*
X0019980Y0124112D01*
X0019905Y0124126D01*
X0019831Y0124143D01*
X0019758Y0124164D01*
X0019686Y0124188D01*
X0019615Y0124217D01*
X0019546Y0124248D01*
X0019479Y0124283D01*
X0019414Y0124322D01*
X0019350Y0124364D01*
X0019289Y0124409D01*
X0019230Y0124457D01*
X0019174Y0124508D01*
X0019120Y0124562D01*
X0019069Y0124618D01*
X0019021Y0124677D01*
X0018976Y0124738D01*
X0018934Y0124802D01*
X0018895Y0124867D01*
X0018860Y0124934D01*
X0018829Y0125003D01*
X0018800Y0125074D01*
X0018776Y0125146D01*
X0018755Y0125219D01*
X0018738Y0125293D01*
X0018724Y0125368D01*
X0018715Y0125443D01*
X0018709Y0125519D01*
X0018707Y0125595D01*
X0018707Y0151995D01*
X0018709Y0152071D01*
X0018715Y0152147D01*
X0018724Y0152222D01*
X0018738Y0152297D01*
X0018755Y0152371D01*
X0018776Y0152444D01*
X0018800Y0152516D01*
X0018829Y0152587D01*
X0018860Y0152656D01*
X0018895Y0152723D01*
X0018934Y0152788D01*
X0018976Y0152852D01*
X0019021Y0152913D01*
X0019069Y0152972D01*
X0019120Y0153028D01*
X0019174Y0153082D01*
X0019230Y0153133D01*
X0019289Y0153181D01*
X0019350Y0153226D01*
X0019414Y0153268D01*
X0019479Y0153307D01*
X0019546Y0153342D01*
X0019615Y0153373D01*
X0019686Y0153402D01*
X0019758Y0153426D01*
X0019831Y0153447D01*
X0019905Y0153464D01*
X0019980Y0153478D01*
X0020055Y0153487D01*
X0020131Y0153493D01*
X0020207Y0153495D01*
X0168313Y0151995D02*
X0168313Y0125595D01*
X0168315Y0125519D01*
X0168321Y0125443D01*
X0168330Y0125368D01*
X0168344Y0125293D01*
X0168361Y0125219D01*
X0168382Y0125146D01*
X0168406Y0125074D01*
X0168435Y0125003D01*
X0168466Y0124934D01*
X0168501Y0124867D01*
X0168540Y0124802D01*
X0168582Y0124738D01*
X0168627Y0124677D01*
X0168675Y0124618D01*
X0168726Y0124562D01*
X0168780Y0124508D01*
X0168836Y0124457D01*
X0168895Y0124409D01*
X0168956Y0124364D01*
X0169020Y0124322D01*
X0169085Y0124283D01*
X0169152Y0124248D01*
X0169221Y0124217D01*
X0169292Y0124188D01*
X0169364Y0124164D01*
X0169437Y0124143D01*
X0169511Y0124126D01*
X0169586Y0124112D01*
X0169661Y0124103D01*
X0169737Y0124097D01*
X0169813Y0124095D01*
X0168313Y0151995D02*
X0168315Y0152071D01*
X0168321Y0152147D01*
X0168330Y0152222D01*
X0168344Y0152297D01*
X0168361Y0152371D01*
X0168382Y0152444D01*
X0168406Y0152516D01*
X0168435Y0152587D01*
X0168466Y0152656D01*
X0168501Y0152723D01*
X0168540Y0152788D01*
X0168582Y0152852D01*
X0168627Y0152913D01*
X0168675Y0152972D01*
X0168726Y0153028D01*
X0168780Y0153082D01*
X0168836Y0153133D01*
X0168895Y0153181D01*
X0168956Y0153226D01*
X0169020Y0153268D01*
X0169085Y0153307D01*
X0169152Y0153342D01*
X0169221Y0153373D01*
X0169292Y0153402D01*
X0169364Y0153426D01*
X0169437Y0153447D01*
X0169511Y0153464D01*
X0169586Y0153478D01*
X0169661Y0153487D01*
X0169737Y0153493D01*
X0169813Y0153495D01*
X0218013Y0153495D02*
X0218089Y0153493D01*
X0218165Y0153487D01*
X0218240Y0153478D01*
X0218315Y0153464D01*
X0218389Y0153447D01*
X0218462Y0153426D01*
X0218534Y0153402D01*
X0218605Y0153373D01*
X0218674Y0153342D01*
X0218741Y0153307D01*
X0218806Y0153268D01*
X0218870Y0153226D01*
X0218931Y0153181D01*
X0218990Y0153133D01*
X0219046Y0153082D01*
X0219100Y0153028D01*
X0219151Y0152972D01*
X0219199Y0152913D01*
X0219244Y0152852D01*
X0219286Y0152788D01*
X0219325Y0152723D01*
X0219360Y0152656D01*
X0219391Y0152587D01*
X0219420Y0152516D01*
X0219444Y0152444D01*
X0219465Y0152371D01*
X0219482Y0152297D01*
X0219496Y0152222D01*
X0219505Y0152147D01*
X0219511Y0152071D01*
X0219513Y0151995D01*
X0219513Y0143795D01*
X0219513Y0133795D01*
X0219513Y0125595D01*
X0219511Y0125519D01*
X0219505Y0125443D01*
X0219496Y0125368D01*
X0219482Y0125293D01*
X0219465Y0125219D01*
X0219444Y0125146D01*
X0219420Y0125074D01*
X0219391Y0125003D01*
X0219360Y0124934D01*
X0219325Y0124867D01*
X0219286Y0124802D01*
X0219244Y0124738D01*
X0219199Y0124677D01*
X0219151Y0124618D01*
X0219100Y0124562D01*
X0219046Y0124508D01*
X0218990Y0124457D01*
X0218931Y0124409D01*
X0218870Y0124364D01*
X0218806Y0124322D01*
X0218741Y0124283D01*
X0218674Y0124248D01*
X0218605Y0124217D01*
X0218534Y0124188D01*
X0218462Y0124164D01*
X0218389Y0124143D01*
X0218315Y0124126D01*
X0218240Y0124112D01*
X0218165Y0124103D01*
X0218089Y0124097D01*
X0218013Y0124095D01*
X0219513Y0133795D02*
X0219373Y0133797D01*
X0219233Y0133803D01*
X0219093Y0133813D01*
X0218953Y0133826D01*
X0218814Y0133844D01*
X0218675Y0133866D01*
X0218538Y0133891D01*
X0218400Y0133920D01*
X0218264Y0133953D01*
X0218129Y0133990D01*
X0217995Y0134031D01*
X0217862Y0134076D01*
X0217730Y0134124D01*
X0217600Y0134176D01*
X0217471Y0134231D01*
X0217344Y0134290D01*
X0217218Y0134353D01*
X0217094Y0134419D01*
X0216973Y0134488D01*
X0216853Y0134561D01*
X0216735Y0134638D01*
X0216620Y0134717D01*
X0216506Y0134800D01*
X0216396Y0134886D01*
X0216287Y0134975D01*
X0216181Y0135067D01*
X0216078Y0135162D01*
X0215977Y0135259D01*
X0215880Y0135360D01*
X0215785Y0135463D01*
X0215693Y0135569D01*
X0215604Y0135678D01*
X0215518Y0135788D01*
X0215435Y0135902D01*
X0215356Y0136017D01*
X0215279Y0136135D01*
X0215206Y0136255D01*
X0215137Y0136376D01*
X0215071Y0136500D01*
X0215008Y0136626D01*
X0214949Y0136753D01*
X0214894Y0136882D01*
X0214842Y0137012D01*
X0214794Y0137144D01*
X0214749Y0137277D01*
X0214708Y0137411D01*
X0214671Y0137546D01*
X0214638Y0137682D01*
X0214609Y0137820D01*
X0214584Y0137957D01*
X0214562Y0138096D01*
X0214544Y0138235D01*
X0214531Y0138375D01*
X0214521Y0138515D01*
X0214515Y0138655D01*
X0214513Y0138795D01*
X0214515Y0138935D01*
X0214521Y0139075D01*
X0214531Y0139215D01*
X0214544Y0139355D01*
X0214562Y0139494D01*
X0214584Y0139633D01*
X0214609Y0139770D01*
X0214638Y0139908D01*
X0214671Y0140044D01*
X0214708Y0140179D01*
X0214749Y0140313D01*
X0214794Y0140446D01*
X0214842Y0140578D01*
X0214894Y0140708D01*
X0214949Y0140837D01*
X0215008Y0140964D01*
X0215071Y0141090D01*
X0215137Y0141214D01*
X0215206Y0141335D01*
X0215279Y0141455D01*
X0215356Y0141573D01*
X0215435Y0141688D01*
X0215518Y0141802D01*
X0215604Y0141912D01*
X0215693Y0142021D01*
X0215785Y0142127D01*
X0215880Y0142230D01*
X0215977Y0142331D01*
X0216078Y0142428D01*
X0216181Y0142523D01*
X0216287Y0142615D01*
X0216396Y0142704D01*
X0216506Y0142790D01*
X0216620Y0142873D01*
X0216735Y0142952D01*
X0216853Y0143029D01*
X0216973Y0143102D01*
X0217094Y0143171D01*
X0217218Y0143237D01*
X0217344Y0143300D01*
X0217471Y0143359D01*
X0217600Y0143414D01*
X0217730Y0143466D01*
X0217862Y0143514D01*
X0217995Y0143559D01*
X0218129Y0143600D01*
X0218264Y0143637D01*
X0218400Y0143670D01*
X0218538Y0143699D01*
X0218675Y0143724D01*
X0218814Y0143746D01*
X0218953Y0143764D01*
X0219093Y0143777D01*
X0219233Y0143787D01*
X0219373Y0143793D01*
X0219513Y0143795D01*
X0239388Y0144167D02*
X0239388Y0139313D01*
X0246669Y0139313D01*
X0246669Y0136917D02*
X0241815Y0136917D01*
X0243028Y0139313D02*
X0243028Y0141740D01*
X0246669Y0136917D02*
X0246669Y0133277D01*
X0245455Y0132063D01*
X0241815Y0132063D01*
X0246669Y0129666D02*
X0246669Y0124813D01*
X0246669Y0127240D02*
X0239388Y0127240D01*
X0241815Y0124813D01*
X0225798Y0101458D02*
X0223143Y0101458D01*
X0222258Y0100573D01*
X0223143Y0099688D01*
X0225798Y0099688D01*
X0225798Y0097918D02*
X0222258Y0097918D01*
X0222258Y0098803D01*
X0223143Y0099688D01*
X0223143Y0096020D02*
X0225798Y0096020D01*
X0223143Y0096020D02*
X0222258Y0095135D01*
X0222258Y0093365D01*
X0223143Y0092480D01*
X0223143Y0090582D02*
X0222258Y0089697D01*
X0222258Y0087927D01*
X0223143Y0087042D01*
X0224913Y0087042D01*
X0225798Y0087927D01*
X0225798Y0089697D01*
X0224913Y0090582D01*
X0223143Y0090582D01*
X0220488Y0092480D02*
X0225798Y0092480D01*
X0224913Y0085145D02*
X0221373Y0085145D01*
X0224913Y0081605D01*
X0225798Y0082490D01*
X0225798Y0084260D01*
X0224913Y0085145D01*
X0221373Y0085145D02*
X0220488Y0084260D01*
X0220488Y0082490D01*
X0221373Y0081605D01*
X0224913Y0081605D01*
X0224913Y0079707D02*
X0225798Y0078822D01*
X0225798Y0077052D01*
X0224913Y0076167D01*
X0221373Y0079707D01*
X0224913Y0079707D01*
X0221373Y0079707D02*
X0220488Y0078822D01*
X0220488Y0077052D01*
X0221373Y0076167D01*
X0224913Y0076167D01*
X0225798Y0074269D02*
X0225798Y0070729D01*
X0225798Y0072499D02*
X0220488Y0072499D01*
X0222258Y0070729D01*
X0317920Y0125595D02*
X0317920Y0151995D01*
X0317922Y0152071D01*
X0317928Y0152147D01*
X0317937Y0152222D01*
X0317951Y0152297D01*
X0317968Y0152371D01*
X0317989Y0152444D01*
X0318013Y0152516D01*
X0318042Y0152587D01*
X0318073Y0152656D01*
X0318108Y0152723D01*
X0318147Y0152788D01*
X0318189Y0152852D01*
X0318234Y0152913D01*
X0318282Y0152972D01*
X0318333Y0153028D01*
X0318387Y0153082D01*
X0318443Y0153133D01*
X0318502Y0153181D01*
X0318563Y0153226D01*
X0318627Y0153268D01*
X0318692Y0153307D01*
X0318759Y0153342D01*
X0318828Y0153373D01*
X0318899Y0153402D01*
X0318971Y0153426D01*
X0319044Y0153447D01*
X0319118Y0153464D01*
X0319193Y0153478D01*
X0319268Y0153487D01*
X0319344Y0153493D01*
X0319420Y0153495D01*
X0317920Y0125595D02*
X0317922Y0125519D01*
X0317928Y0125443D01*
X0317937Y0125368D01*
X0317951Y0125293D01*
X0317968Y0125219D01*
X0317989Y0125146D01*
X0318013Y0125074D01*
X0318042Y0125003D01*
X0318073Y0124934D01*
X0318108Y0124867D01*
X0318147Y0124802D01*
X0318189Y0124738D01*
X0318234Y0124677D01*
X0318282Y0124618D01*
X0318333Y0124562D01*
X0318387Y0124508D01*
X0318443Y0124457D01*
X0318502Y0124409D01*
X0318563Y0124364D01*
X0318627Y0124322D01*
X0318692Y0124283D01*
X0318759Y0124248D01*
X0318828Y0124217D01*
X0318899Y0124188D01*
X0318971Y0124164D01*
X0319044Y0124143D01*
X0319118Y0124126D01*
X0319193Y0124112D01*
X0319268Y0124103D01*
X0319344Y0124097D01*
X0319420Y0124095D01*
X0367620Y0124095D02*
X0367696Y0124097D01*
X0367772Y0124103D01*
X0367847Y0124112D01*
X0367922Y0124126D01*
X0367996Y0124143D01*
X0368069Y0124164D01*
X0368141Y0124188D01*
X0368212Y0124217D01*
X0368281Y0124248D01*
X0368348Y0124283D01*
X0368413Y0124322D01*
X0368477Y0124364D01*
X0368538Y0124409D01*
X0368597Y0124457D01*
X0368653Y0124508D01*
X0368707Y0124562D01*
X0368758Y0124618D01*
X0368806Y0124677D01*
X0368851Y0124738D01*
X0368893Y0124802D01*
X0368932Y0124867D01*
X0368967Y0124934D01*
X0368998Y0125003D01*
X0369027Y0125074D01*
X0369051Y0125146D01*
X0369072Y0125219D01*
X0369089Y0125293D01*
X0369103Y0125368D01*
X0369112Y0125443D01*
X0369118Y0125519D01*
X0369120Y0125595D01*
X0369120Y0133795D01*
X0369120Y0143795D01*
X0369120Y0151995D01*
X0369118Y0152071D01*
X0369112Y0152147D01*
X0369103Y0152222D01*
X0369089Y0152297D01*
X0369072Y0152371D01*
X0369051Y0152444D01*
X0369027Y0152516D01*
X0368998Y0152587D01*
X0368967Y0152656D01*
X0368932Y0152723D01*
X0368893Y0152788D01*
X0368851Y0152852D01*
X0368806Y0152913D01*
X0368758Y0152972D01*
X0368707Y0153028D01*
X0368653Y0153082D01*
X0368597Y0153133D01*
X0368538Y0153181D01*
X0368477Y0153226D01*
X0368413Y0153268D01*
X0368348Y0153307D01*
X0368281Y0153342D01*
X0368212Y0153373D01*
X0368141Y0153402D01*
X0368069Y0153426D01*
X0367996Y0153447D01*
X0367922Y0153464D01*
X0367847Y0153478D01*
X0367772Y0153487D01*
X0367696Y0153493D01*
X0367620Y0153495D01*
X0369120Y0143795D02*
X0368980Y0143793D01*
X0368840Y0143787D01*
X0368700Y0143777D01*
X0368560Y0143764D01*
X0368421Y0143746D01*
X0368282Y0143724D01*
X0368145Y0143699D01*
X0368007Y0143670D01*
X0367871Y0143637D01*
X0367736Y0143600D01*
X0367602Y0143559D01*
X0367469Y0143514D01*
X0367337Y0143466D01*
X0367207Y0143414D01*
X0367078Y0143359D01*
X0366951Y0143300D01*
X0366825Y0143237D01*
X0366701Y0143171D01*
X0366580Y0143102D01*
X0366460Y0143029D01*
X0366342Y0142952D01*
X0366227Y0142873D01*
X0366113Y0142790D01*
X0366003Y0142704D01*
X0365894Y0142615D01*
X0365788Y0142523D01*
X0365685Y0142428D01*
X0365584Y0142331D01*
X0365487Y0142230D01*
X0365392Y0142127D01*
X0365300Y0142021D01*
X0365211Y0141912D01*
X0365125Y0141802D01*
X0365042Y0141688D01*
X0364963Y0141573D01*
X0364886Y0141455D01*
X0364813Y0141335D01*
X0364744Y0141214D01*
X0364678Y0141090D01*
X0364615Y0140964D01*
X0364556Y0140837D01*
X0364501Y0140708D01*
X0364449Y0140578D01*
X0364401Y0140446D01*
X0364356Y0140313D01*
X0364315Y0140179D01*
X0364278Y0140044D01*
X0364245Y0139908D01*
X0364216Y0139770D01*
X0364191Y0139633D01*
X0364169Y0139494D01*
X0364151Y0139355D01*
X0364138Y0139215D01*
X0364128Y0139075D01*
X0364122Y0138935D01*
X0364120Y0138795D01*
X0364122Y0138655D01*
X0364128Y0138515D01*
X0364138Y0138375D01*
X0364151Y0138235D01*
X0364169Y0138096D01*
X0364191Y0137957D01*
X0364216Y0137820D01*
X0364245Y0137682D01*
X0364278Y0137546D01*
X0364315Y0137411D01*
X0364356Y0137277D01*
X0364401Y0137144D01*
X0364449Y0137012D01*
X0364501Y0136882D01*
X0364556Y0136753D01*
X0364615Y0136626D01*
X0364678Y0136500D01*
X0364744Y0136376D01*
X0364813Y0136255D01*
X0364886Y0136135D01*
X0364963Y0136017D01*
X0365042Y0135902D01*
X0365125Y0135788D01*
X0365211Y0135678D01*
X0365300Y0135569D01*
X0365392Y0135463D01*
X0365487Y0135360D01*
X0365584Y0135259D01*
X0365685Y0135162D01*
X0365788Y0135067D01*
X0365894Y0134975D01*
X0366003Y0134886D01*
X0366113Y0134800D01*
X0366227Y0134717D01*
X0366342Y0134638D01*
X0366460Y0134561D01*
X0366580Y0134488D01*
X0366701Y0134419D01*
X0366825Y0134353D01*
X0366951Y0134290D01*
X0367078Y0134231D01*
X0367207Y0134176D01*
X0367337Y0134124D01*
X0367469Y0134076D01*
X0367602Y0134031D01*
X0367736Y0133990D01*
X0367871Y0133953D01*
X0368007Y0133920D01*
X0368145Y0133891D01*
X0368282Y0133866D01*
X0368421Y0133844D01*
X0368560Y0133826D01*
X0368700Y0133813D01*
X0368840Y0133803D01*
X0368980Y0133797D01*
X0369120Y0133795D01*
X0385058Y0139313D02*
X0385058Y0144167D01*
X0388698Y0141740D02*
X0388698Y0139313D01*
X0387484Y0136917D02*
X0392338Y0136917D01*
X0392338Y0133277D01*
X0391124Y0132063D01*
X0387484Y0132063D01*
X0385058Y0127240D02*
X0392338Y0127240D01*
X0392338Y0129666D02*
X0392338Y0124813D01*
X0387484Y0124813D02*
X0385058Y0127240D01*
X0385058Y0139313D02*
X0392338Y0139313D01*
X0375405Y0101458D02*
X0372750Y0101458D01*
X0371865Y0100573D01*
X0372750Y0099688D01*
X0375405Y0099688D01*
X0375405Y0097918D02*
X0371865Y0097918D01*
X0371865Y0098803D01*
X0372750Y0099688D01*
X0372750Y0096020D02*
X0375405Y0096020D01*
X0372750Y0096020D02*
X0371865Y0095135D01*
X0371865Y0093365D01*
X0372750Y0092480D01*
X0372750Y0090582D02*
X0371865Y0089697D01*
X0371865Y0087927D01*
X0372750Y0087042D01*
X0374520Y0087042D01*
X0375405Y0087927D01*
X0375405Y0089697D01*
X0374520Y0090582D01*
X0372750Y0090582D01*
X0370095Y0092480D02*
X0375405Y0092480D01*
X0374520Y0085145D02*
X0370980Y0085145D01*
X0374520Y0081605D01*
X0375405Y0082490D01*
X0375405Y0084260D01*
X0374520Y0085145D01*
X0370980Y0085145D02*
X0370095Y0084260D01*
X0370095Y0082490D01*
X0370980Y0081605D01*
X0374520Y0081605D01*
X0374520Y0079707D02*
X0375405Y0078822D01*
X0375405Y0077052D01*
X0374520Y0076167D01*
X0370980Y0079707D01*
X0374520Y0079707D01*
X0374520Y0076167D02*
X0370980Y0076167D01*
X0370095Y0077052D01*
X0370095Y0078822D01*
X0370980Y0079707D01*
X0375405Y0074269D02*
X0375405Y0070729D01*
X0375405Y0072499D02*
X0370095Y0072499D01*
X0371865Y0070729D01*
D18*
X0369020Y0152095D02*
X0318020Y0152095D01*
X0219413Y0152095D02*
X0168413Y0152095D01*
X0069807Y0152095D02*
X0018807Y0152095D01*
D19*
X0065744Y0085927D03*
X0215350Y0085927D03*
X0364957Y0085927D03*
M02*
