G75*
%MOIN*%
%OFA0B0*%
%FSLAX25Y25*%
%IPPOS*%
%LPD*%
%AMOC8*
5,1,8,0,0,1.08239X$1,22.5*
%
%ADD10C,0.17335*%
%ADD11C,0.07000*%
%ADD12C,0.07400*%
%ADD13C,0.13800*%
%ADD14R,0.07400X0.07400*%
%ADD15OC8,0.07400*%
%ADD16C,0.07200*%
%ADD17C,0.08200*%
D10*
X0119110Y0079740D03*
X0040370Y0197850D03*
X0030528Y0365173D03*
X0276591Y0079740D03*
X0375016Y0197850D03*
X0365173Y0365173D03*
D11*
X0306984Y0265882D03*
X0296984Y0265882D03*
X0286984Y0265882D03*
X0276984Y0265882D03*
X0266984Y0265882D03*
X0256984Y0265882D03*
X0246984Y0265882D03*
X0236984Y0265882D03*
X0226984Y0265882D03*
X0216984Y0265882D03*
X0206984Y0265882D03*
X0196984Y0265882D03*
X0186984Y0265882D03*
X0176984Y0265882D03*
X0166984Y0265882D03*
X0156984Y0265882D03*
X0146984Y0265882D03*
X0136984Y0265882D03*
X0126984Y0265882D03*
X0116984Y0265882D03*
X0106984Y0265882D03*
X0096984Y0265882D03*
X0086984Y0265882D03*
X0076984Y0265882D03*
X0076984Y0205882D03*
X0086984Y0205882D03*
X0096984Y0205882D03*
X0106984Y0205882D03*
X0116984Y0205882D03*
X0126984Y0205882D03*
X0136984Y0205882D03*
X0146984Y0205882D03*
X0156984Y0205882D03*
X0166984Y0205882D03*
X0176984Y0205882D03*
X0186984Y0205882D03*
X0196984Y0205882D03*
X0206984Y0205882D03*
X0216984Y0205882D03*
X0226984Y0205882D03*
X0236984Y0205882D03*
X0246984Y0205882D03*
X0256984Y0205882D03*
X0256984Y0215882D03*
X0266984Y0215882D03*
X0276984Y0215882D03*
X0276984Y0205882D03*
X0266984Y0205882D03*
X0286984Y0205882D03*
X0296984Y0205882D03*
X0296984Y0215882D03*
X0306984Y0205882D03*
D12*
X0284189Y0336468D03*
X0284189Y0344268D03*
X0274346Y0344268D03*
X0274346Y0336468D03*
D13*
X0255568Y0354968D03*
X0302968Y0354968D03*
D14*
X0217614Y0363638D03*
X0137614Y0363638D03*
D15*
X0137614Y0353638D03*
X0137614Y0343638D03*
X0137614Y0333638D03*
X0137614Y0323638D03*
X0137614Y0313638D03*
X0217614Y0313638D03*
X0217614Y0323638D03*
X0217614Y0333638D03*
X0217614Y0343638D03*
X0217614Y0353638D03*
D16*
X0042074Y0241303D02*
X0035674Y0241303D01*
X0035674Y0230303D02*
X0042074Y0230303D01*
D17*
X0028244Y0023059D03*
X0038244Y0023059D03*
X0048244Y0023059D03*
X0058244Y0023059D03*
X0068244Y0023059D03*
X0068244Y0034059D03*
X0058244Y0034059D03*
X0048244Y0034059D03*
X0038244Y0034059D03*
X0028244Y0034059D03*
X0177850Y0034059D03*
X0187850Y0034059D03*
X0197850Y0034059D03*
X0207850Y0034059D03*
X0217850Y0034059D03*
X0217850Y0023059D03*
X0207850Y0023059D03*
X0197850Y0023059D03*
X0187850Y0023059D03*
X0177850Y0023059D03*
X0327457Y0023059D03*
X0337457Y0023059D03*
X0347457Y0023059D03*
X0357457Y0023059D03*
X0367457Y0023059D03*
X0367457Y0034059D03*
X0357457Y0034059D03*
X0347457Y0034059D03*
X0337457Y0034059D03*
X0327457Y0034059D03*
M02*
