G75*
%MOIN*%
%OFA0B0*%
%FSLAX25Y25*%
%IPPOS*%
%LPD*%
%AMOC8*
5,1,8,0,0,1.08239X$1,22.5*
%
%ADD10C,0.17335*%
%ADD11C,0.07000*%
%ADD12C,0.07400*%
%ADD13C,0.13800*%
%ADD14R,0.07400X0.07400*%
%ADD15OC8,0.07400*%
%ADD16R,0.07099X0.07887*%
%ADD17R,0.05524X0.02965*%
%ADD18R,0.07887X0.07099*%
%ADD19R,0.10643X0.07493*%
%ADD20C,0.07200*%
%ADD21R,0.03400X0.08800*%
%ADD22R,0.03162X0.09461*%
%ADD23C,0.08200*%
D10*
X0119110Y0079740D03*
X0040370Y0197850D03*
X0030528Y0365173D03*
X0276591Y0079740D03*
X0375016Y0197850D03*
X0365173Y0365173D03*
D11*
X0306984Y0265882D03*
X0296984Y0265882D03*
X0286984Y0265882D03*
X0276984Y0265882D03*
X0266984Y0265882D03*
X0256984Y0265882D03*
X0246984Y0265882D03*
X0236984Y0265882D03*
X0226984Y0265882D03*
X0216984Y0265882D03*
X0206984Y0265882D03*
X0196984Y0265882D03*
X0186984Y0265882D03*
X0176984Y0265882D03*
X0166984Y0265882D03*
X0156984Y0265882D03*
X0146984Y0265882D03*
X0136984Y0265882D03*
X0126984Y0265882D03*
X0116984Y0265882D03*
X0106984Y0265882D03*
X0096984Y0265882D03*
X0086984Y0265882D03*
X0076984Y0265882D03*
X0076984Y0205882D03*
X0086984Y0205882D03*
X0096984Y0205882D03*
X0106984Y0205882D03*
X0116984Y0205882D03*
X0126984Y0205882D03*
X0136984Y0205882D03*
X0146984Y0205882D03*
X0156984Y0205882D03*
X0166984Y0205882D03*
X0176984Y0205882D03*
X0186984Y0205882D03*
X0196984Y0205882D03*
X0206984Y0205882D03*
X0216984Y0205882D03*
X0226984Y0205882D03*
X0236984Y0205882D03*
X0246984Y0205882D03*
X0256984Y0205882D03*
X0256984Y0215882D03*
X0266984Y0215882D03*
X0276984Y0215882D03*
X0276984Y0205882D03*
X0266984Y0205882D03*
X0286984Y0205882D03*
X0296984Y0205882D03*
X0296984Y0215882D03*
X0306984Y0205882D03*
D12*
X0284189Y0336468D03*
X0284189Y0344268D03*
X0274346Y0344268D03*
X0274346Y0336468D03*
D13*
X0255568Y0354968D03*
X0302968Y0354968D03*
D14*
X0217614Y0363638D03*
X0137614Y0363638D03*
D15*
X0137614Y0353638D03*
X0137614Y0343638D03*
X0137614Y0333638D03*
X0137614Y0323638D03*
X0137614Y0313638D03*
X0217614Y0313638D03*
X0217614Y0323638D03*
X0217614Y0333638D03*
X0217614Y0343638D03*
X0217614Y0353638D03*
D16*
X0173835Y0287102D03*
X0162811Y0287102D03*
D17*
X0087339Y0330921D03*
X0087339Y0338402D03*
X0077102Y0338402D03*
X0077102Y0334661D03*
X0077102Y0330921D03*
D18*
X0097732Y0317614D03*
X0097732Y0306591D03*
X0050803Y0314465D03*
X0050803Y0325488D03*
X0083677Y0144307D03*
X0083677Y0133283D03*
X0233283Y0133283D03*
X0233283Y0144307D03*
X0378953Y0144307D03*
X0378953Y0133283D03*
D19*
X0098953Y0358992D03*
X0098953Y0373953D03*
D20*
X0042074Y0241303D02*
X0035674Y0241303D01*
X0035674Y0230303D02*
X0042074Y0230303D01*
D21*
X0041807Y0158595D03*
X0036807Y0158595D03*
X0031807Y0158595D03*
X0026807Y0158595D03*
X0021807Y0158595D03*
X0046807Y0158595D03*
X0051807Y0158595D03*
X0056807Y0158595D03*
X0061807Y0158595D03*
X0066807Y0158595D03*
X0066807Y0118995D03*
X0061807Y0118995D03*
X0056807Y0118995D03*
X0051807Y0118995D03*
X0046807Y0118995D03*
X0041807Y0118995D03*
X0036807Y0118995D03*
X0031807Y0118995D03*
X0026807Y0118995D03*
X0021807Y0118995D03*
X0171413Y0118995D03*
X0176413Y0118995D03*
X0181413Y0118995D03*
X0186413Y0118995D03*
X0191413Y0118995D03*
X0196413Y0118995D03*
X0201413Y0118995D03*
X0206413Y0118995D03*
X0211413Y0118995D03*
X0216413Y0118995D03*
X0216413Y0158595D03*
X0211413Y0158595D03*
X0206413Y0158595D03*
X0201413Y0158595D03*
X0196413Y0158595D03*
X0191413Y0158595D03*
X0186413Y0158595D03*
X0181413Y0158595D03*
X0176413Y0158595D03*
X0171413Y0158595D03*
X0321020Y0158595D03*
X0326020Y0158595D03*
X0331020Y0158595D03*
X0336020Y0158595D03*
X0341020Y0158595D03*
X0346020Y0158595D03*
X0351020Y0158595D03*
X0356020Y0158595D03*
X0361020Y0158595D03*
X0366020Y0158595D03*
X0366020Y0118995D03*
X0361020Y0118995D03*
X0356020Y0118995D03*
X0351020Y0118995D03*
X0346020Y0118995D03*
X0341020Y0118995D03*
X0336020Y0118995D03*
X0331020Y0118995D03*
X0326020Y0118995D03*
X0321020Y0118995D03*
D22*
X0329957Y0093913D03*
X0334957Y0093913D03*
X0339957Y0093913D03*
X0344957Y0093913D03*
X0349957Y0093913D03*
X0354957Y0093913D03*
X0359957Y0093913D03*
X0364957Y0093913D03*
X0364957Y0073441D03*
X0359957Y0073441D03*
X0354957Y0073441D03*
X0349957Y0073441D03*
X0344957Y0073441D03*
X0339957Y0073441D03*
X0334957Y0073441D03*
X0329957Y0073441D03*
X0215350Y0073441D03*
X0210350Y0073441D03*
X0205350Y0073441D03*
X0200350Y0073441D03*
X0195350Y0073441D03*
X0190350Y0073441D03*
X0185350Y0073441D03*
X0180350Y0073441D03*
X0180350Y0093913D03*
X0185350Y0093913D03*
X0190350Y0093913D03*
X0195350Y0093913D03*
X0200350Y0093913D03*
X0205350Y0093913D03*
X0210350Y0093913D03*
X0215350Y0093913D03*
X0065744Y0093913D03*
X0060744Y0093913D03*
X0055744Y0093913D03*
X0050744Y0093913D03*
X0045744Y0093913D03*
X0040744Y0093913D03*
X0035744Y0093913D03*
X0030744Y0093913D03*
X0030744Y0073441D03*
X0035744Y0073441D03*
X0040744Y0073441D03*
X0045744Y0073441D03*
X0050744Y0073441D03*
X0055744Y0073441D03*
X0060744Y0073441D03*
X0065744Y0073441D03*
D23*
X0028244Y0023059D03*
X0038244Y0023059D03*
X0048244Y0023059D03*
X0058244Y0023059D03*
X0068244Y0023059D03*
X0068244Y0034059D03*
X0058244Y0034059D03*
X0048244Y0034059D03*
X0038244Y0034059D03*
X0028244Y0034059D03*
X0177850Y0034059D03*
X0187850Y0034059D03*
X0197850Y0034059D03*
X0207850Y0034059D03*
X0217850Y0034059D03*
X0217850Y0023059D03*
X0207850Y0023059D03*
X0197850Y0023059D03*
X0187850Y0023059D03*
X0177850Y0023059D03*
X0327457Y0023059D03*
X0337457Y0023059D03*
X0347457Y0023059D03*
X0357457Y0023059D03*
X0367457Y0023059D03*
X0367457Y0034059D03*
X0357457Y0034059D03*
X0347457Y0034059D03*
X0337457Y0034059D03*
X0327457Y0034059D03*
M02*
