%
M48
M72
T01C0.02000
T02C0.03543
T03C0.03600
T04C0.03800
T05C0.04000
T06C0.09000
T07C0.16535
%
T01
X66800Y128400
X76600Y145200
X71000Y153600
X31800Y148000
X97600Y213800
X97600Y223600
X97600Y234800
X97600Y240400
X100400Y199800
X170400Y178800
X174600Y173200
X216600Y166200
X355200Y54200
X181600Y311800
X108800Y355200
T02
X137614Y353638
X137614Y343638
X137614Y333638
X137614Y323638
X137614Y313638
X137614Y363638
X217614Y363638
X217614Y353638
X217614Y343638
X217614Y333638
X217614Y323638
X217614Y313638
T03
X274346Y336468
X274346Y344268
X284189Y344268
X284189Y336468
T04
X286984Y265882
X296984Y265882
X306984Y265882
X276984Y265882
X266984Y265882
X256984Y265882
X246984Y265882
X236984Y265882
X226984Y265882
X216984Y265882
X206984Y265882
X196984Y265882
X186984Y265882
X176984Y265882
X166984Y265882
X156984Y265882
X146984Y265882
X136984Y265882
X126984Y265882
X116984Y265882
X106984Y265882
X96984Y265882
X86984Y265882
X76984Y265882
X76984Y205882
X86984Y205882
X96984Y205882
X106984Y205882
X116984Y205882
X126984Y205882
X136984Y205882
X146984Y205882
X156984Y205882
X166984Y205882
X176984Y205882
X186984Y205882
X196984Y205882
X206984Y205882
X216984Y205882
X226984Y205882
X236984Y205882
X246984Y205882
X256984Y205882
X256984Y215882
X266984Y215882
X276984Y215882
X276984Y205882
X266984Y205882
X286984Y205882
X296984Y205882
X296984Y215882
X306984Y205882
T05
X28244Y23059
X38244Y23059
X48244Y23059
X58244Y23059
X68244Y23059
X68244Y34059
X58244Y34059
X48244Y34059
X38244Y34059
X28244Y34059
X177850Y34059
X187850Y34059
X197850Y34059
X207850Y34059
X217850Y34059
X217850Y23059
X207850Y23059
X197850Y23059
X187850Y23059
X177850Y23059
X327457Y23059
X337457Y23059
X347457Y23059
X357457Y23059
X367457Y23059
X367457Y34059
X357457Y34059
X347457Y34059
X337457Y34059
X327457Y34059
X38874Y230303
X38874Y241303
T06
X255568Y354968
X302968Y354968
T07
X365173Y365173
X375016Y197850
X276591Y79740
X119110Y79740
X40370Y197850
X30528Y365173
M30
