G75*
%MOIN*%
%OFA0B0*%
%FSLAX25Y25*%
%IPPOS*%
%LPD*%
%AMOC8*
5,1,8,0,0,1.08239X$1,22.5*
%
%ADD10C,0.06200*%
%ADD11C,0.06600*%
%ADD12C,0.13000*%
%ADD13R,0.06600X0.06600*%
%ADD14OC8,0.06600*%
%ADD15C,0.06400*%
%ADD16C,0.07400*%
%ADD17C,0.01200*%
%ADD18C,0.04000*%
D10*
X0076984Y0205882D03*
X0086984Y0205882D03*
X0096984Y0205882D03*
X0106984Y0205882D03*
X0116984Y0205882D03*
X0126984Y0205882D03*
X0136984Y0205882D03*
X0146984Y0205882D03*
X0156984Y0205882D03*
X0166984Y0205882D03*
X0176984Y0205882D03*
X0186984Y0205882D03*
X0196984Y0205882D03*
X0206984Y0205882D03*
X0216984Y0205882D03*
X0226984Y0205882D03*
X0236984Y0205882D03*
X0246984Y0205882D03*
X0256984Y0205882D03*
X0256984Y0215882D03*
X0266984Y0215882D03*
X0276984Y0215882D03*
X0276984Y0205882D03*
X0266984Y0205882D03*
X0286984Y0205882D03*
X0296984Y0205882D03*
X0296984Y0215882D03*
X0306984Y0205882D03*
X0306984Y0265882D03*
X0296984Y0265882D03*
X0286984Y0265882D03*
X0276984Y0265882D03*
X0266984Y0265882D03*
X0256984Y0265882D03*
X0246984Y0265882D03*
X0236984Y0265882D03*
X0226984Y0265882D03*
X0216984Y0265882D03*
X0206984Y0265882D03*
X0196984Y0265882D03*
X0186984Y0265882D03*
X0176984Y0265882D03*
X0166984Y0265882D03*
X0156984Y0265882D03*
X0146984Y0265882D03*
X0136984Y0265882D03*
X0126984Y0265882D03*
X0116984Y0265882D03*
X0106984Y0265882D03*
X0096984Y0265882D03*
X0086984Y0265882D03*
X0076984Y0265882D03*
D11*
X0274346Y0336468D03*
X0274346Y0344268D03*
X0284189Y0344268D03*
X0284189Y0336468D03*
D12*
X0302968Y0354968D03*
X0255568Y0354968D03*
D13*
X0217614Y0363638D03*
X0137614Y0363638D03*
D14*
X0137614Y0353638D03*
X0137614Y0343638D03*
X0137614Y0333638D03*
X0137614Y0323638D03*
X0137614Y0313638D03*
X0217614Y0313638D03*
X0217614Y0323638D03*
X0217614Y0333638D03*
X0217614Y0343638D03*
X0217614Y0353638D03*
D15*
X0042074Y0241303D02*
X0035674Y0241303D01*
X0035674Y0230303D02*
X0042074Y0230303D01*
D16*
X0028244Y0023059D03*
X0038244Y0023059D03*
X0048244Y0023059D03*
X0058244Y0023059D03*
X0068244Y0023059D03*
X0068244Y0034059D03*
X0058244Y0034059D03*
X0048244Y0034059D03*
X0038244Y0034059D03*
X0028244Y0034059D03*
X0177850Y0034059D03*
X0187850Y0034059D03*
X0197850Y0034059D03*
X0207850Y0034059D03*
X0217850Y0034059D03*
X0217850Y0023059D03*
X0207850Y0023059D03*
X0197850Y0023059D03*
X0187850Y0023059D03*
X0177850Y0023059D03*
X0327457Y0023059D03*
X0337457Y0023059D03*
X0347457Y0023059D03*
X0357457Y0023059D03*
X0367457Y0023059D03*
X0367457Y0034059D03*
X0357457Y0034059D03*
X0347457Y0034059D03*
X0337457Y0034059D03*
X0327457Y0034059D03*
D17*
X0347457Y0023059D02*
X0348200Y0022000D01*
X0353800Y0016400D01*
X0369200Y0016400D01*
X0373400Y0020600D01*
X0373400Y0036000D01*
X0355200Y0054200D01*
X0254400Y0166200D02*
X0292200Y0204000D01*
X0292200Y0211000D01*
X0296400Y0215200D01*
X0296984Y0215882D01*
X0258600Y0220800D02*
X0181600Y0220800D01*
X0167600Y0206800D01*
X0166984Y0205882D01*
X0167600Y0205400D01*
X0170400Y0202600D01*
X0170400Y0178800D01*
X0174600Y0173200D02*
X0085000Y0173200D01*
X0030400Y0227800D01*
X0030400Y0232000D01*
X0034600Y0236200D01*
X0047200Y0236200D01*
X0076600Y0265600D01*
X0076984Y0265882D01*
X0097600Y0240400D02*
X0121400Y0240400D01*
X0146600Y0265600D01*
X0146984Y0265882D01*
X0176984Y0265882D02*
X0177400Y0267000D01*
X0177400Y0274000D01*
X0216600Y0313200D01*
X0217614Y0313638D01*
X0215200Y0328600D02*
X0251600Y0328600D01*
X0272600Y0349600D01*
X0279600Y0349600D01*
X0283800Y0345400D01*
X0284189Y0344268D01*
X0284189Y0336468D02*
X0283800Y0335600D01*
X0222200Y0274000D01*
X0222200Y0264200D01*
X0215200Y0257200D01*
X0198400Y0257200D01*
X0171800Y0230600D01*
X0040200Y0230600D01*
X0038874Y0230303D01*
X0038874Y0241303D02*
X0040200Y0241800D01*
X0045800Y0241800D01*
X0111600Y0307600D01*
X0194200Y0307600D01*
X0215200Y0328600D01*
X0216600Y0342600D02*
X0217614Y0343638D01*
X0216600Y0342600D02*
X0185800Y0311800D01*
X0181600Y0311800D01*
X0164800Y0328600D01*
X0135400Y0328600D01*
X0108800Y0355200D01*
X0197000Y0260000D02*
X0211000Y0260000D01*
X0216600Y0265600D01*
X0216984Y0265882D01*
X0226984Y0265882D02*
X0227800Y0265600D01*
X0216600Y0254400D01*
X0199800Y0254400D01*
X0169000Y0223600D01*
X0097600Y0223600D01*
X0097600Y0234800D02*
X0171800Y0234800D01*
X0197000Y0260000D01*
X0201200Y0251600D02*
X0222200Y0251600D01*
X0236200Y0265600D01*
X0236984Y0265882D01*
X0246000Y0265600D02*
X0246984Y0265882D01*
X0246000Y0265600D02*
X0229200Y0248800D01*
X0202600Y0248800D01*
X0162000Y0208200D01*
X0162000Y0204000D01*
X0157800Y0199800D01*
X0100400Y0199800D01*
X0097600Y0213800D02*
X0163400Y0213800D01*
X0201200Y0251600D01*
X0258600Y0220800D02*
X0303400Y0265600D01*
X0306200Y0265600D01*
X0306984Y0265882D01*
X0254400Y0166200D02*
X0216600Y0166200D01*
X0198400Y0148000D01*
X0076600Y0148000D01*
X0071000Y0153600D01*
X0076600Y0148000D02*
X0076600Y0145200D01*
X0066800Y0135400D01*
X0066800Y0128400D01*
X0031800Y0148000D02*
X0031800Y0040200D01*
X0037400Y0034600D01*
X0038244Y0034059D01*
X0038244Y0023059D02*
X0038800Y0022000D01*
X0044400Y0016400D01*
X0051400Y0016400D01*
X0057000Y0022000D01*
X0058244Y0023059D01*
X0058244Y0034059D02*
X0058400Y0034600D01*
X0064000Y0040200D01*
X0181600Y0040200D01*
X0187200Y0034600D01*
X0187850Y0034059D01*
X0188600Y0034600D01*
X0194200Y0040200D01*
X0201200Y0040200D01*
X0206800Y0034600D01*
X0207850Y0034059D01*
D18*
X0216600Y0166200D03*
X0174600Y0173200D03*
X0170400Y0178800D03*
X0100400Y0199800D03*
X0097600Y0213800D03*
X0097600Y0223600D03*
X0097600Y0234800D03*
X0097600Y0240400D03*
X0181600Y0311800D03*
X0108800Y0355200D03*
X0071000Y0153600D03*
X0076600Y0145200D03*
X0066800Y0128400D03*
X0031800Y0148000D03*
X0355200Y0054200D03*
M02*
