%
M48
M72
T01C0.02000
T02C0.03937
T03C0.04000
T04C0.07874
T05C0.16535
%
T01
X93400Y62600
X212400Y48600
X206800Y153600
T02
X212516Y178165
X222555Y178165
X232201Y178165
X242240Y178165
X369996Y178165
X380035Y178165
X389681Y178165
X399720Y178165
X84760Y178165
X74720Y178165
X65075Y178165
X55035Y178165
X55035Y20685
X65075Y20685
X74720Y20685
X84760Y20685
X212516Y20685
X222555Y20685
X232201Y20685
X242240Y20685
X369996Y20685
X380035Y20685
X389681Y20685
X399720Y20685
T03
X170606Y88020
X160606Y88020
X150606Y88020
X140606Y88020
X130606Y88020
X130606Y99020
X140606Y99020
X150606Y99020
X160606Y99020
X170606Y99020
X170606Y143138
X160606Y143138
X150606Y143138
X140606Y143138
X130606Y143138
X130606Y154138
X140606Y154138
X150606Y154138
X160606Y154138
X170606Y154138
T04
X28559Y20685
X28559Y53165
X296276Y53165
X296276Y20685
T05
X266748Y16748
X188008Y16748
X28559Y99425
X28559Y170291
X426197Y170291
X426197Y28559
M30
