G75*
%MOIN*%
%OFA0B0*%
%FSLAX25Y25*%
%IPPOS*%
%LPD*%
%AMOC8*
5,1,8,0,0,1.08239X$1,22.5*
%
%ADD10C,0.07400*%
%ADD11C,0.13000*%
%ADD12C,0.06693*%
%ADD13C,0.09843*%
%ADD14C,0.01200*%
%ADD15C,0.04000*%
%ADD16C,0.11811*%
D10*
X0130606Y0088020D03*
X0140606Y0088020D03*
X0150606Y0088020D03*
X0160606Y0088020D03*
X0170606Y0088020D03*
X0170606Y0099020D03*
X0160606Y0099020D03*
X0150606Y0099020D03*
X0140606Y0099020D03*
X0130606Y0099020D03*
X0130606Y0143138D03*
X0140606Y0143138D03*
X0150606Y0143138D03*
X0160606Y0143138D03*
X0170606Y0143138D03*
X0170606Y0154138D03*
X0160606Y0154138D03*
X0150606Y0154138D03*
X0140606Y0154138D03*
X0130606Y0154138D03*
D11*
X0028559Y0020685D03*
X0028559Y0053165D03*
X0296276Y0053165D03*
X0296276Y0020685D03*
D12*
X0242240Y0020685D03*
X0232201Y0020685D03*
X0222555Y0020685D03*
X0212516Y0020685D03*
X0084760Y0020685D03*
X0074720Y0020685D03*
X0065075Y0020685D03*
X0055035Y0020685D03*
X0369996Y0020685D03*
X0380035Y0020685D03*
X0389681Y0020685D03*
X0399720Y0020685D03*
X0399720Y0178165D03*
X0389681Y0178165D03*
X0380035Y0178165D03*
X0369996Y0178165D03*
X0242240Y0178165D03*
X0232201Y0178165D03*
X0222555Y0178165D03*
X0212516Y0178165D03*
X0084760Y0178165D03*
X0074720Y0178165D03*
X0065075Y0178165D03*
X0055035Y0178165D03*
D13*
X0048244Y0034465D02*
X0085000Y0034465D01*
X0241800Y0034465D01*
X0282496Y0034465D01*
X0296276Y0020685D01*
X0048244Y0034465D02*
X0034465Y0020685D01*
X0028559Y0020685D01*
D14*
X0084760Y0020685D02*
X0085000Y0022000D01*
X0085000Y0034465D01*
X0093400Y0062600D02*
X0129800Y0099000D01*
X0130606Y0099020D01*
X0140606Y0099020D02*
X0141000Y0100400D01*
X0141000Y0131200D01*
X0146600Y0136800D01*
X0155000Y0136800D01*
X0160600Y0142400D01*
X0160606Y0143138D01*
X0170606Y0143138D02*
X0171800Y0143800D01*
X0191400Y0143800D01*
X0205400Y0157800D01*
X0359400Y0157800D01*
X0379000Y0177400D01*
X0380035Y0178165D01*
X0388800Y0177400D02*
X0389681Y0178165D01*
X0388800Y0177400D02*
X0365000Y0153600D01*
X0206800Y0153600D01*
X0222200Y0160600D02*
X0167600Y0160600D01*
X0162000Y0155000D01*
X0160606Y0154138D01*
X0150800Y0155000D02*
X0150606Y0154138D01*
X0150800Y0155000D02*
X0167600Y0171800D01*
X0226400Y0171800D01*
X0232000Y0177400D01*
X0232201Y0178165D01*
X0239000Y0177400D02*
X0222200Y0160600D01*
X0239000Y0177400D02*
X0241800Y0177400D01*
X0242240Y0178165D01*
X0146600Y0136800D02*
X0141000Y0142400D01*
X0140606Y0143138D01*
X0130606Y0143138D02*
X0129800Y0143800D01*
X0099000Y0143800D01*
X0065400Y0177400D01*
X0065075Y0178165D01*
X0074720Y0178165D02*
X0075200Y0177400D01*
X0097600Y0155000D01*
X0129800Y0155000D01*
X0130606Y0154138D01*
X0170606Y0099020D02*
X0171800Y0099000D01*
X0311800Y0099000D01*
X0388800Y0022000D01*
X0389681Y0020685D01*
X0393000Y0015000D02*
X0398600Y0020600D01*
X0399720Y0020685D01*
X0393000Y0015000D02*
X0304800Y0015000D01*
X0300600Y0019200D01*
X0296276Y0020685D01*
X0242240Y0020685D02*
X0241800Y0022000D01*
X0241800Y0034465D01*
X0212400Y0048600D02*
X0212400Y0053165D01*
X0160600Y0087800D02*
X0155000Y0082200D01*
X0146600Y0082200D01*
X0141000Y0087800D01*
X0140606Y0088020D01*
X0160600Y0087800D02*
X0160606Y0088020D01*
X0170606Y0088020D02*
X0171800Y0087800D01*
X0313200Y0087800D01*
X0379000Y0022000D01*
X0380035Y0020685D01*
X0369996Y0020685D02*
X0369200Y0022000D01*
X0338400Y0052800D01*
X0302000Y0052800D01*
X0296276Y0053165D01*
D15*
X0212400Y0048600D03*
X0093400Y0062600D03*
X0206800Y0153600D03*
D16*
X0212400Y0053165D02*
X0028559Y0053165D01*
X0212400Y0053165D02*
X0296276Y0053165D01*
M02*
