G75*
%MOIN*%
%OFA0B0*%
%FSLAX25Y25*%
%IPPOS*%
%LPD*%
%AMOC8*
5,1,8,0,0,1.08239X$1,22.5*
%
%ADD10C,0.07400*%
%ADD11C,0.13000*%
%ADD12C,0.09843*%
%ADD13C,0.04362*%
%ADD14C,0.05118*%
%ADD15C,0.01200*%
%ADD16C,0.04000*%
%ADD17C,0.11811*%
%ADD18C,0.09000*%
D10*
X0130606Y0088020D03*
X0140606Y0088020D03*
X0150606Y0088020D03*
X0160606Y0088020D03*
X0170606Y0088020D03*
X0170606Y0099020D03*
X0160606Y0099020D03*
X0150606Y0099020D03*
X0140606Y0099020D03*
X0130606Y0099020D03*
X0130606Y0143138D03*
X0140606Y0143138D03*
X0150606Y0143138D03*
X0160606Y0143138D03*
X0170606Y0143138D03*
X0170606Y0154138D03*
X0160606Y0154138D03*
X0150606Y0154138D03*
X0140606Y0154138D03*
X0130606Y0154138D03*
X0284150Y0152169D03*
X0294150Y0152169D03*
X0304150Y0152169D03*
X0314150Y0152169D03*
X0324150Y0152169D03*
X0324150Y0141169D03*
X0314150Y0141169D03*
X0304150Y0141169D03*
X0294150Y0141169D03*
X0284150Y0141169D03*
X0284150Y0097051D03*
X0294150Y0097051D03*
X0304150Y0097051D03*
X0314150Y0097051D03*
X0324150Y0097051D03*
X0324150Y0086051D03*
X0314150Y0086051D03*
X0304150Y0086051D03*
X0294150Y0086051D03*
X0284150Y0086051D03*
D11*
X0028559Y0020685D03*
X0028559Y0053165D03*
X0296276Y0053165D03*
X0296276Y0020685D03*
D12*
X0304150Y0012811D01*
X0398638Y0012811D01*
X0410449Y0024622D01*
X0296276Y0020685D02*
X0282496Y0034465D01*
X0252969Y0034465D01*
X0099425Y0034465D01*
X0048244Y0034465D01*
X0034465Y0020685D01*
X0028559Y0020685D01*
D13*
X0099425Y0032496D03*
X0252969Y0034465D03*
X0410449Y0024622D03*
D14*
X0099425Y0032496D02*
X0099425Y0034465D01*
D15*
X0094012Y0062516D02*
X0078756Y0062516D01*
X0073343Y0062516D02*
X0090567Y0079740D01*
X0094012Y0062516D02*
X0130429Y0098933D01*
X0130606Y0099020D01*
X0130921Y0099425D01*
X0139287Y0107791D01*
X0160449Y0099425D02*
X0160606Y0099020D01*
X0160449Y0099425D02*
X0160449Y0137319D01*
X0160449Y0142732D01*
X0160606Y0143138D01*
X0160449Y0137319D02*
X0146177Y0137319D01*
X0140764Y0142732D01*
X0140606Y0143138D01*
X0130606Y0143138D02*
X0130429Y0143224D01*
X0078756Y0143224D01*
X0078756Y0144701D01*
X0078756Y0151591D02*
X0078756Y0154051D01*
X0130429Y0154051D01*
X0130606Y0154138D01*
X0130921Y0154543D01*
X0140272Y0163894D01*
X0270685Y0163894D01*
X0271669Y0164878D01*
X0298736Y0157988D02*
X0242142Y0157988D01*
X0235744Y0151591D01*
X0220980Y0160941D02*
X0315469Y0160941D01*
X0323835Y0152575D01*
X0324150Y0152169D01*
X0324327Y0152575D01*
X0384858Y0152575D01*
X0384858Y0156512D01*
X0324150Y0141169D02*
X0323835Y0140764D01*
X0315469Y0132398D01*
X0185547Y0132398D01*
X0183579Y0130429D01*
X0183087Y0130429D01*
X0170783Y0142732D01*
X0170606Y0143138D01*
X0170606Y0154138D02*
X0170783Y0154543D01*
X0214091Y0154543D01*
X0216059Y0156512D01*
X0216551Y0156512D01*
X0220980Y0160941D01*
X0217535Y0152575D02*
X0205970Y0141010D01*
X0211630Y0135350D01*
X0298736Y0135350D01*
X0304150Y0140764D01*
X0304150Y0141169D01*
X0284150Y0141169D02*
X0283972Y0140764D01*
X0211630Y0140764D01*
X0205970Y0141010D02*
X0202280Y0137319D01*
X0177181Y0105823D02*
X0315469Y0105823D01*
X0323835Y0097457D01*
X0324150Y0097051D01*
X0330724Y0099917D02*
X0330724Y0077280D01*
X0201295Y0077280D01*
X0201049Y0077033D01*
X0215567Y0062516D01*
X0215567Y0067929D02*
X0286433Y0067929D01*
X0318421Y0080232D02*
X0323835Y0085646D01*
X0324150Y0086051D01*
X0318421Y0080232D02*
X0243618Y0080232D01*
X0236236Y0087614D01*
X0207693Y0091551D02*
X0199819Y0083677D01*
X0185547Y0083677D02*
X0181118Y0079248D01*
X0139287Y0079248D01*
X0130921Y0087614D01*
X0130606Y0088020D01*
X0140606Y0088020D02*
X0140764Y0087614D01*
X0146177Y0082201D01*
X0160449Y0082201D01*
X0160449Y0087614D01*
X0160606Y0088020D01*
X0170606Y0099020D02*
X0170783Y0099425D01*
X0177181Y0105823D01*
X0177673Y0100409D02*
X0201049Y0077033D01*
X0207693Y0091551D02*
X0278559Y0091551D01*
X0283972Y0086138D01*
X0284150Y0086051D01*
X0284150Y0097051D02*
X0283972Y0097457D01*
X0281020Y0100409D01*
X0183087Y0100409D01*
X0212400Y0053165D02*
X0212400Y0048600D01*
X0294150Y0097051D02*
X0294307Y0097457D01*
X0299720Y0102870D01*
X0308579Y0102870D01*
X0313992Y0097457D01*
X0314150Y0097051D01*
X0304150Y0152169D02*
X0304150Y0152575D01*
X0298736Y0157988D01*
D16*
X0271669Y0164878D03*
X0235744Y0151591D03*
X0217535Y0152575D03*
X0211630Y0140764D03*
X0202280Y0137319D03*
X0139287Y0107791D03*
X0177673Y0100409D03*
X0183087Y0100409D03*
X0185547Y0083677D03*
X0199819Y0083677D03*
X0215567Y0067929D03*
X0215567Y0062516D03*
X0183087Y0046276D03*
X0236236Y0087614D03*
X0286433Y0067929D03*
X0330724Y0099917D03*
X0384858Y0152575D03*
X0090567Y0079740D03*
X0078756Y0062516D03*
X0073343Y0062516D03*
X0078756Y0144701D03*
X0078756Y0151591D03*
D17*
X0028559Y0053165D02*
X0183087Y0053165D01*
X0212400Y0053165D01*
X0296276Y0053165D01*
D18*
X0183087Y0053165D02*
X0183087Y0046276D01*
M02*
