%
M48
M72
T01C0.02000
T02C0.02362
T03C0.04000
T04C0.07874
T05C0.16535
%
T01
X73343Y62516
X78756Y62516
X90567Y79740
X139287Y107791
X177673Y100409
X183087Y100409
X185547Y83677
X199819Y83677
X215567Y67929
X215567Y62516
X183087Y46276
X236236Y87614
X286433Y67929
X330724Y99917
X384858Y152575
X271669Y164878
X235744Y151591
X217535Y152575
X211630Y140764
X202280Y137319
X78756Y144701
X78756Y151591
T02
X252969Y34465
X99425Y32496
X410449Y24622
T03
X324150Y86051
X314150Y86051
X304150Y86051
X294150Y86051
X284150Y86051
X284150Y97051
X294150Y97051
X304150Y97051
X314150Y97051
X324150Y97051
X324150Y141169
X314150Y141169
X304150Y141169
X294150Y141169
X284150Y141169
X284150Y152169
X294150Y152169
X304150Y152169
X314150Y152169
X324150Y152169
X170606Y154138
X160606Y154138
X150606Y154138
X140606Y154138
X130606Y154138
X130606Y143138
X140606Y143138
X150606Y143138
X160606Y143138
X170606Y143138
X170606Y99020
X160606Y99020
X150606Y99020
X140606Y99020
X130606Y99020
X130606Y88020
X140606Y88020
X150606Y88020
X160606Y88020
X170606Y88020
T04
X28559Y20685
X28559Y53165
X296276Y53165
X296276Y20685
T05
X266748Y16748
X188008Y16748
X28559Y99425
X28559Y170291
X426197Y170291
X426197Y28559
M30
